<?xml version="1.0" encoding="utf-8"?>
<!-- Generator: Adobe Illustrator 24.3.0, SVG Export Plug-In . SVG Version: 6.00 Build 0)  -->
<svg version="1.1" id="Capa_1" xmlns="http://www.w3.org/2000/svg" xmlns:xlink="http://www.w3.org/1999/xlink" x="0px" y="0px"
	 viewBox="0 0 720 161" style="enable-background:new 0 0 720 161;" xml:space="preserve">
<style type="text/css">
	.st0{fill:#FFFFFF;}
	.st1{fill:#24CC63;}
	.st2{fill-rule:evenodd;clip-rule:evenodd;fill:#24CC63;}
	.st3{font-family:'Poppins';}
	.st4{font-size:35px;}
	.st5{font-family:'Poppins';}
	.st6{font-size:23px;}
</style>
<g>
	<path class="st0" d="M669.16,126.7H49.79c-25.08,0-45.6-20.52-45.6-45.6v-0.96c0-25.08,20.52-45.6,45.6-45.6h619.37
		c25.08,0,45.6,20.52,45.6,45.6v0.96C714.76,106.18,694.24,126.7,669.16,126.7z"/>
</g>
<g>
	<path class="st1" d="M649.91,126.7H69.04c-25.08,0-45.6-20.52-45.6-45.6v-0.96c0-25.08,20.52-45.6,45.6-45.6h580.87
		c25.08,0,45.6,20.52,45.6,45.6v0.96C695.51,106.18,674.99,126.7,649.91,126.7z"/>
</g>
<g>
	<path class="st1" d="M146.43,11.46c38.38,0,69.6,31.22,69.6,69.6s-31.22,69.6-69.6,69.6s-69.6-31.22-69.6-69.6
		S108.05,11.46,146.43,11.46 M146.43,6.46c-41.2,0-74.6,33.4-74.6,74.6s33.4,74.6,74.6,74.6s74.6-33.4,74.6-74.6
		S187.63,6.46,146.43,6.46L146.43,6.46z"/>
</g>
<g>
	<circle class="st0" cx="146.43" cy="81.06" r="69.93"/>
</g>
<g>
	<path class="st2" d="M171.06,56.28c-6.48-6.52-15.3-10.18-24.49-10.15c-19.08,0-34.61,15.53-34.62,34.62
		c0,6.1,1.59,12.05,4.62,17.31l-4.91,17.94l18.35-4.82c5.08,2.76,10.76,4.21,16.54,4.21h0.02c19.08,0,34.61-15.53,34.62-34.62
		C181.22,71.58,177.57,62.77,171.06,56.28 M146.58,109.55h-0.01c-5.15,0-10.21-1.39-14.65-4.01l-1.05-0.62l-10.89,2.86l2.9-10.62
		l-0.68-1.09c-2.88-4.59-4.41-9.9-4.4-15.31c0.01-15.87,12.91-28.77,28.79-28.77c7.64-0.02,14.96,3.02,20.34,8.44
		c5.41,5.39,8.44,12.72,8.42,20.36C175.34,96.64,162.43,109.55,146.58,109.55 M162.36,87.99c-0.87-0.44-5.12-2.53-5.91-2.82
		c-0.79-0.29-1.37-0.43-1.94,0.43c-0.58,0.86-2.24,2.81-2.74,3.39c-0.51,0.58-1.01,0.65-1.87,0.22c-0.86-0.43-3.65-1.35-6.96-4.29
		c-2.57-2.29-4.31-5.13-4.81-5.99s-0.05-1.33,0.38-1.77c0.39-0.39,0.86-1.01,1.3-1.52c0.43-0.51,0.57-0.86,0.86-1.44
		c0.29-0.58,0.15-1.08-0.07-1.52c-0.22-0.44-1.95-4.69-2.67-6.42c-0.7-1.68-1.41-1.45-1.94-1.48c-0.55-0.02-1.1-0.03-1.65-0.03
		c-0.89,0.02-1.72,0.41-2.31,1.08c-0.79,0.87-3.03,2.96-3.03,7.22c0,4.26,3.1,8.37,3.53,8.95s6.1,9.31,14.78,13.06
		c2.07,0.89,3.68,1.42,4.93,1.82c2.07,0.66,3.96,0.56,5.45,0.34c1.66-0.25,5.12-2.09,5.84-4.11c0.72-2.02,0.72-3.75,0.51-4.11
		C163.8,88.65,163.22,88.43,162.36,87.99"/>
</g>
<text transform="matrix(1 0 0 1 244.2747 78.7299)" class="st0 st3 st4">WhatsApp</text>
<text transform="matrix(1 0 0 1 244.5827 105.3089)" class="st0 st5 st6">Enlace directo</text>
</svg>
