<?xml version="1.0" encoding="utf-8"?>
<!-- Generator: Adobe Illustrator 24.3.0, SVG Export Plug-In . SVG Version: 6.00 Build 0)  -->
<svg version="1.1" id="Capa_1" xmlns="http://www.w3.org/2000/svg" xmlns:xlink="http://www.w3.org/1999/xlink" x="0px" y="0px"
	 viewBox="0 0 32 32" style="enable-background:new 0 0 32 32;" xml:space="preserve">
<style type="text/css">
	.st0{fill:#58B95D;}
	.st1{fill:#1BB2AA;}
	.st2{fill:#929497;}
	.st3{fill:#58595B;}
	.st4{fill:none;}
</style>
<g>
	<g>
		<g>
			<path class="st0" d="M7.78,21.13c-0.05-0.07-0.07-0.16-0.07-0.26c0.01-0.17,0.04-0.27,0.1-0.3c0.06-0.03,0.12-0.05,0.2-0.05
				c0.08,0,0.13,0,0.15,0c0.33,0,0.57-0.09,0.73-0.26c0.15-0.17,0.28-0.36,0.37-0.58c0.09-0.22,0.16-0.36,0.19-0.44l2.9-6.86
				c0.07-0.17,0.1-0.3,0.1-0.4c0-0.2-0.08-0.34-0.23-0.43c-0.15-0.09-0.37-0.16-0.65-0.22c-0.19-0.03-0.3-0.07-0.35-0.1
				c-0.04-0.03-0.07-0.13-0.07-0.28c0-0.13,0.04-0.22,0.11-0.27c0.07-0.04,0.18-0.07,0.34-0.07c0.55,0,0.99,0.04,1.32,0.12
				c0.33,0.08,0.61,0.25,0.85,0.5c0.24,0.25,0.47,0.63,0.68,1.13l2.78,6.86c0.17,0.42,0.33,0.73,0.48,0.94
				c0.15,0.21,0.39,0.32,0.7,0.33h0.1c0.11,0,0.19,0.02,0.23,0.06c0.04,0.04,0.07,0.14,0.08,0.29c0,0.1-0.02,0.19-0.07,0.26
				c-0.05,0.07-0.12,0.11-0.22,0.11c-0.71-0.03-1.31-0.05-1.82-0.05c-0.66,0-1.35,0.02-2.05,0.05c-0.1,0-0.17-0.04-0.22-0.11
				c-0.05-0.07-0.07-0.16-0.07-0.26c0.01-0.15,0.04-0.25,0.08-0.29c0.04-0.04,0.12-0.06,0.23-0.06c0.38,0,0.64-0.04,0.8-0.11
				c0.15-0.07,0.23-0.2,0.23-0.39c0-0.14-0.07-0.4-0.2-0.78l-0.56-1.38h-4.09c-0.28,0.68-0.43,1.08-0.47,1.19
				c-0.04,0.11-0.06,0.17-0.06,0.18c-0.13,0.42-0.2,0.69-0.2,0.81c0,0.19,0.08,0.31,0.25,0.37c0.17,0.06,0.48,0.09,0.94,0.09h0.1
				c0.11,0,0.19,0.02,0.23,0.06c0.04,0.04,0.07,0.14,0.08,0.29c0,0.1-0.02,0.19-0.07,0.26c-0.05,0.07-0.12,0.11-0.22,0.11
				c-0.71-0.03-1.31-0.05-1.81-0.05c-0.35,0-0.89,0.02-1.61,0.05C7.9,21.23,7.83,21.2,7.78,21.13z M11.15,17.16h3.48l-1.67-4.26
				h-0.05L11.15,17.16z"/>
			<path class="st1" d="M18.52,21.13c-0.05-0.07-0.07-0.16-0.07-0.26c0.01-0.17,0.04-0.27,0.1-0.3c0.06-0.03,0.16-0.05,0.31-0.05
				c0.32,0,0.56-0.06,0.71-0.17c0.15-0.12,0.25-0.26,0.29-0.43c0.04-0.17,0.06-0.39,0.07-0.67v-6.56c-0.01-0.29-0.04-0.51-0.07-0.68
				c-0.04-0.17-0.14-0.31-0.29-0.43c-0.15-0.12-0.39-0.18-0.71-0.18h-0.1c-0.11,0-0.19-0.02-0.23-0.06
				c-0.04-0.04-0.07-0.14-0.08-0.29c0-0.1,0.02-0.18,0.07-0.26c0.05-0.07,0.12-0.11,0.22-0.11c0.72,0.03,1.38,0.05,1.97,0.05h2.85
				c0.85,0.01,1.56,0.15,2.13,0.41c0.57,0.26,0.99,0.59,1.25,0.99c0.27,0.4,0.4,0.84,0.4,1.3c0,0.61-0.24,1.17-0.72,1.67
				c-0.48,0.51-1.13,0.87-1.96,1.09l0.28,0.45c0.46,0.75,0.88,1.39,1.26,1.93c0.38,0.54,0.78,1.04,1.23,1.5
				c0.31,0.25,0.64,0.4,0.99,0.45c0.02,0,0.07,0,0.15,0.01c0.08,0.01,0.14,0.04,0.19,0.09c0.05,0.06,0.07,0.14,0.07,0.25
				c0,0.1-0.02,0.19-0.07,0.26c-0.05,0.07-0.12,0.11-0.22,0.11l-0.43-0.02c-0.49-0.02-0.84-0.03-1.06-0.03
				c-0.44-0.09-0.82-0.25-1.13-0.47c-0.31-0.23-0.63-0.55-0.94-0.97c-0.32-0.42-0.77-1.1-1.34-2.05l-0.3-0.48
				c-0.17-0.25-0.33-0.43-0.48-0.52c-0.15-0.09-0.42-0.14-0.8-0.14h-0.48v2.7c0.01,0.28,0.04,0.5,0.07,0.67
				c0.04,0.17,0.14,0.31,0.29,0.43c0.15,0.12,0.39,0.17,0.71,0.17h0.1c0.1,0,0.17,0.02,0.22,0.06c0.05,0.04,0.08,0.14,0.09,0.29
				c0,0.1-0.02,0.19-0.07,0.26c-0.05,0.07-0.12,0.11-0.22,0.11c-0.71-0.03-1.4-0.05-2.07-0.05c-0.59,0-1.24,0.02-1.96,0.05
				C18.64,21.23,18.57,21.2,18.52,21.13z M23.03,15.9c1.65,0,2.47-0.77,2.47-2.32c0-0.63-0.22-1.16-0.65-1.59
				c-0.43-0.43-1.14-0.65-2.12-0.65c-0.32,0-0.56,0.04-0.73,0.12c-0.17,0.08-0.28,0.21-0.34,0.4c-0.06,0.19-0.09,0.48-0.09,0.86
				v3.18H23.03z"/>
		</g>
	</g>
	<g>
		<path class="st2" d="M4.36,24.14c-0.36-0.52-0.1-0.95,0.42-1.31c0.59-0.4,1.14-0.51,1.54,0.08c0.11,0.16,0.21,0.34,0.28,0.51
			l-1.85,1.26C4.65,24.53,4.47,24.3,4.36,24.14z M5.01,23.08c-0.36,0.25-0.7,0.58-0.44,0.96c0.06,0.08,0.13,0.17,0.19,0.25
			l1.49-1.02c-0.04-0.08-0.07-0.14-0.12-0.21C5.82,22.59,5.46,22.77,5.01,23.08z"/>
		<path class="st2" d="M4.74,21.98l0.74-0.38l0.14,0.27l-1.56,0.8l-0.16-0.21l0.27-0.15c-0.21,0.04-0.4-0.05-0.5-0.23
			c-0.1-0.19-0.04-0.37,0.15-0.47c0.15-0.08,0.26-0.05,0.34,0.1c0.02,0.03,0.03,0.08,0.02,0.13c-0.05,0.01-0.1,0.02-0.14,0.04
			c-0.1,0.05-0.12,0.12-0.07,0.22C4.09,22.31,4.53,22.09,4.74,21.98z"/>
		<path class="st2" d="M5,20.35c0.1,0.28-0.02,0.56-0.3,0.67c-0.43,0.16-0.7-0.28-0.86-0.71l-0.28,0.1
			c-0.2,0.08-0.31,0.16-0.23,0.36c0.06,0.16,0.21,0.23,0.35,0.17c0.04-0.01,0.08-0.04,0.13-0.08c0.04,0.02,0.07,0.07,0.08,0.11
			c0.05,0.14,0.01,0.25-0.13,0.31c-0.18,0.07-0.44-0.04-0.6-0.45c-0.13-0.36-0.01-0.59,0.29-0.7l0.98-0.37
			c0.09-0.03,0.15-0.08,0.15-0.17c0.08,0,0.14,0.05,0.16,0.13c0.04,0.11-0.01,0.2-0.11,0.25C4.82,20.05,4.94,20.18,5,20.35z
			 M4.25,20.15L4,20.24c0.11,0.29,0.28,0.56,0.57,0.45c0.17-0.06,0.25-0.21,0.18-0.39C4.67,20.1,4.46,20.07,4.25,20.15z"/>
		<path class="st2" d="M4.32,18.88c0.13-0.03,0.23,0.05,0.26,0.18c0.03,0.12-0.01,0.23-0.14,0.27c-0.14,0.04-0.23-0.05-0.26-0.17
			C4.15,19.03,4.19,18.92,4.32,18.88z"/>
		<path class="st3" d="M4.1,16.22l-0.77,0.24l0.07,0.93l0.8,0.12L4.23,18l-3.1-0.62l-0.04-0.58l2.98-1.01L4.1,16.22z M1.4,17.07
			l1.66,0.26l-0.06-0.77L1.4,17.07z"/>
		<path class="st3" d="M1.74,14.92l0.42,0.03c-0.28-0.15-0.41-0.42-0.38-0.73c0.06-0.54,0.4-0.64,0.94-0.58l1.23,0.13
			c0.12,0.01,0.22-0.01,0.28-0.11c0.1,0.05,0.13,0.17,0.12,0.28c-0.02,0.21-0.17,0.27-0.37,0.25l-1.22-0.13
			c-0.34-0.04-0.59-0.03-0.63,0.31c-0.05,0.45,0.45,0.57,0.9,0.62l1.13,0.12L4.1,15.53l-2.34-0.25L1.74,14.92z"/>
		<path class="st3" d="M4.84,11.52c0.09,0.07,0.11,0.16,0.07,0.27c-0.04,0.15-0.18,0.22-0.35,0.18c0.17,0.15,0.2,0.43,0.13,0.65
			c-0.2,0.64-0.84,0.68-1.49,0.48c-0.68-0.21-1.13-0.62-0.92-1.31c0.04-0.14,0.11-0.28,0.19-0.4l-0.82-0.25l0.08-0.41l2.81,0.86
			C4.67,11.61,4.77,11.61,4.84,11.52z M2.54,11.89c-0.13,0.43,0.38,0.62,0.78,0.75c0.4,0.12,0.99,0.22,1.12-0.21
			c0.09-0.28-0.11-0.48-0.41-0.57l-1.21-0.37C2.69,11.6,2.59,11.73,2.54,11.89z"/>
		<path class="st3" d="M4.3,10.23l1.01,0.5l-0.18,0.37l-2.11-1.04l0.11-0.34L3.5,9.89C3.3,9.7,3.23,9.42,3.36,9.16
			C3.48,8.9,3.73,8.82,3.99,8.95c0.2,0.1,0.26,0.24,0.16,0.44c-0.02,0.05-0.07,0.1-0.12,0.13C3.98,9.47,3.93,9.42,3.88,9.4
			c-0.14-0.07-0.23-0.03-0.3,0.1C3.43,9.79,4.02,10.1,4.3,10.23z"/>
		<path class="st3" d="M6.38,8.17C6.65,8.36,6.6,8.79,6.41,9.06C6.02,9.62,5.45,9.53,4.89,9.15c-0.6-0.42-0.95-1-0.53-1.6
			c0.25-0.36,0.61-0.44,0.96-0.2C5.79,7.67,5.66,8.14,5.34,8.6C5.29,8.67,5.22,8.76,5.19,8.81c0.35,0.23,0.75,0.4,0.98,0.06
			c0.16-0.23,0.15-0.48,0-0.72C6.24,8.11,6.32,8.13,6.38,8.17z M4.99,8.67C5.05,8.61,5.1,8.54,5.14,8.48
			c0.2-0.28,0.24-0.55-0.04-0.75c-0.2-0.14-0.44-0.17-0.57,0.02C4.31,8.07,4.65,8.42,4.99,8.67z"/>
		<path class="st3" d="M7.52,7.71C7.23,8,6.82,8.02,6.53,7.73C6.08,7.29,6.46,6.72,6.9,6.27L6.61,5.99C6.4,5.79,6.24,5.71,6.04,5.92
			C5.89,6.08,5.88,6.3,6.04,6.44c0.04,0.04,0.1,0.08,0.16,0.11c0,0.06-0.05,0.12-0.09,0.16c-0.14,0.15-0.3,0.16-0.45,0.01
			C5.48,6.55,5.46,6.17,5.88,5.74C6.24,5.37,6.59,5.39,6.9,5.69l1.01,0.99C8,6.77,8.09,6.81,8.2,6.76c0.04,0.1,0.02,0.19-0.06,0.27
			C8.03,7.14,7.88,7.14,7.77,7.05C7.78,7.33,7.68,7.54,7.52,7.71z M7.33,6.68L7.07,6.43C6.78,6.72,6.55,7.09,6.84,7.38
			c0.18,0.17,0.4,0.18,0.57,0C7.63,7.16,7.54,6.89,7.33,6.68z"/>
		<path class="st3" d="M9.46,4.27l1.43,0.76L10.47,5.3L8.93,4.5C8.9,4.49,8.89,4.48,8.88,4.45C9.29,4.2,9.41,3.91,9.16,3.51
			c-0.2-0.33-0.47-0.35-0.81-0.13C8.26,3.43,8.16,3.5,8.09,3.56l1.43,2.32L9.14,6.11L7.55,3.53C7.75,3.39,8,3.21,8.21,3.08
			c0.53-0.33,1.01-0.34,1.33,0.17C9.76,3.61,9.73,4,9.46,4.27z"/>
		<path class="st3" d="M12.36,4c0.12,0.31-0.15,0.64-0.46,0.76c-0.64,0.25-1.06-0.14-1.32-0.77c-0.27-0.68-0.24-1.36,0.44-1.63
			c0.4-0.16,0.75-0.03,0.91,0.37c0.21,0.53-0.16,0.84-0.68,1.05c-0.07,0.03-0.19,0.07-0.24,0.09c0.17,0.39,0.4,0.75,0.78,0.59
			c0.26-0.1,0.39-0.32,0.4-0.6C12.28,3.88,12.33,3.93,12.36,4z M10.92,3.65c0.09-0.02,0.17-0.05,0.24-0.07
			c0.32-0.13,0.51-0.33,0.38-0.64c-0.09-0.22-0.27-0.39-0.49-0.3C10.69,2.78,10.78,3.26,10.92,3.65z"/>
		<path class="st3" d="M12.94,2.32c0.13,0.58,1.19,0.27,1.36,1.04c0.1,0.46-0.21,0.78-0.67,0.88c-0.37,0.08-0.76,0.05-0.85-0.32
			c-0.04-0.2,0.05-0.33,0.25-0.37c0.05-0.01,0.13-0.01,0.18,0.02c-0.01,0.07-0.01,0.14,0,0.21c0.04,0.2,0.22,0.27,0.42,0.22
			c0.24-0.05,0.34-0.2,0.29-0.44c-0.13-0.58-1.2-0.27-1.36-1.04c-0.09-0.4,0.25-0.7,0.65-0.79c0.39-0.09,0.72-0.04,0.81,0.35
			c0.04,0.2-0.05,0.33-0.25,0.37c-0.05,0.01-0.13,0.02-0.19-0.01c0.01-0.08,0.01-0.14,0-0.21c-0.04-0.2-0.18-0.3-0.38-0.26
			C13.01,2.01,12.9,2.13,12.94,2.32z"/>
		<path class="st3" d="M14.41,1.66c0.25-0.13,0.47-0.33,0.61-0.57l0.12-0.01l0.04,0.45l0.43-0.04l0.02,0.21l-0.44,0.04l0.14,1.69
			c0.01,0.17,0.11,0.32,0.32,0.24c-0.06,0.2-0.25,0.28-0.37,0.29c-0.23,0.02-0.33-0.12-0.36-0.36l-0.16-1.82L14.43,1.8L14.41,1.66z"
			/>
		<path class="st3" d="M16.58,2.72l-0.04,1.13l-0.42-0.01l0.08-2.35l0.35-0.04l0,0.42c0.09-0.27,0.32-0.44,0.6-0.43
			c0.29,0.01,0.47,0.2,0.46,0.49c-0.01,0.23-0.11,0.34-0.33,0.33c-0.05,0-0.12-0.02-0.16-0.06c0.03-0.07,0.05-0.13,0.05-0.19
			c0.01-0.15-0.07-0.22-0.21-0.23C16.63,1.75,16.6,2.41,16.58,2.72z"/>
		<path class="st3" d="M19.32,3.76c-0.06,0.33-0.47,0.46-0.8,0.4c-0.67-0.12-0.83-0.68-0.71-1.35c0.13-0.72,0.52-1.28,1.24-1.14
			c0.43,0.08,0.65,0.37,0.58,0.8c-0.1,0.56-0.58,0.63-1.14,0.53c-0.08-0.01-0.19-0.04-0.25-0.05c-0.06,0.42-0.06,0.84,0.35,0.92
			c0.27,0.05,0.5-0.07,0.66-0.3C19.32,3.61,19.34,3.68,19.32,3.76z M18.29,2.7c0.08,0.03,0.16,0.05,0.24,0.06
			c0.34,0.06,0.6-0.01,0.66-0.34c0.04-0.24-0.02-0.47-0.26-0.51C18.56,1.84,18.38,2.29,18.29,2.7z"/>
		<path class="st3" d="M21.86,3.82c-0.25,0.67-0.7,1.14-1.37,0.89c-0.14-0.05-0.28-0.13-0.4-0.22l-0.28,0.75l-0.41-0.09l1.13-3.04
			l0.35,0.07l-0.13,0.4c0.23-0.24,0.5-0.3,0.8-0.19C22.13,2.6,22.08,3.24,21.86,3.82z M20.59,3.14l-0.37,1
			c0.1,0.14,0.23,0.25,0.39,0.31c0.42,0.16,0.66-0.39,0.81-0.78c0.14-0.38,0.29-0.86-0.11-1.01C20.96,2.54,20.72,2.8,20.59,3.14z"/>
		<path class="st3" d="M23.92,5.01c-0.38,0.63-0.88,1.01-1.51,0.63c-0.64-0.38-0.55-0.95-0.17-1.58c0.36-0.6,0.9-0.96,1.5-0.6
			C24.34,3.82,24.28,4.41,23.92,5.01z M23.51,4.79c0.21-0.35,0.45-0.88,0.08-1.1c-0.37-0.22-0.73,0.24-0.94,0.59
			c-0.23,0.38-0.49,0.89-0.09,1.13C22.96,5.64,23.28,5.17,23.51,4.79z"/>
	</g>
	<polygon points="23.83,8.06 24,7.9 23.99,7.89 23.82,8.05 	"/>
	<path class="st1" d="M4.92,15.85c0,2.99,1.16,5.8,3.28,7.92l0.16-0.16c-2.07-2.07-3.21-4.82-3.21-7.75
		c0-6.05,4.92-10.96,10.96-10.96c2.9,0,5.64,1.12,7.71,3.17l0.17-0.16c-2.11-2.09-4.91-3.24-7.87-3.24
		C9.94,4.65,4.92,9.67,4.92,15.85z"/>
	<path class="st4" d="M27.61,10.1c0.09,0.2,0.2,0.41,0.32,0.61c0.6,0.02,1.21,0.05,1.81,0.11c-0.01-0.02-0.02-0.04-0.03-0.06
		c-0.02-0.04-0.04-0.08-0.06-0.12C28.97,10.47,28.29,10.29,27.61,10.1z"/>
	<path class="st4" d="M29.31,9.8C29.31,9.8,29.32,9.81,29.31,9.8C29.32,9.8,29.31,9.8,29.31,9.8C29.31,9.8,29.31,9.8,29.31,9.8z"/>
	<path class="st4" d="M28.04,10.87c0.11,0.17,0.24,0.33,0.38,0.47c0.5,0.51,1.13,0.78,1.73,0.73c-0.1-0.37-0.22-0.73-0.35-1.09
		c0,0-0.01,0-0.01,0C29.21,10.93,28.62,10.89,28.04,10.87z"/>
	<path class="st4" d="M30.75,10.89c0.01-0.41-0.11-0.86-0.37-1.28c-0.08,0.44-0.2,0.88-0.36,1.3c0.06,0.16,0.11,0.33,0.17,0.5
		c0.06,0.16,0.12,0.32,0.17,0.49C30.59,11.64,30.74,11.28,30.75,10.89z"/>
	<path class="st4" d="M27.6,7.77c-0.29-0.08-0.58-0.16-0.87-0.23c0.07,0.26,0.14,0.5,0.21,0.73c0.51,0.11,0.94,0.29,1.37,0.53
		C28.12,8.45,27.83,8.05,27.6,7.77z"/>
	<path class="st4" d="M28.46,9.07C27.98,8.8,27.54,8.58,27,8.46c0.12,0.38,0.24,0.74,0.37,1.07c0.05,0.12,0.1,0.25,0.15,0.37
		c0.67,0.19,1.34,0.37,2.02,0.53C29.24,9.94,28.88,9.48,28.46,9.07z"/>
	<path d="M29.75,10.81c-0.01-0.02-0.02-0.04-0.03-0.07C29.72,10.77,29.73,10.79,29.75,10.81C29.74,10.81,29.75,10.81,29.75,10.81z"
		/>
	<path class="st0" d="M30.52,12.62c-0.03-0.18-0.07-0.37-0.12-0.55c0.3-0.29,0.49-0.71,0.51-1.18c0.02-0.44-0.12-0.92-0.39-1.37
		c-0.14-0.23-0.3-0.44-0.49-0.63c-0.38-0.39-0.88-0.71-1.49-0.97c-0.03-0.01-0.07-0.03-0.1-0.04c-0.08-0.03-0.17-0.06-0.26-0.09
		c-0.51-0.18-1.03-0.31-1.54-0.43c-0.03-0.01-0.06,0-0.08,0.02c-0.02,0.02-0.03,0.05-0.02,0.08c0.23,0.83,0.44,1.51,0.68,2.13
		c0.24,0.62,0.55,1.32,1.08,1.87c0.54,0.55,1.24,0.83,1.89,0.77c0.32,1.21,0.49,2.47,0.49,3.76c0,8.11-6.6,14.7-14.7,14.7
		c-3.91,0-7.63-1.58-10.35-4.27l-0.16,0.17c2.76,2.73,6.54,4.33,10.51,4.33c8.23,0,14.93-6.7,14.93-14.93
		C30.91,14.84,30.78,13.71,30.52,12.62z M29.92,9.01c0.12,0.13,0.24,0.26,0.34,0.41c-0.07,0.43-0.18,0.85-0.33,1.26
		c-0.01,0.03-0.02,0.06-0.03,0.08c-0.17-0.33-0.36-0.65-0.59-0.95c0,0,0-0.01-0.01-0.01c0,0,0,0,0,0c0-0.01,0.01-0.02,0.01-0.03
		c0-0.19-0.02-0.38-0.05-0.57c-0.05-0.29-0.13-0.58-0.25-0.85C29.37,8.53,29.68,8.76,29.92,9.01z M28.33,8.02
		c0.02,0.01,0.03,0.01,0.05,0.02c0.11,0.04,0.22,0.09,0.32,0.14c0.04,0.02,0.08,0.03,0.11,0.05c-0.01,0.02-0.01,0.04,0,0.06
		c0.05,0.1,0.1,0.21,0.14,0.32c0.1,0.27,0.16,0.55,0.18,0.83c0.01,0.05,0.01,0.11,0.02,0.16c-0.17-0.22-0.36-0.42-0.56-0.61l0,0
		c-0.17-0.36-0.46-0.79-0.72-1.13C28.03,7.91,28.18,7.96,28.33,8.02z M26.74,7.55c0.29,0.07,0.58,0.14,0.87,0.23
		c0.23,0.28,0.52,0.68,0.72,1.04c-0.44-0.24-0.86-0.42-1.37-0.53C26.88,8.05,26.81,7.81,26.74,7.55z M27.37,9.53
		C27.25,9.2,27.12,8.84,27,8.46c0.53,0.13,0.97,0.34,1.45,0.62c0.42,0.4,0.79,0.86,1.09,1.36c-0.67-0.16-1.35-0.34-2.02-0.53
		C27.47,9.78,27.42,9.65,27.37,9.53z M27.61,10.1c0.67,0.19,1.36,0.37,2.04,0.53c0.02,0.04,0.04,0.08,0.06,0.12
		c0.01,0.02,0.02,0.04,0.03,0.07c0,0-0.01,0-0.01,0c-0.6-0.06-1.21-0.09-1.81-0.11C27.81,10.51,27.7,10.3,27.61,10.1z M28.42,11.34
		c-0.14-0.15-0.27-0.31-0.38-0.47c0.58,0.02,1.17,0.06,1.75,0.11c0,0,0.01,0,0.01,0c0.13,0.36,0.25,0.72,0.35,1.09
		C29.56,12.12,28.92,11.85,28.42,11.34z M30.19,11.41c-0.05-0.17-0.11-0.33-0.17-0.5c0.16-0.42,0.28-0.86,0.36-1.3
		c0.25,0.43,0.38,0.87,0.37,1.28c-0.01,0.39-0.16,0.75-0.4,1C30.31,11.73,30.25,11.57,30.19,11.41z"/>
</g>
</svg>
