<?xml version="1.0" encoding="utf-8"?>
<!-- Generator: Adobe Illustrator 24.3.0, SVG Export Plug-In . SVG Version: 6.00 Build 0)  -->
<svg version="1.1" id="Capa_1" xmlns="http://www.w3.org/2000/svg" xmlns:xlink="http://www.w3.org/1999/xlink" x="0px" y="0px"
	 viewBox="0 0 107.26 40.93" style="enable-background:new 0 0 107.26 40.93;" xml:space="preserve">
<style type="text/css">
	.st0{fill:#FFFFFF;}
</style>
<g>
	<path class="st0" d="M47.66,36.09c0.34-0.49,0.67-0.99,1-1.49c0.09-0.13,0.18-0.2,0.34-0.17c0.04,0.01,0.08,0,0.12,0
		c14.67,0,29.34,0,44.01,0c0.1,0,0.21,0,0.31,0c0.03,0.08-0.03,0.13-0.07,0.18c-1.06,1.56-2.12,3.11-3.17,4.67
		c-0.07,0.11-0.15,0.15-0.28,0.14c-0.07-0.01-0.15,0-0.22,0c-13.12,0-26.23,0-39.35,0c-1.55,0-3.11,0-4.66,0
		c-0.09,0-0.18-0.01-0.27-0.01c-0.05-0.11,0.03-0.18,0.08-0.26c0.65-0.97,1.31-1.94,1.97-2.9C47.53,36.19,47.57,36.12,47.66,36.09z"
		/>
	<path class="st0" d="M54.9,20.33c0.46,0,0.94,0,1.41,0c0.9,0,1.8-0.02,2.69,0c2.13,0.05,4.25,0.01,6.38,0.02
		c0.2,0,0.24,0.06,0.24,0.25c-0.01,0.94-0.01,1.87,0,2.81c0,0.2-0.05,0.26-0.25,0.26c-1.72-0.01-3.44,0-5.17-0.01
		c-0.23,0-0.29,0.07-0.28,0.28c0.02,0.23,0.02,0.47,0,0.7c-0.01,0.19,0.04,0.24,0.24,0.24c1.66-0.01,3.31-0.01,4.97,0
		c0.39,0,0.33-0.05,0.34,0.33c0,0.9-0.01,1.81,0.01,2.71c0,0.22-0.07,0.26-0.27,0.26c-1.66-0.01-3.31,0-4.97,0
		c-0.31,0-0.31,0-0.31,0.32c0,0.26,0.01,0.52,0,0.78c-0.01,0.21,0.04,0.27,0.26,0.27c1.71-0.01,3.43,0,5.14-0.01
		c0.24,0,0.29,0.06,0.29,0.29c-0.01,0.93-0.01,1.86,0,2.79c0,0.17-0.04,0.24-0.22,0.24c-3.02-0.01-6.03-0.01-9.05,0
		c-0.23,0-0.24-0.1-0.24-0.27c0-3.37,0-6.74,0.01-10.11c0-0.19-0.05-0.34-0.15-0.49c-0.35-0.5-0.69-1.01-1.04-1.52
		C54.91,20.43,54.88,20.4,54.9,20.33z"/>
	<path class="st0" d="M34.87,23.53c0.01,0.15-0.09,0.14-0.19,0.14c-0.55,0-1.1,0-1.65,0c-1.2,0-2.41,0.01-3.61-0.01
		c-0.22,0-0.28,0.07-0.26,0.27c0.02,0.24,0.02,0.49,0,0.73c-0.01,0.18,0.05,0.23,0.23,0.23c1.13-0.01,2.26,0,3.4,0
		c0.58,0,1.16,0.01,1.75,0c0.16,0,0.2,0.05,0.2,0.21c-0.01,0.96-0.01,1.92,0,2.88c0,0.2-0.07,0.22-0.24,0.22
		c-1.68-0.01-3.36,0-5.05-0.01c-0.24,0-0.31,0.06-0.29,0.3c0.02,0.27,0.02,0.53,0,0.8c-0.01,0.21,0.05,0.27,0.27,0.27
		c1.22-0.01,2.44-0.01,3.66-0.01c0.53,0,1.05,0,1.58,0c0.15,0,0.21,0.03,0.21,0.2c-0.01,0.97-0.01,1.94,0,2.91
		c0,0.15-0.04,0.21-0.2,0.21c-3.03,0-6.06-0.01-9.1,0c-0.21,0-0.21-0.1-0.21-0.25c0-2.92,0-5.83,0-8.75c0-1.16,0-2.31,0-3.47
		c0.08-0.06,0.17-0.03,0.26-0.03c2.18,0,4.37,0.02,6.55-0.01c0.77-0.01,1.55-0.04,2.32-0.04c0.13,0,0.26-0.02,0.38,0.06
		c0.09,0.1,0.08,0.22,0.08,0.34c0,0.42,0.01,0.85,0,1.27c0.01,0.43,0,0.85,0,1.28C34.94,23.35,34.93,23.45,34.87,23.53z"/>
	<path class="st0" d="M71.98,29.54c0.13,0,0.22,0,0.31,0c1.44,0,2.88,0.01,4.32-0.01c0.23,0,0.28,0.07,0.27,0.29
		c-0.01,0.93-0.01,1.86,0,2.79c0,0.19-0.05,0.24-0.24,0.24c-3.14-0.01-6.27-0.01-9.41,0c-0.21,0-0.25-0.06-0.25-0.26
		c0.01-0.86,0.01-1.71,0-2.57c0-0.14,0.04-0.24,0.12-0.35c1.48-1.93,2.96-3.85,4.44-5.78c0.05-0.06,0.11-0.11,0.12-0.2
		c-0.08-0.05-0.17-0.02-0.26-0.02c-1.39,0-2.78,0-4.17,0c-0.19,0-0.27-0.03-0.26-0.25c0.01-0.95,0.01-1.89,0-2.84
		c0-0.18,0.05-0.23,0.23-0.23c3.1,0.01,6.21,0.01,9.31,0c0.18,0,0.23,0.05,0.23,0.23c-0.01,0.84-0.01,1.68,0,2.52
		c0,0.17-0.05,0.31-0.16,0.44c-1.47,1.91-2.95,3.83-4.42,5.74C72.12,29.36,72.06,29.43,71.98,29.54z"/>
	<path class="st0" d="M29.66,9.57c0.59-0.86,1.19-1.71,1.76-2.58c0.18-0.28,0.37-0.4,0.71-0.39c1.32,0.03,2.63,0.01,3.95,0.01
		c0.03,0.11-0.06,0.17-0.1,0.24c-1.31,1.93-2.62,3.86-3.93,5.79c-0.06,0.09-0.11,0.18-0.16,0.27c-0.04,0.22-0.19,0.37-0.31,0.54
		c-0.59,0.87-1.18,1.74-1.78,2.6c-0.04,0.06-0.07,0.13-0.15,0.15c-0.6,0.87-1.2,1.74-1.78,2.62c-0.15,0.23-0.31,0.33-0.6,0.32
		c-1.26-0.02-2.52,0-3.78-0.01c-1.49-0.01-2.97-0.02-4.46-0.03c-0.02-0.12,0.07-0.17,0.14-0.24c0.96-0.96,1.92-1.92,2.88-2.88
		c0.07-0.07,0.14-0.13,0.24-0.17c0.97,0,1.93-0.01,2.9-0.01c0.18,0,0.29-0.06,0.39-0.21c0.61-0.92,1.23-1.83,1.84-2.75
		c0-0.1,0.07-0.18,0.12-0.26c0.65-0.96,1.29-1.91,1.94-2.87C29.54,9.67,29.58,9.59,29.66,9.57z"/>
	<path class="st0" d="M43.2,29.54c0.45,0,0.91,0.02,1.36,0c0.21-0.01,0.25,0.07,0.25,0.26c-0.01,0.72,0,1.44,0,2.16
		c0.1,0.23,0.07,0.47,0.07,0.72c0,0.19-0.1,0.28-0.28,0.29c-0.5,0-1,0.03-1.5-0.02c-0.1-0.01-0.21-0.02-0.31-0.02
		c-2.09-0.07-4.18-0.05-6.26-0.06c-0.08,0-0.16,0.02-0.24-0.03c0-0.1-0.01-0.21-0.01-0.31c0-3.15,0-6.3,0-9.45
		c0-0.1,0-0.21-0.01-0.31c-0.07-0.08-0.08-0.18-0.08-0.27c0-0.44-0.01-0.89,0-1.33c-0.01-0.16-0.01-0.32-0.01-0.48
		c0.01-0.3,0.07-0.35,0.38-0.37c0.22-0.01,0.43,0.06,0.65,0.06c0.86-0.01,1.71,0,2.57,0c0.09,0,0.18-0.01,0.26,0.01
		c0.04,0.08,0.02,0.16,0.02,0.24c0,0.34,0,0.68,0,1.02c-0.02,2.5,0.07,5,0.06,7.5c0,0.32,0.02,0.34,0.35,0.34c0.78,0,1.55,0,2.33,0
		C42.94,29.46,43.08,29.46,43.2,29.54z"/>
	<path class="st0" d="M46.12,26.58c0-1.98,0-3.96,0-5.94c0-0.21,0.04-0.29,0.27-0.29c1.08,0.01,2.17,0.01,3.25,0
		c0.23,0,0.28,0.07,0.28,0.29c-0.01,2.87,0,5.74-0.01,8.61c0,0.25,0.06,0.31,0.31,0.3c1.39-0.01,2.78,0,4.17-0.01
		c0.23,0,0.28,0.07,0.28,0.28c-0.01,0.93-0.01,1.86,0,2.79c0,0.19-0.05,0.24-0.24,0.24c-2.68-0.01-5.37-0.01-8.05,0
		c-0.21,0-0.25-0.07-0.25-0.26C46.12,30.59,46.12,28.58,46.12,26.58z"/>
	<path class="st0" d="M46.84,14.02c-0.97,0.86-2.13,1.17-3.4,1.16c-0.83-0.01-1.66,0-2.5-0.01c-0.18,0-0.23,0.05-0.23,0.23
		c0.01,1.15,0.01,2.29,0,3.44c0,0.08,0.04,0.18-0.04,0.25c-0.11-0.03-0.18-0.1-0.25-0.18c-0.9-0.9-1.81-1.81-2.71-2.71
		c-0.07-0.07-0.16-0.14-0.19-0.25c-0.03-0.13,0.05-0.21,0.13-0.3c1.23-1.24,2.47-2.47,3.71-3.7c0.05-0.05,0.1-0.1,0.18-0.12
		c0.39-0.04,0.79-0.02,1.18-0.02c0.24,0,0.47-0.02,0.7-0.06c0.38-0.06,0.66-0.33,0.71-0.66c0.07-0.47-0.08-0.79-0.47-0.98
		c-0.06-0.03-0.13-0.06-0.18-0.11c-0.06-0.11,0.03-0.18,0.09-0.25c0.79-0.79,1.58-1.58,2.37-2.37c0.06-0.05,0.11-0.13,0.2-0.1
		c0.79,0.44,1.3,1.11,1.65,1.94c1.68-2.16,3.87-3.02,6.54-2.75c0.02,0.14-0.1,0.2-0.17,0.27c-1.01,1.02-2.03,2.03-3.04,3.04
		c-1.35,1.34-2.69,2.69-4.04,4.03C47.02,13.9,46.96,14,46.84,14.02z"/>
	<path class="st0" d="M7.7,25.03c-1.03-1.51-2.06-3.01-3.08-4.52c-0.01-0.02-0.02-0.04-0.04-0.09c0.36,0,0.71-0.01,1.05,0
		c0.16,0.01,0.25-0.05,0.33-0.18c0.25-0.38,0.51-0.76,0.78-1.14c-0.1-0.06-0.19-0.03-0.27-0.03c-0.95,0-1.89-0.01-2.84,0
		c-0.24,0-0.37-0.04-0.51-0.28c-0.33-0.56-0.7-1.11-1.1-1.62c-0.35-0.45-0.47-0.92-0.47-1.49c0.03-2.9,0.01-5.8,0.01-8.7
		c0-0.1,0.01-0.19,0.01-0.29c0.12,0,0.15,0.1,0.21,0.18C2.32,7.62,2.82,8.4,3.35,9.16c1.15,1.72,2.32,3.42,3.48,5.13
		C7.31,15,7.79,15.7,8.27,16.41c0.51,0.76,1.02,1.52,1.54,2.27c0.07,0.1,0.17,0.19,0.16,0.34c-0.06,0.08-0.15,0.04-0.22,0.04
		c-0.5,0-1,0.01-1.5,0c-0.13,0-0.2,0.03-0.28,0.14c-0.45,0.67-0.9,1.34-1.36,2c-0.08,0.12-0.07,0.2,0.01,0.31
		c0.67,0.99,1.34,1.98,2.01,2.97c-0.23,0.25-0.53,0.4-0.82,0.56C7.77,25.06,7.73,25.06,7.7,25.03z"/>
	<path class="st0" d="M46.84,14.02c0.04-0.05,0.08-0.1,0.12-0.15c1.35-1.35,2.7-2.7,4.05-4.05c0.03-0.03,0.06-0.05,0.09-0.08
		c0.26,0.17,0.5,0.36,0.62,0.66c-0.02,0.08-0.08,0.14-0.14,0.2c-0.56,0.52-0.82,1.18-0.91,1.93c-0.09,0.76,0.06,1.45,0.46,2.08
		c0.58,0.92,1.44,1.32,2.52,1.3c0.93-0.02,1.67-0.38,2.23-1.11c0.03-0.04,0.07-0.09,0.13-0.11c0.1-0.01,0.16,0.07,0.22,0.13
		c0.75,0.75,1.51,1.5,2.26,2.26c0.06,0.07,0.16,0.12,0.14,0.24c-0.71,0.77-1.59,1.3-2.58,1.61c-2.18,0.69-4.31,0.56-6.3-0.62
		c-1.57-0.93-2.52-2.33-2.87-4.12C46.87,14.13,46.85,14.08,46.84,14.02z"/>
	<path class="st0" d="M22.3,15.82c-0.61,0.61-1.21,1.22-1.82,1.84c-0.48,0.48-0.95,0.96-1.43,1.44c-0.66,0-1.33,0.01-1.99,0.01
		c-1.3,0-2.6,0-3.9,0c-0.17,0-0.24-0.03-0.23-0.22c0.01-0.75,0.01-1.5,0.01-2.25c0.04-0.11,0.12-0.19,0.2-0.27
		c1.67-1.67,3.34-3.34,5.01-5.01c0.08-0.08,0.17-0.15,0.27-0.21c0.14-0.06,0.29-0.01,0.43-0.01c1.05,0,2.1,0,3.15-0.01
		c0.22,0,0.3,0.04,0.3,0.29c-0.02,0.92-0.01,1.84,0,2.76c0,0.21-0.04,0.27-0.26,0.27c-1.68-0.01-3.36,0-5.04-0.01
		c-0.23,0-0.29,0.07-0.28,0.28c0.02,0.26,0,0.52,0,0.78c0,0.3,0,0.3,0.32,0.3c1.66,0,3.31,0,4.97,0
		C22.1,15.81,22.2,15.82,22.3,15.82z"/>
	<path class="st0" d="M58.64,17.32c-0.74-0.74-1.48-1.49-2.21-2.23c-0.12-0.13-0.24-0.26-0.37-0.38c-0.04-0.14,0.06-0.24,0.11-0.36
		c0.52-1.27,0.49-2.48-0.42-3.57c-0.64-0.77-1.52-1.02-2.5-0.93c-0.48,0.04-0.93,0.21-1.33,0.48c-0.07,0.04-0.13,0.1-0.22,0.06
		c-0.2-0.21-0.4-0.42-0.6-0.64c0.78-0.78,1.56-1.56,2.33-2.35c0.31-0.31,0.61-0.62,0.92-0.93c1.55,0.15,2.93,0.68,4.09,1.73
		c1.14,1.04,1.77,2.35,1.94,3.89c0.17,1.51-0.12,2.92-0.93,4.21C59.22,16.68,58.97,17.03,58.64,17.32z"/>
	<path class="st0" d="M46.16,7.29c-0.9,0.88-1.8,1.76-2.67,2.67c-0.1,0.08-0.23,0.07-0.35,0.07c-0.68,0-1.35,0-2.03,0
		c-0.28,0-0.3,0.03-0.31,0.3c0,0.39,0,0.79,0,1.18c0,0.28,0.02,0.29,0.31,0.3c0.13,0,0.28-0.03,0.39,0.08
		c-0.07,0.08-0.14,0.16-0.21,0.23c-1.19,1.19-2.37,2.37-3.56,3.56c-0.08,0.08-0.18,0.15-0.16,0.28c-0.28-0.03-0.36-0.3-0.56-0.42
		c0,1.09,0,2.18,0,3.28c0,0.1,0.01,0.2-0.07,0.27c-0.07-0.08-0.03-0.17-0.03-0.25c0-3.22,0.01-6.44,0.01-9.66
		c0-0.15,0.04-0.26,0.14-0.36c0.69-0.68,1.37-1.37,2.05-2.06c0.11-0.11,0.23-0.15,0.38-0.15c1.42,0,2.84-0.01,4.26,0.01
		C44.62,6.63,45.43,6.81,46.16,7.29z"/>
	<path class="st0" d="M18.41,11.16c-0.04,0.05-0.08,0.1-0.12,0.15c-1.75,1.75-3.5,3.49-5.25,5.24c-0.03,0.03-0.07,0.06-0.11,0.09
		c0-0.81-0.01-1.62-0.01-2.42c0-1.52,0-3.04,0-4.56c0-0.16,0.04-0.27,0.15-0.38c0.85-0.84,1.69-1.68,2.52-2.52
		c0.1-0.11,0.21-0.15,0.36-0.15c0.74,0.01,1.47,0.01,2.21,0c0.12,0,0.21,0.02,0.3,0.11c1.02,1.03,2.04,2.05,3.07,3.07
		c0.02,0.02,0.04,0.05,0.07,0.08c-0.08,0.08-0.17,0.04-0.25,0.04c-1.45,0-2.89,0.01-4.34,0c-0.23,0-0.32,0.04-0.3,0.29
		c0.02,0.24,0.01,0.48,0,0.73c-0.01,0.17,0.05,0.22,0.22,0.22C17.43,11.14,17.92,11.15,18.41,11.16z"/>
	<path class="st0" d="M8.23,16.45c-0.73-1.07-1.45-2.13-2.18-3.2c-0.89-1.31-1.78-2.62-2.67-3.93C3.35,9.27,3.34,9.23,3.31,9.19
		C3.25,9.04,3.24,8.89,3.24,8.74c0-1.46,0-2.91,0-4.37c0-0.13-0.03-0.28,0.08-0.39C3.74,4.49,4.08,5.06,4.45,5.6
		c1.28,1.88,2.56,3.77,3.84,5.66c0.04,0.05,0.08,0.1,0.12,0.15c0.14,0.1,0.22,0.25,0.32,0.39c0.96,1.41,1.91,2.83,2.88,4.24
		c0.08,0.12,0.2,0.23,0.15,0.41l0,0c-0.06,0.05-0.13,0.05-0.21,0.04c-1.04-0.02-2.08-0.02-3.12,0C8.36,16.49,8.29,16.49,8.23,16.45z
		"/>
	<path class="st0" d="M29.66,9.57c-0.51,0.75-1.01,1.51-1.52,2.26c-0.23,0.35-0.48,0.69-0.71,1.03c-0.75-1.09-1.49-2.19-2.24-3.28
		c-0.61-0.9-1.22-1.8-1.83-2.71c-0.05-0.07-0.09-0.15-0.14-0.22c0.07-0.07,0.15-0.04,0.21-0.04c1.33,0,2.65,0,3.98-0.01
		c0.18,0,0.28,0.06,0.37,0.2C28.4,7.73,29.04,8.65,29.66,9.57z"/>
	<path class="st0" d="M11.76,16.44c-0.02-0.17-0.14-0.29-0.23-0.42c-0.95-1.41-1.91-2.81-2.86-4.22c-0.09-0.13-0.22-0.24-0.26-0.4
		c0.76-1.08,1.52-2.17,2.28-3.25c0.35-0.49,0.69-0.99,1.04-1.49c0.06,0.11,0.04,0.2,0.04,0.28c0,3.01,0,6.02,0,9.03
		C11.77,16.13,11.85,16.29,11.76,16.44z"/>
	<path class="st0" d="M33.21,14.85c0.57,0.77,1.08,1.58,1.6,2.37c0.02,0.13-0.08,0.19-0.16,0.24c-0.85,0.58-1.72,1.13-2.58,1.7
		c-0.09,0.06-0.19,0.13-0.31,0.09c-0.54-0.79-1.07-1.58-1.61-2.37c0.1-0.17,0.28-0.24,0.43-0.34c0.82-0.53,1.64-1.08,2.46-1.62
		C33.09,14.89,33.14,14.85,33.21,14.85z"/>
	<path class="st0" d="M43.87,37.11c-0.43-0.55-0.79-1.16-1.19-1.74c-0.14-0.2-0.27-0.4-0.4-0.61c-0.06-0.17,0.08-0.23,0.17-0.3
		c0.27-0.2,0.57-0.36,0.85-0.55c0.56-0.38,1.12-0.75,1.7-1.11c0.1-0.06,0.19-0.16,0.33-0.07c0.56,0.76,1.09,1.54,1.6,2.33
		c-0.07,0.14-0.22,0.18-0.34,0.26c-0.89,0.58-1.78,1.15-2.65,1.76C43.92,37.11,43.9,37.11,43.87,37.11z"/>
	<path class="st0" d="M3.32,3.98c0,1.62,0,3.23,0,4.85c0,0.12,0,0.24-0.01,0.36C2.79,8.43,2.27,7.67,1.75,6.92
		C1.7,6.84,1.64,6.76,1.58,6.69c0-1.73,0-3.45,0-5.18C1.59,1.5,1.61,1.49,1.62,1.48C2.19,2.32,2.76,3.15,3.32,3.98z"/>
	<path class="st0" d="M31.76,19.25c0.82-0.45,1.57-1,2.35-1.5c0.25-0.16,0.52-0.28,0.71-0.53c0.41,0.5,0.73,1.06,1.1,1.59
		c0.12,0.18,0.23,0.36,0.35,0.54c0.07,0.13,0,0.22-0.1,0.28c-0.36,0.25-0.72,0.49-1.08,0.72c-0.07,0.04-0.14,0.08-0.22,0.01
		c-0.87,0-1.75,0-2.62,0c-2.19,0-4.38,0-6.57,0c-0.1,0-0.21,0.01-0.31,0.01c0.07-0.11,0.18-0.06,0.26-0.06c2.18,0,4.36,0,6.54,0
		c0.09,0,0.18,0,0.31,0C32.22,19.95,31.99,19.6,31.76,19.25z"/>
	<path class="st0" d="M43.87,37.11c0.19-0.27,0.49-0.39,0.74-0.56c0.67-0.45,1.35-0.88,2.02-1.31c0.09-0.06,0.19-0.11,0.29-0.17
		c0.26,0.33,0.45,0.71,0.73,1.02c-0.69,1.02-1.39,2.05-2.08,3.07c-0.05,0.08-0.1,0.16-0.15,0.25c-0.42-0.61-0.84-1.21-1.26-1.82
		C44.07,37.44,43.97,37.28,43.87,37.11z"/>
	<path class="st0" d="M36.95,19.1c0-1.22,0-2.45,0-3.72c0.23,0.22,0.43,0.41,0.63,0.59c0.77,0.78,1.54,1.55,2.32,2.33
		c0.27,0.27,0.53,0.54,0.8,0.81C39.44,19.12,38.19,19.13,36.95,19.1z"/>
	<path class="st0" d="M33.21,14.85c-0.34,0.34-0.78,0.54-1.16,0.8c-0.62,0.43-1.25,0.85-1.9,1.24c-0.16-0.23-0.32-0.46-0.48-0.69
		c0.54-0.81,1.09-1.62,1.63-2.42c0.2-0.29,0.4-0.58,0.61-0.87C32.36,13.54,32.78,14.19,33.21,14.85z"/>
	<path class="st0" d="M43.2,29.54c-0.97,0-1.94,0-2.91,0.01c-0.21,0-0.24-0.07-0.24-0.25c0-2.97,0-5.95,0-8.92
		c0.01-0.02,0.03-0.02,0.04,0c0,1.55,0.01,3.1,0.01,4.65c0.05,0.12,0.07,0.24,0.06,0.37c0,0.74,0,1.48,0,2.22
		c0,0.08-0.04,0.2,0.05,0.24c0.09,0.04,0.16-0.05,0.23-0.1c0.26-0.18,0.53-0.34,0.79-0.51c0.11-0.07,0.22-0.14,0.36-0.04
		C42.13,27.99,42.67,28.76,43.2,29.54z"/>
	<path class="st0" d="M8.23,16.45c0.36-0.08,0.72-0.04,1.08-0.05c0.59-0.01,1.17,0,1.76,0c0.23,0,0.46-0.01,0.69,0.05
		c-0.52,0.76-1.05,1.52-1.57,2.28c-0.07,0.1-0.14,0.2-0.21,0.29C9.39,18.16,8.81,17.3,8.23,16.45z"/>
	<path class="st0" d="M45.33,32.74c-0.31,0.04-0.52,0.27-0.77,0.43c-0.7,0.44-1.38,0.9-2.07,1.36c-0.09,0.06-0.19,0.12-0.21,0.25
		c-0.39-0.57-0.78-1.14-1.17-1.71c-0.09-0.14-0.19-0.19-0.35-0.19c-1.41,0.01-2.82,0-4.23,0c-0.08,0-0.18,0.04-0.25-0.05
		c1.87,0,3.73,0,5.6,0.01c0.89,0,1.78,0.02,2.66,0.04c0.22,0.01,0.28-0.07,0.26-0.27c-0.02-0.22,0-0.44,0-0.65
		C45.01,32.2,45.19,32.46,45.33,32.74z"/>
	<path class="st0" d="M40.1,20.38l-0.02,0c0,0-0.02,0-0.02,0c-1.2,0-2.41-0.01-3.61-0.01c-0.14,0-0.18,0.05-0.18,0.19
		c0.01,0.2,0,0.4-0.01,0.6c-0.38,0.28-0.78,0.51-1.17,0.77c-0.07,0.04-0.14,0.09-0.23,0.06c0-0.53,0-1.07-0.01-1.6
		c0.09,0.01,0.15-0.04,0.22-0.08c0.34-0.23,0.69-0.46,1.04-0.69c0.09-0.06,0.16-0.13,0.15-0.25c0.19,0.27,0.39,0.53,0.57,0.81
		c0.08,0.13,0.18,0.16,0.32,0.16c0.9,0,1.79,0,2.69,0C39.93,20.33,40.03,20.29,40.1,20.38z"/>
	<path class="st0" d="M34.87,21.97c0.37-0.23,0.73-0.46,1.1-0.69c0.09-0.06,0.17-0.15,0.3-0.14c0,0.53,0,1.07,0,1.6
		c-0.1-0.01-0.19,0.04-0.27,0.1c-0.29,0.19-0.58,0.38-0.86,0.58c-0.08,0.06-0.16,0.11-0.27,0.1C34.87,23.01,34.87,22.49,34.87,21.97
		z"/>
	<path class="st0" d="M41.6,27.21c-0.3-0.02-0.47,0.23-0.7,0.34c-0.21,0.1-0.39,0.25-0.58,0.38c-0.05,0.04-0.11,0.09-0.17,0.07
		c-0.08-0.03-0.04-0.11-0.04-0.17c0-0.81,0-1.61,0-2.42c0.1-0.08,0.19-0.06,0.29,0C40.79,26.02,41.2,26.61,41.6,27.21z"/>
	<path class="st0" d="M9.48,27.65c-0.33-0.48-0.65-0.97-0.98-1.45c0.27-0.23,0.59-0.39,0.89-0.59c0.33,0.48,0.66,0.97,0.99,1.45
		C10.14,27.35,9.83,27.53,9.48,27.65z"/>
	<path class="st0" d="M9.39,25.61c-0.24,0.28-0.56,0.44-0.89,0.59c-0.27-0.39-0.53-0.78-0.8-1.17c0.34-0.12,0.6-0.39,0.93-0.54
		C8.88,24.86,9.13,25.23,9.39,25.61z"/>
	<path class="st0" d="M9.48,27.65c0.3-0.2,0.6-0.39,0.9-0.59c0.27,0.36,0.52,0.74,0.76,1.12c-0.26,0.25-0.58,0.41-0.89,0.59
		C9.99,28.39,9.73,28.02,9.48,27.65z"/>
	<path class="st0" d="M40.39,25.42c-0.1,0-0.19,0-0.29,0c0-0.13,0-0.26,0-0.39C40.23,25.13,40.29,25.29,40.39,25.42z"/>
	<path class="st0" d="M80.56,36.81c0.11-0.27,0.2-0.48,0.29-0.69c0.14-0.34,0.14-0.34,0.54-0.3c-0.12,0.28-0.22,0.56-0.36,0.82
		c-0.23,0.43-0.32,0.87-0.28,1.35c0.02,0.15,0,0.25-0.21,0.25c-0.21,0-0.23-0.11-0.2-0.26c0.11-0.76-0.31-1.36-0.59-2.08
		c-0.01,0.3-0.18,0.25-0.31,0.23c-0.23-0.03-0.3,0.04-0.3,0.28c0.02,0.54,0,1.08,0.01,1.62c0,0.15-0.04,0.19-0.19,0.19
		c-0.15,0-0.21-0.03-0.21-0.2c0.01-0.56,0-1.12,0.01-1.67c0-0.18-0.05-0.25-0.23-0.23c-0.06,0.01-0.13,0-0.19,0
		c-0.13,0.01-0.17-0.04-0.17-0.16c0-0.11,0.01-0.18,0.15-0.18c0.57,0.01,1.13,0.01,1.7,0c0.11,0,0.15,0.05,0.19,0.14
		C80.32,36.21,80.43,36.48,80.56,36.81z"/>
	<path class="st0" d="M65.65,36.57c0,0.47,0,0.94,0,1.42c0,0.16-0.01,0.25-0.21,0.25c-0.21,0-0.19-0.11-0.19-0.25
		c0-0.65,0-1.31,0-1.96c0-0.08-0.06-0.23,0.09-0.22c0.16,0.01,0.36-0.12,0.46,0.13c0.19,0.49,0.38,0.98,0.57,1.47
		c0.01,0.03,0.03,0.06,0.07,0.15c0-0.56,0-1.04,0-1.52c0-0.13-0.02-0.25,0.19-0.24c0.19,0,0.2,0.09,0.2,0.24
		c0,0.65,0,1.31-0.01,1.96c0,0.09,0.07,0.24-0.11,0.23c-0.16-0.01-0.35,0.11-0.44-0.16c-0.17-0.48-0.36-0.95-0.54-1.42
		c-0.01-0.03-0.02-0.05-0.03-0.08C65.68,36.56,65.67,36.56,65.65,36.57z"/>
	<path class="st0" d="M88.47,37.47c0-0.48,0-0.97,0-1.45c0-0.15,0.01-0.24,0.2-0.23c0.18,0,0.19,0.09,0.19,0.22
		c0,0.66,0,1.32,0,1.99c0,0.08,0.06,0.23-0.1,0.22c-0.15-0.01-0.36,0.12-0.45-0.14c-0.18-0.51-0.38-1.01-0.62-1.51
		c0,0.11,0,0.22,0,0.34c0,0.37-0.01,0.74,0,1.11c0,0.15-0.03,0.21-0.2,0.21c-0.16,0-0.21-0.05-0.21-0.21c0.01-0.66,0-1.32,0.01-1.99
		c0-0.09-0.07-0.25,0.11-0.24c0.16,0.01,0.36-0.11,0.45,0.14c0.17,0.47,0.36,0.93,0.54,1.4c0.02,0.05,0.04,0.1,0.06,0.15
		C88.45,37.48,88.46,37.48,88.47,37.47z"/>
	<path class="st0" d="M51.7,37.44c0-0.48,0.01-0.97,0-1.45c0-0.16,0.05-0.2,0.21-0.2c0.16,0,0.18,0.07,0.18,0.2
		c-0.01,0.67,0,1.34-0.01,2.01c0,0.08,0.06,0.23-0.1,0.22c-0.15-0.01-0.35,0.11-0.44-0.13c-0.16-0.43-0.32-0.86-0.49-1.29
		c-0.03-0.08-0.04-0.19-0.15-0.27c0,0.51,0,0.99,0,1.47c0,0.13,0.01,0.23-0.18,0.23c-0.19,0-0.2-0.09-0.2-0.24
		c0.01-0.65,0-1.31,0.01-1.96c0-0.08-0.07-0.24,0.11-0.23c0.15,0.01,0.34-0.11,0.43,0.14c0.17,0.47,0.36,0.93,0.54,1.4
		c0.02,0.04,0.04,0.08,0.06,0.12C51.67,37.45,51.69,37.45,51.7,37.44z"/>
	<path class="st0" d="M58.69,37.44c0-0.48,0.01-0.97,0-1.45c0-0.17,0.06-0.2,0.21-0.2c0.17,0,0.18,0.07,0.18,0.2
		c0,0.67,0,1.34-0.01,2.01c0,0.08,0.06,0.23-0.1,0.22c-0.15-0.01-0.35,0.11-0.44-0.13c-0.16-0.45-0.34-0.89-0.51-1.33
		c-0.03-0.07-0.03-0.16-0.13-0.22c0,0.5,0,0.98,0,1.46c0,0.15-0.02,0.23-0.21,0.23c-0.2,0-0.18-0.11-0.18-0.23c0-0.65,0-1.31,0-1.96
		c0-0.08-0.08-0.24,0.1-0.24c0.15,0.01,0.35-0.11,0.44,0.16c0.16,0.46,0.35,0.9,0.52,1.35c0.02,0.05,0.04,0.1,0.06,0.15
		C58.66,37.45,58.67,37.45,58.69,37.44z"/>
	<path class="st0" d="M72.47,36.93c0.33,0.2,0.43,0.45,0.34,0.81c-0.08,0.31-0.31,0.48-0.67,0.48c-0.23,0.01-0.45,0-0.68,0
		c-0.13,0-0.17-0.04-0.17-0.17c0-0.7,0-1.4,0-2.1c0-0.13,0.05-0.17,0.17-0.16c0.21,0.01,0.42,0,0.63,0c0.33,0,0.54,0.12,0.62,0.36
		C72.82,36.46,72.74,36.72,72.47,36.93z"/>
	<path class="st0" d="M56.87,37.02c0.46,0.31,0.16,0.81,0.35,1.18c-0.09,0.05-0.17,0.02-0.25,0.03c-0.15,0.02-0.21-0.06-0.22-0.19
		c-0.01-0.18,0-0.36-0.02-0.53c-0.02-0.26-0.36-0.43-0.58-0.31c-0.07,0.04-0.06,0.11-0.06,0.17c0,0.23-0.01,0.47,0,0.7
		c0.01,0.19-0.11,0.15-0.22,0.16c-0.12,0.01-0.2-0.01-0.19-0.17c0.01-0.7,0.01-1.41,0-2.11c0-0.13,0.05-0.16,0.17-0.16
		c0.2,0.01,0.4,0,0.61,0c0.39,0,0.58,0.1,0.67,0.36C57.24,36.47,57.15,36.78,56.87,37.02z"/>
	<path class="st0" d="M77.99,36.81c0,0.26,0,0.52,0,0.78c-0.01,0.42-0.23,0.67-0.62,0.69c-0.55,0.03-0.84-0.15-0.86-0.61
		c-0.03-0.58-0.01-1.16-0.01-1.74c0-0.18,0.14-0.11,0.23-0.12c0.12-0.02,0.19,0.02,0.19,0.17c-0.01,0.49,0,0.99,0,1.48
		c0,0.39,0.09,0.53,0.33,0.54c0.25,0.01,0.36-0.15,0.36-0.54c0-0.48,0.01-0.97,0-1.45c0-0.18,0.08-0.18,0.22-0.19
		c0.16-0.01,0.19,0.06,0.18,0.2C77.99,36.26,77.99,36.53,77.99,36.81z"/>
	<path class="st0" d="M68.6,38.22c-0.17,0.05-0.22-0.06-0.25-0.2c-0.03-0.13-0.01-0.33-0.13-0.36c-0.19-0.05-0.41-0.05-0.6-0.01
		c-0.15,0.03-0.1,0.23-0.15,0.35c-0.04,0.08,0,0.2-0.14,0.22c-0.28,0.05-0.34,0-0.26-0.28c0.19-0.66,0.38-1.31,0.55-1.97
		c0.07-0.25,0.24-0.16,0.39-0.19c0.17-0.03,0.2,0.08,0.23,0.2c0.17,0.67,0.35,1.34,0.53,2.01C68.81,38.17,68.81,38.27,68.6,38.22z"
		/>
	<path class="st0" d="M60.17,35.8c0.2-0.05,0.27,0.04,0.32,0.24c0.16,0.67,0.35,1.32,0.52,1.99c0.01,0.06,0.12,0.18-0.02,0.19
		c-0.12,0.01-0.3,0.11-0.37-0.1c0-0.01,0-0.02-0.01-0.02c-0.14-0.46-0.14-0.45-0.62-0.45c-0.15,0-0.22,0.04-0.25,0.19
		c-0.01,0.1-0.04,0.19-0.07,0.28c-0.06,0.21-0.24,0.13-0.36,0.12c-0.15-0.02-0.04-0.14-0.03-0.21c0.18-0.66,0.38-1.32,0.55-1.98
		C59.89,35.84,59.97,35.75,60.17,35.8z"/>
	<path class="st0" d="M75.48,35.8c0.19-0.05,0.27,0.04,0.32,0.22c0.16,0.66,0.34,1.32,0.51,1.98c0.02,0.07,0.1,0.19-0.03,0.21
		c-0.12,0.02-0.3,0.1-0.36-0.12c-0.04-0.15-0.04-0.37-0.13-0.42c-0.14-0.08-0.34-0.03-0.52-0.04c-0.11-0.01-0.18,0.02-0.2,0.15
		c-0.01,0.09-0.05,0.19-0.08,0.28c-0.04,0.14-0.28,0.23-0.4,0.15c-0.06-0.04-0.03-0.08-0.02-0.13c0.21-0.73,0.41-1.45,0.62-2.18
		C75.24,35.73,75.38,35.82,75.48,35.8z"/>
	<path class="st0" d="M82.38,36.99c0-0.33,0.01-0.66,0-0.99c-0.01-0.17,0.06-0.22,0.22-0.21c0.31,0.01,0.63,0.01,0.94,0
		c0.14,0,0.18,0.05,0.18,0.18c0,0.13-0.05,0.17-0.17,0.16c-0.2-0.01-0.4,0-0.61,0c-0.12,0-0.15,0.04-0.15,0.15
		c-0.03,0.52-0.03,0.52,0.49,0.52c0.07,0,0.15,0.01,0.22,0c0.12-0.01,0.17,0.04,0.17,0.16c0,0.13-0.05,0.17-0.17,0.17
		c-0.15-0.01-0.31,0-0.46,0c-0.05,0-0.11-0.02-0.14,0.01c-0.22,0.16-0.05,0.4-0.1,0.59c-0.03,0.11,0.03,0.16,0.15,0.15
		c0.19-0.01,0.39,0,0.58,0c0.13,0,0.21,0.01,0.21,0.18c0,0.15-0.07,0.17-0.19,0.17c-0.32-0.01-0.65-0.01-0.97,0
		c-0.15,0-0.2-0.04-0.19-0.19C82.38,37.69,82.38,37.34,82.38,36.99z"/>
	<path class="st0" d="M54.04,36.99c0-0.33,0.01-0.66,0-0.99c0-0.15,0.02-0.22,0.2-0.21c0.32,0.01,0.65,0.01,0.97,0
		c0.14,0,0.18,0.05,0.18,0.18c0,0.13-0.05,0.17-0.17,0.16c-0.19-0.01-0.39,0.01-0.58,0c-0.14-0.01-0.17,0.05-0.18,0.18
		c-0.01,0.49-0.02,0.49,0.47,0.49c0.08,0,0.16,0.01,0.24,0c0.13-0.01,0.17,0.04,0.17,0.17c0,0.13-0.05,0.17-0.17,0.17
		c-0.15,0-0.31,0-0.46,0c-0.05,0-0.11-0.02-0.14,0.01c-0.21,0.16-0.05,0.4-0.1,0.59c-0.03,0.11,0.04,0.16,0.15,0.15
		c0.2-0.01,0.4,0.01,0.61,0c0.14-0.01,0.18,0.04,0.18,0.18c0,0.13-0.04,0.17-0.17,0.17c-0.34-0.01-0.68-0.01-1.02,0
		c-0.13,0-0.18-0.04-0.17-0.17c0-0.01,0-0.02,0-0.02C54.04,37.69,54.04,37.34,54.04,36.99z"/>
	<path class="st0" d="M84.65,37.61c0.08-0.33,0.16-0.67,0.23-1c0.05-0.22,0.11-0.44,0.15-0.66c0.04-0.26,0.24-0.16,0.36-0.15
		c0.17,0.01,0.06,0.15,0.04,0.22c-0.16,0.67-0.34,1.34-0.49,2.01c-0.05,0.21-0.18,0.18-0.32,0.19c-0.14,0.01-0.25,0-0.29-0.19
		C84.17,37.36,84,36.68,83.85,36c-0.02-0.07-0.1-0.2,0.06-0.2c0.12,0,0.3-0.1,0.35,0.13c0.09,0.46,0.19,0.91,0.29,1.37
		c0.02,0.1,0.04,0.2,0.07,0.3C84.62,37.6,84.64,37.6,84.65,37.61z"/>
	<path class="st0" d="M73.13,37.01c0-0.35,0.01-0.69,0-1.04c0-0.13,0.04-0.18,0.18-0.18c0.33,0.01,0.66,0.01,0.99,0
		c0.14,0,0.15,0.07,0.15,0.18c0,0.12-0.03,0.18-0.16,0.17c-0.18-0.01-0.36,0.01-0.53-0.01c-0.2-0.02-0.24,0.06-0.23,0.24
		c0.01,0.43,0,0.43,0.43,0.43c0.09,0,0.18,0.01,0.27,0c0.14-0.01,0.18,0.04,0.18,0.18c0,0.14-0.06,0.16-0.18,0.16
		c-0.15-0.01-0.31,0-0.46,0c-0.05,0-0.11-0.02-0.14,0.01c-0.21,0.16-0.05,0.4-0.1,0.59c-0.03,0.11,0.03,0.16,0.15,0.15
		c0.22-0.01,0.44,0,0.65,0c0.13-0.01,0.16,0.05,0.16,0.17c0,0.12-0.03,0.17-0.16,0.17c-0.35-0.01-0.69-0.01-1.04,0
		c-0.13,0-0.16-0.06-0.16-0.17C73.14,37.71,73.13,37.36,73.13,37.01z"/>
	<path class="st0" d="M85.66,36.98c0-0.33,0.01-0.66,0-0.99c0-0.14,0.02-0.2,0.18-0.2c0.32,0.01,0.65,0.01,0.97,0
		c0.15,0,0.17,0.06,0.17,0.19c0,0.13-0.05,0.16-0.17,0.16c-0.2-0.01-0.4,0-0.61,0c-0.1,0-0.16,0.02-0.15,0.13c0,0.02,0,0.03,0,0.05
		c-0.02,0.49-0.02,0.49,0.47,0.49c0.08,0,0.16,0.01,0.24,0c0.11-0.01,0.16,0.03,0.15,0.15c0,0.11-0.01,0.19-0.15,0.18
		c-0.19-0.01-0.37,0-0.56,0c-0.06,0-0.15-0.01-0.15,0.08c-0.01,0.2-0.01,0.4,0,0.6c0.01,0.09,0.1,0.07,0.16,0.07
		c0.21,0,0.42,0.01,0.63,0c0.13-0.01,0.16,0.05,0.16,0.17c0,0.12-0.03,0.17-0.16,0.17c-0.34-0.01-0.68-0.01-1.02,0
		c-0.14,0-0.18-0.05-0.18-0.18C85.67,37.69,85.66,37.34,85.66,36.98z"/>
	<path class="st0" d="M52.87,37.18c0-0.28-0.01-0.56,0-0.85c0.01-0.16-0.05-0.22-0.21-0.2c-0.07,0.01-0.15,0-0.22,0
		c-0.13,0.01-0.17-0.04-0.17-0.17c0-0.11,0.02-0.18,0.16-0.18c0.42,0.01,0.84,0.01,1.26,0c0.15,0,0.14,0.08,0.14,0.19
		c0,0.11-0.03,0.15-0.15,0.16c-0.41,0.02-0.41,0.03-0.41,0.45c0,0.44,0,0.89,0,1.33c0,0.14,0.07,0.32-0.21,0.32
		c-0.3,0-0.19-0.2-0.2-0.33C52.86,37.66,52.87,37.42,52.87,37.18z"/>
	<path class="st0" d="M68.93,36.98c0-0.34,0.01-0.68,0-1.02c-0.01-0.18,0.09-0.17,0.21-0.17c0.12,0,0.21,0,0.21,0.17
		c-0.01,0.57,0,1.13-0.01,1.7c0,0.18,0.05,0.24,0.23,0.23c0.18-0.01,0.37,0,0.56,0c0.12,0,0.15,0.05,0.15,0.16
		c0,0.11-0.01,0.19-0.15,0.18c-0.35-0.01-0.7-0.01-1.04,0c-0.14,0-0.16-0.07-0.15-0.18C68.93,37.69,68.93,37.34,68.93,36.98z"/>
	<path class="st0" d="M61.44,37.17c0-0.27-0.01-0.53,0-0.8c0.01-0.18-0.03-0.28-0.23-0.24c-0.06,0.01-0.13,0-0.19,0
		c-0.14,0.02-0.15-0.06-0.15-0.17c0-0.12,0.03-0.17,0.16-0.17c0.41,0.01,0.82,0.01,1.23,0c0.14,0,0.15,0.06,0.16,0.18
		c0,0.12-0.03,0.17-0.16,0.17c-0.42,0.01-0.42,0.02-0.42,0.44c0,0.49-0.01,0.98,0,1.47c0,0.17-0.07,0.18-0.2,0.18
		c-0.14,0-0.21-0.03-0.2-0.19C61.45,37.75,61.44,37.46,61.44,37.17z"/>
	<path class="st0" d="M89.64,37.16c0-0.28-0.01-0.57,0-0.85c0.01-0.15-0.05-0.2-0.19-0.19c-0.08,0.01-0.16-0.01-0.24,0
		c-0.14,0.02-0.15-0.07-0.15-0.18c0-0.12,0.03-0.17,0.16-0.17c0.41,0.01,0.82,0.01,1.24,0c0.14,0,0.16,0.06,0.16,0.17
		c0,0.12-0.02,0.17-0.16,0.17c-0.42,0.01-0.42,0.02-0.42,0.44c0,0.48-0.01,0.97,0,1.45c0,0.17-0.06,0.2-0.21,0.2
		c-0.15,0-0.2-0.04-0.19-0.19C89.65,37.75,89.64,37.46,89.64,37.16z"/>
	<path class="st0" d="M62.61,36.98c0-0.34,0.01-0.68,0-1.01c-0.01-0.17,0.08-0.17,0.2-0.18c0.14,0,0.2,0.02,0.2,0.18
		C63,36.66,63,37.36,63,38.05c0,0.17-0.07,0.18-0.2,0.18c-0.14,0-0.2-0.03-0.2-0.18C62.61,37.69,62.61,37.34,62.61,36.98z"/>
	<path class="st0" d="M50.15,35.97c0.01-0.16-0.06-0.18-0.2-0.18c-0.13,0-0.21,0.01-0.2,0.18c0.01,0.69,0.01,1.39,0,2.08
		c0,0.16,0.06,0.18,0.2,0.18c0.13,0,0.21-0.01,0.2-0.18c-0.01-0.35,0-0.69,0-1.04S50.13,36.32,50.15,35.97z"/>
	<path class="st0" d="M24.29,28.32c-0.33-1-1.03-1.64-2.1-1.91c0.13-0.05,0.22-0.08,0.31-0.11c0.42-0.16,0.78-0.4,1.06-0.74
		c1.23-1.52,0.75-3.83-0.99-4.73c-0.67-0.35-1.39-0.46-2.13-0.46c-2.41,0-4.82,0-7.23,0c-0.23,0-0.29,0.06-0.29,0.29
		c0.01,3.27,0.01,6.54,0.01,9.82c0,0.08,0,0.17,0,0.32c-0.1-0.14-0.16-0.23-0.22-0.31c-0.53-0.76-1.05-1.53-1.58-2.29
		c-0.32,0.17-0.63,0.33-0.89,0.59c0.56,0.84,1.13,1.67,1.69,2.51c0.33,0.5,0.72,0.97,0.99,1.52c0.04,0.09,0.1,0.06,0.16,0.06
		c2.53,0,5.06,0,7.59,0c0.31,0,0.63-0.01,0.94-0.06C24.07,32.39,24.9,30.14,24.29,28.32z M16.71,23.71c0-0.15,0.04-0.2,0.19-0.19
		c0.47,0.01,0.94,0,1.41,0c0.44,0,0.87,0,1.31,0c0.45,0,0.76,0.29,0.77,0.7c0.01,0.41-0.32,0.73-0.77,0.73
		c-0.89,0-1.78-0.01-2.67,0.01c-0.2,0-0.25-0.06-0.24-0.25C16.73,24.37,16.72,24.04,16.71,23.71z M19.79,29.69
		c-0.48,0-0.95,0-1.43,0c-0.48,0-0.97,0-1.45,0c-0.15,0-0.2-0.05-0.19-0.19c0.01-0.4,0.01-0.79,0-1.19c0-0.15,0.05-0.19,0.2-0.19
		c0.96,0.01,1.92,0,2.89,0c0.49,0,0.84,0.34,0.84,0.79C20.64,29.37,20.3,29.68,19.79,29.69z"/>
	<path class="st0" d="M93.42,32.65c-2.75-4.05-5.5-8.1-8.25-12.15c-0.09-0.14-0.19-0.18-0.35-0.18c-1.32,0.01-2.64,0-3.95,0
		c-0.08,0-0.16-0.02-0.25,0.04c0.05,0.07,0.09,0.15,0.14,0.22c0.28,0.41,0.55,0.82,0.83,1.22c0.07,0.1,0.09,0.19,0.04,0.31
		c-0.38,1.02-0.76,2.04-1.14,3.06c-0.92,2.49-1.84,4.98-2.76,7.47c-0.05,0.13-0.09,0.22,0.12,0.22c1.31-0.01,2.62-0.01,3.93,0
		c0.14,0,0.2-0.05,0.24-0.18c0.11-0.36,0.23-0.72,0.33-1.09c0.04-0.15,0.1-0.21,0.26-0.2c1.76,0.01,3.53,0.01,5.29,0.01
		c0.14,0,0.22,0.04,0.3,0.16c0.23,0.36,0.49,0.71,0.71,1.07c0.11,0.17,0.22,0.24,0.43,0.23c1.3-0.01,2.6-0.01,3.91-0.01
		c0.08,0,0.16,0,0.25,0C93.5,32.75,93.45,32.7,93.42,32.65z M83.43,28.07c0.25-0.8,0.49-1.59,0.75-2.43
		c0.56,0.82,1.09,1.61,1.65,2.43C85.01,28.07,84.23,28.07,83.43,28.07z"/>
	<path class="st0" d="M71.69,37.51c0-0.02,0-0.03,0-0.05c0.03-0.15-0.12-0.39,0.23-0.37c0.35,0.02,0.5,0.11,0.51,0.4
		c0.01,0.29-0.11,0.43-0.39,0.43C71.61,37.92,71.7,37.98,71.69,37.51z"/>
	<path class="st0" d="M71.91,36.81c-0.2,0.05-0.24-0.06-0.22-0.25c0-0.03-0.01-0.07,0-0.1c0.04-0.14-0.13-0.4,0.22-0.38
		c0.3,0.02,0.44,0.11,0.45,0.35C72.36,36.68,72.21,36.81,71.91,36.81z"/>
	<path class="st0" d="M56.08,36.47c0.07-0.13-0.14-0.4,0.22-0.39c0.33,0.01,0.46,0.11,0.45,0.39c0,0.28-0.12,0.37-0.43,0.39
		C55.96,36.9,56.14,36.63,56.08,36.47z"/>
	<path class="st0" d="M64.83,36.25c-0.11-0.32-0.34-0.49-0.66-0.5c-0.37-0.01-0.62,0.13-0.73,0.46c-0.18,0.54-0.19,1.09,0.01,1.63
		c0.11,0.3,0.34,0.43,0.66,0.43c0.32,0,0.57-0.11,0.7-0.41c0.11-0.26,0.13-0.53,0.14-0.8C64.93,36.79,64.92,36.51,64.83,36.25z
		 M64.45,37.68c-0.05,0.16-0.14,0.29-0.34,0.29c-0.19,0-0.28-0.12-0.32-0.28c-0.11-0.45-0.11-0.91,0-1.37
		c0.04-0.16,0.15-0.28,0.32-0.28c0.19,0,0.29,0.11,0.34,0.29c0.07,0.23,0.06,0.46,0.07,0.7C64.51,37.25,64.52,37.47,64.45,37.68z"/>
	<path class="st0" d="M67.94,36.25c0.07,0.3,0.14,0.61,0.21,0.91c0.03,0.12-0.01,0.16-0.13,0.15c-0.09-0.01-0.18,0-0.27,0
		c-0.06,0-0.12-0.02-0.1-0.1c0.07-0.32,0.15-0.65,0.23-0.97C67.91,36.25,67.92,36.25,67.94,36.25z"/>
	<path class="st0" d="M60.18,36.23c0.07,0.3,0.13,0.61,0.21,0.91c0.04,0.15-0.01,0.17-0.14,0.18c-0.38,0.01-0.38,0.01-0.29-0.35
		c0.06-0.25,0.12-0.49,0.19-0.74C60.16,36.23,60.17,36.23,60.18,36.23z"/>
	<path class="st0" d="M75.49,36.26c0.07,0.3,0.14,0.6,0.22,0.9c0.03,0.11-0.01,0.17-0.13,0.16c-0.06,0-0.11,0-0.17,0
		c-0.19,0.01-0.23-0.06-0.18-0.24c0.08-0.27,0.14-0.55,0.21-0.83C75.46,36.26,75.47,36.26,75.49,36.26z"/>
</g>
</svg>
