<?xml version="1.0" encoding="utf-8"?>
<!-- Generator: Adobe Illustrator 24.3.0, SVG Export Plug-In . SVG Version: 6.00 Build 0)  -->
<svg version="1.1" id="Capa_1" xmlns="http://www.w3.org/2000/svg" xmlns:xlink="http://www.w3.org/1999/xlink" x="0px" y="0px"
	 viewBox="0 0 111.67 88.89" style="enable-background:new 0 0 111.67 88.89;" xml:space="preserve">
<style type="text/css">
	.st0{fill:#FFFFFF;}
</style>
<g>
	<path class="st0" d="M14.53,70.43c2.09-2.42,4.11-4.91,6.59-6.97c0.45-0.38,0.92-0.76,1.4-1.09c0.83-0.57,1.59-0.39,2.08,0.44
		c0.13,0.21,0.25,0.42-0.03,0.6c-2.09,1.4-2.81,3.75-3.9,5.81c-1.27,2.4-2.36,4.91-2.91,7.6c-0.23,1.13-0.43,2.26,0.31,3.32
		c0.25,0.35,0.5,0.59,0.95,0.52c0.41,0.46,1.11,0,1.51,0.49c-2.38,0.68-4.16-0.57-4.19-3.02c-0.04-3.29,1.18-6.26,2.49-9.2
		c0.42-0.93,0.89-1.84,1.48-3.05c-0.51,0.33-0.82,0.46-1.05,0.68c-3.44,3.36-6.5,7.03-8.82,11.26c-0.28,0.51-1.41,1.05-0.36,1.98
		c0.19,0.17-0.57,0.64-1.02,0.79C8.54,80.76,8.21,80.51,8.1,80c-0.08-0.39,0.02-0.77,0.14-1.16c0.98-3.19,2.61-6.1,3.99-9.12
		c0.94-2.05,1.97-4.06,2.64-6.22c0.23-0.72,0.67-1.58-0.07-2.22c-0.73-0.64-1.59-0.27-2.36,0.05c-2.01,0.85-3.58,2.3-5.07,3.85
		c-1.87,1.95-3.53,4.06-4.83,6.44c-0.35,0.64-0.46,1.14,0.63,1.37c-0.65,0.36-1.11,0.83-1.74,0.48c-0.66-0.38-0.67-1.07-0.52-1.69
		c0.14-0.61,0.35-1.24,0.68-1.76c2.55-4.08,5.87-7.33,10.35-9.26c0.11-0.05,0.21-0.12,0.33-0.14c1.12-0.21,2.32-0.6,3.3,0.26
		c1,0.88,0.97,2.1,0.7,3.31c-0.47,2.1-1.44,4.01-2.31,5.96c-0.12,0.35-0.02,0.77-0.32,1.08C13.95,70.95,14.3,70.76,14.53,70.43z"/>
	<path class="st0" d="M74.49,6.66c2.5,1.17,4.58,2.93,6.56,4.79c5.23,4.89,8.58,10.9,10.17,17.84c0.98,4.27,1,8.64,0.38,12.98
		c-0.43,3.03-1.37,5.92-2.59,8.72c-0.11,0.25-0.19,0.54-0.37,0.73c-0.35,0.39-0.95,0.46-1.31,0.28c-0.57-0.29,0.03-0.66,0.16-0.97
		c2.59-6.22,3.4-12.62,2.18-19.28c-1.45-7.93-5.29-14.47-11.39-19.69c-1.02-0.87-2.11-1.66-3.16-2.48c0.08-0.53-0.33-0.66-0.67-0.83
		c-0.32-0.16-0.65-0.29-0.93-0.5c-0.25-0.19-0.52-0.4-0.47-0.76C73.09,7.13,73.4,7,73.72,6.94C73.99,6.89,74.25,6.81,74.49,6.66z"/>
	<path class="st0" d="M64.01,23.84c-2.18,1.39-4.55,2.12-7.14,2.2c-0.79,0.03-1.09-0.24-1.01-1.01c0.38-3.62,3.68-7.08,7.18-7.47
		c1.57-0.17,3.12-0.52,4.72-0.42c0.88-0.2,1.84,0.03,2.68-0.45c0.06-0.07,0.13-0.09,0.21-0.06c0.4,0.75-0.17,1.24-0.6,1.6
		C67.95,20.01,66.18,22.14,64.01,23.84z"/>
	<path class="st0" d="M74.49,6.66c0.19,0.46-0.06,0.53-0.44,0.52c-0.3-0.01-0.73-0.08-0.81,0.29c-0.08,0.41,0.35,0.56,0.66,0.71
		c0.42,0.2,0.89,0.33,1.28,0.58c0.36,0.24,0.81,0.62-0.06,0.83c-2.55-1.36-5.07-2.78-7.84-3.7C61.95,4.11,56.55,3.8,51.04,4.64
		C49.34,4.9,47.65,5.28,46,5.78c-0.73,0.04-0.81-0.44-0.71-0.97c0.11-0.56,0.32-1.11,0.87-1.43c3.55-1.24,7.22-1.53,10.95-1.56
		c6.11-0.04,11.71,1.69,17.04,4.51C74.29,6.41,74.38,6.55,74.49,6.66z"/>
	<path class="st0" d="M63.53,29.5c3.08,0.38,5.18,2.34,7.19,4.44c0.65,0.68,1.26,1.41,2.12,1.87c0.37,0.2,0.59,0.5,0.08,0.77
		c-1.01,0.53-2.01,1.08-3.07,1.51c-2.35,0.96-4.38,0.31-6.16-1.38c-0.31-0.3-0.6-0.62-0.9-0.93c-2.08-1.6-1.47-3.83-1.37-5.94
		c0.01-0.24,0.21-0.41,0.45-0.49C62.43,29.4,62.99,29.36,63.53,29.5z"/>
	<path class="st0" d="M60.93,36.18c0.85,1.09,1.27,2.32,1.46,3.69c0.31,2.31,0.21,4.67,0.89,6.93c0.1,0.34,0.27,0.66,0.36,1
		c0.12,0.48,0.88,0.85,0.51,1.32c-0.28,0.35-0.89-0.06-1.34-0.14c-1.73-0.31-3.3-1.06-4.77-2.02c-0.22-0.2-0.29-0.48-0.27-0.75
		c0.13-1.84-0.52-3.43-1.53-4.92c-0.26-0.38-0.47-0.81-0.69-1.22c-0.09-0.23-0.1-0.47,0.01-0.7c0.85-0.84,1.96-1.41,2.6-2.49
		c0.29-0.48,0.78-0.77,1.27-1.03C60.03,35.51,60.55,35.54,60.93,36.18z"/>
	<path class="st0" d="M75.97,13.09c1.46,1.38,2.95,2.74,4.21,4.32c0.15,0.4-0.38,0.44-0.41,0.84c0.35,0.06,0.49-0.45,0.83-0.36
		c3.66,4.39,5.53,9.52,6.22,15.12c0.58,4.8-0.08,9.47-1.81,13.98c-0.11,0.3-0.19,0.62-0.36,0.88c-0.28,0.42-0.83,0.44-1.18,0.33
		c-0.41-0.13-0.07-0.54,0.03-0.81c3.54-9.9,2.29-19.13-3.87-27.66c-0.9-1.24-2-2.33-3.01-3.48c0.53-0.95,0.21-1.65-0.58-2.28
		c-0.25-0.2-0.56-0.49-0.26-0.89c0.02-0.02,0.07-0.03,0.1-0.02C75.9,13.05,75.94,13.07,75.97,13.09z"/>
	<path class="st0" d="M83.09,64.22c2.29,1.29,2.85,3.08,1.35,5.26c-2.84,4.13-6.91,6.36-11.8,7.13c-1.01,0.16-2.03-0.05-2.62-1
		c-0.59-0.93-0.15-1.85,0.36-2.67c1.19-1.95,2.84-3.46,4.74-4.72c0.27-0.06,0.38,0.06,0.35,0.33c-1.46,1.32-2.97,2.62-3.95,4.36
		c-0.29,0.51-0.84,1.08-0.39,1.73c0.44,0.65,1.2,0.45,1.76,0.29c4.17-1.18,7.76-3.32,10.39-6.82c1.26-1.67,0.91-2.69-0.97-3.61
		C82.37,63.91,82.77,64.15,83.09,64.22z"/>
	<path class="st0" d="M40.39,29.02c-0.64,0.05-1.09,0.46-1.54,0.84c-0.54,0.45-0.68,0.95,0.04,1.43c0.84,0.56,0.84,1.39,0.58,2.23
		c-0.28,0.87-1,1.12-1.81,0.97c-0.82-0.14-1.56,0.47-2.45,0.22c0.55-0.8,1.38-0.79,2.1-1.02c0.46-0.15,1.1-0.17,1.19-0.82
		c0.08-0.61-0.43-0.87-0.85-1.18c-1.79-1.32-2.04-3.27-0.59-4.6c0.51-0.46,1.14-0.68,1.79-0.87c1.15-0.34,1.35-0.89,0.72-1.94
		c-0.33-0.54-0.73-1.04-1.03-1.59c-0.89-1.6-0.38-3.17,1.29-3.93c0.57-0.26,1.19-0.5,1.81-0.56c2.64-0.24,5.29-0.09,8.09-0.1
		c-0.26,0.53-0.61,0.64-0.97,0.72c-0.59,0.47-1.27,0.6-2.01,0.57c-1.7-0.08-3.4,0.05-5.08,0.32c-0.19,0.06-0.38,0.09-0.57,0.16
		c-1.7,0.64-1.95,1.3-1.05,2.86c0.18,0.31,0.35,0.62,0.51,0.94c0.95,1.89,0.59,2.91-1.35,3.75c-0.82,0.35-1.6,0.71-1.63,1.87
		c1.4-1.36,3.31-1.53,4.97-2.27c0.34,0.05,0.57,0.2,0.49,0.6c-0.27,0.62-0.84,0.8-1.41,0.97C41.36,29.09,40.81,28.85,40.39,29.02z"
		/>
	<path class="st0" d="M51.52,33.82c-0.45,1.03-1.2,1.85-1.93,2.69c-1.08,1.25-1.27,2.57-0.4,4.02c0.5,0.85,0.97,1.72,1.37,2.62
		c0.62,1.38,0.38,2.66-0.74,3.68c-1.9,1.71-3.01,3.82-3.45,6.32c-0.15,0.19-0.15,0.56-0.53,0.47c-0.29-0.07-0.31-0.29-0.21-0.53
		c0.31-2.61,1.63-4.76,3.14-6.81c0.98-1.33,0.91-2.54,0.05-3.92c-1.98-3.17-1.87-4.34,0.44-7.36c1.63-2.13,1.62-3.52-0.06-5.38
		c-0.77,0.95-0.89,2.18-1.5,3.18c-0.13,0.22-0.16,0.59-0.57,0.42c-0.31-0.13-0.32-0.4-0.29-0.7c0.18-1.44,1.48-3.79,2.68-4.78
		c0.18,1.9,2.41,2.77,2.34,4.79C52.13,33.07,52.1,33.53,51.52,33.82z"/>
	<path class="st0" d="M28.08,30.95c-0.28,2.39-0.59,4.76-0.51,7.18c0.13,3.84,0.95,7.49,2.66,10.93c0.26,0.53,0.47,1.08,0.71,1.62
		c-0.39,0.13-0.85-0.06-1.21,0.25c-1.71-2.84-2.62-5.95-3.26-9.17c-0.99-4.91-0.47-9.71,0.83-14.48c0.06-0.22,0.18-0.43,0.27-0.64
		c0.61,0.73,0.16,1.48,0.03,2.21C27.47,29.64,27.24,30.41,28.08,30.95z"/>
	<path class="st0" d="M75.97,13.09c-0.33,0.64,0.34,0.79,0.6,1c0.93,0.75,1.02,1.41,0.04,2.15c-3.43-3.23-7.42-5.49-11.89-6.94
		c0.18-0.7,0.01-1.14-0.79-1.27c-0.33-0.05-0.72-0.38-0.6-0.74c0.13-0.42,0.55-0.24,0.87-0.12c3.3,0.7,6.32,2.07,9.13,3.91
		C74.26,11.69,75.16,12.33,75.97,13.09z"/>
	<path class="st0" d="M64.21,7.17c-0.22,0-0.45,0-0.75,0c0.21,0.41,0.42,0.62,0.78,0.72c1.32,0.36,1.31,0.37,0.49,1.41
		c-3.41-0.9-6.88-1.25-10.4-1.14c-0.96,0.01-1.9,0.33-2.93,0.3c0.08-0.77,0.86-0.8,1.1-1.29c-0.46-0.09-1.14,0.35-1.34-0.5
		c1.62-0.67,3.35-0.48,5.03-0.55c2.5-0.1,4.98,0.19,7.42,0.75C63.82,6.92,64.07,6.92,64.21,7.17z"/>
	<path class="st0" d="M51.15,6.67c0.69,0.73,1.5-0.16,2.36,0.18c-0.67,0.52-1.28,0.98-2.02,1.56c1.04-0.25,1.93-0.36,2.83-0.24
		c-2.06,0.49-4.18,0.63-6.22,1.27c-2.07,0.65-4.01,1.57-5.95,2.51c-0.23,0.13-0.6,0.09-0.51-0.14c0.25-0.69-0.42-1.01-0.49-1.54
		C44.22,8.33,47.52,7.04,51.15,6.67z"/>
	<path class="st0" d="M51.52,33.82c0.12-0.43,0.25-0.86,0.37-1.29c0.25-0.07,0.51-0.14,0.76-0.21c0.44,0.13,0.46,0.51,0.47,0.86
		c0.04,3.39,1.44,6.3,3.16,9.1c0.22,0.53,0.57,1,0.65,1.58c-0.06,0.62,0.51,1.28-0.11,1.86c-2.07-1.5-3.38-3.56-4.35-5.86
		C51.66,37.94,51.84,35.84,51.52,33.82z"/>
	<path class="st0" d="M45.64,53.09c0.2,0.64,0.47,0.35,0.74,0.06c0.84,0.83,1.87,0.33,2.78,0.31c0.74-0.02,1.49-0.13,2.24-0.13
		c3.83,0,7.65,0,10.81,0c-2.65,1.06-22.69,1.87-24.5,0.75c0.03-0.37,0.32-0.28,0.53-0.29c2.09-0.08,4.18-0.17,6.28-0.23
		C44.97,53.54,45.38,53.52,45.64,53.09z"/>
	<path class="st0" d="M56.08,42.41c-1.72-2.35-2.81-4.95-3.18-7.85c-0.09-0.74-0.16-1.49-0.25-2.23c0.39-1.56,0.82-3.1,1.57-4.54
		c0.28-0.53,0.07-0.97-0.28-1.41c-0.31-0.39-0.86-0.56-1.04-1.09c1.89,0.03,2.91,1.77,2.07,3.51c-0.53,1.09-1.3,2.1-1.11,3.42
		c0.37,1.18,0.51,2.42,0.82,3.61c0.1,0.4,0.17,0.8,0.29,1.19c0.2,0.76,0.65,1.45,0.67,2.26c0.02,0.21,0.04,0.43,0.07,0.64
		c0.46,1.3,1.51,2.32,1.85,3.68c0.07,0.27,0.28,0.57-0.08,0.71c-0.41,0.15-0.54-0.18-0.61-0.51C56.75,43.26,56.36,42.86,56.08,42.41
		z"/>
	<path class="st0" d="M23.33,31.9c-0.15,1.76-0.31,3.53-0.45,5.29c-0.15,1.98,0.25,3.93,0.44,5.88c-0.83-0.31-0.67-0.94-0.61-1.65
		c-0.27,0.77-0.43,1.5-0.02,2.2c0.52,0.9,0.38,1.65-0.34,2.34c-0.82-1.99-0.98-4.11-1.18-6.21c-0.34-3.55,0.01-7.07,0.76-10.54
		c0.22-1.02,0.6-2.01,0.91-3.02c0.36,0.32,0.3,0.77,0.34,1.18c0,0.67,0.04,1.35-0.11,2.01c-1.19,1.59-0.62,3.6-1.25,5.33
		c-0.2,0.54,0.3,0.93,0.57,1.3c0.13-1.08,0.06-2.19,0.34-3.26C22.81,32.41,22.72,31.89,23.33,31.9z"/>
	<path class="st0" d="M46.17,3.38c-0.18,0.43-0.33,0.87-0.54,1.28C45.36,5.19,45.46,5.55,46,5.78c-2.15,0.85-4.26,1.76-6.32,2.81
		c-0.84,0.41-1.2-0.21-1.55-0.76c-0.33-0.52-0.05-0.87,0.41-1.12C40.93,5.24,43.45,4.09,46.17,3.38z"/>
	<path class="st0" d="M38.55,6.71c-0.53,0.97-0.16,1.57,1.13,1.88c-1.98,1.39-4.05,2.66-5.84,4.3c-0.35,0.31-0.71,0.61-1.06,0.92
		c-0.64-0.59-0.29-1.5-0.7-2.17c0.07-0.07,0.15-0.14,0.22-0.21c0.87-0.28,1.19-1.22,1.94-1.65C35.51,8.51,36.97,7.52,38.55,6.71z"/>
	<path class="st0" d="M85.41,55.49c-1.06-0.15-2.04,0.07-2.94,0.63c-1.74,1.09-3.43,2.24-4.53,4.05c-0.77,1.28-0.74,1.6,0.37,2.6
		c0.08,0.23,0.62,0.15,0.42,0.51c-0.13,0.23-0.47,0.14-0.72,0.05c-1.88-0.36-2.42-1.73-1.56-3.5c1.28-2.62,3.56-4.15,6.34-4.93
		c0.6,0.21,1.2,0.23,1.83,0.14C84.95,54.98,85.45,54.82,85.41,55.49z"/>
	<path class="st0" d="M49.14,23.89c-1.85,2.25-1.76,4.86-2.53,7.2c-0.91,2.76-2.44,5.12-4.36,7.26c-0.12,0.14-0.31,0.22-0.46,0.32
		c-0.39-0.39-0.05-0.64,0.11-0.85c2.1-2.57,3.18-5.61,4.07-8.74c0.31-1.1,0.63-2.2,0.91-3.31C47.12,24.75,47.71,24.13,49.14,23.89z"
		/>
	<path class="st0" d="M41.15,10.25c0.53,0.35,1.39,0.55,0.67,1.49c-0.07,0.1,0.19,0.17,0.33,0.2c-1.85,1.14-3.56,2.47-5.27,3.79
		c-0.66-0.13-1.45-0.06-1.68-0.96C36.92,12.91,38.87,11.37,41.15,10.25z"/>
	<path class="st0" d="M32.08,11.64c1.08,0.45,0.46,1.45,0.7,2.17c-1.4,1.76-2.98,3.38-4.24,5.25c-0.47,1.05-1.08,0.23-1.64,0.13
		c-0.46-0.17-0.45-0.46-0.17-0.77c0.21-0.24,0.26-0.53,0.37-0.8l-0.01,0c0.16-0.1,0.27-0.33,0.49-0.25
		c0.42,0.16,0.62,0.22,0.41-0.38c-0.17-0.49,0.43-0.8,0.5-1.26c0.78-0.41,1.25-1.06,1.48-1.9C30.59,13.01,31.32,12.3,32.08,11.64z"
		/>
	<path class="st0" d="M22.84,29.53c0-0.71,0.01-1.42,0.01-2.14c0.16-0.22,0.25-0.49,0.51-0.64c0.55-0.32,0.68-0.73,0.28-1.27
		c-0.29-0.39-0.25-0.81-0.1-1.23c0.66-1.46,1.03-3.06,2.11-4.31c0.72,0.26,0.95,1,1.44,1.49c-0.79,1.75-1.57,3.5-2.36,5.24
		c-0.44,0.91-0.67,1.88-0.92,2.85l0,0C23.47,29.97,23.16,30.08,22.84,29.53z"/>
	<path class="st0" d="M67.14,25.09c-1.38,1.26-2.9,2.25-4.79,2.54c-0.55,0.26-1.16,0.14-1.73,0.17c-0.63,0.03-1.14-0.29-0.88-1.1
		c2.4-0.78,4.59-2,6.82-3.14C67.45,23.8,67.23,24.47,67.14,25.09z"/>
	<path class="st0" d="M35.2,14.77c0.4,0.6,1.3,0.32,1.68,0.96c-1.59,1.68-3.15,3.38-4.54,5.23c-0.2,0.13-0.31,0.35-0.46,0.53
		c-0.3,0.36-0.54,0.26-0.65-0.16c-0.18-0.7-0.38-1.36,0.21-2.04c0.32-0.36,0.75-0.71,0.87-1.24C33.12,16.82,34,15.66,35.2,14.77z"/>
	<path class="st0" d="M55.64,39.29c-0.61-0.58-0.61-1.42-0.89-2.14c0.89-0.91,1.9-1.7,2.78-2.62c0.34-0.35,0.69-0.8,1.3-0.51
		c0.83,0.59,1.66,1.19,2.1,2.16c-1-0.51-1.84-0.2-2.68,1.05C57.6,38.21,56.73,38.88,55.64,39.29z"/>
	<path class="st0" d="M49.5,19.32c1.26-0.43,2.78-0.3,3.54-1.76c0.14-0.27,0.42-0.11,0.58,0.09c0.26,0.32,0.26,0.67-0.01,0.97
		c-0.62,0.68-1.4,1.12-2.28,1.4c-1.66,0.52-3.37,0.81-5.08,1.04c-1.3,0.18-2.32,0.69-3,1.82c-0.47,0.21-0.57-0.12-0.65-0.46
		c0.19-1.68,1.51-2.21,2.83-2.61c0.7-0.21,1.45-0.36,2.18-0.49C48.25,19.15,48.88,19.64,49.5,19.32z"/>
	<path class="st0" d="M49.63,67.14c-0.97-1.15-1.2-1.15-2.02,0.09c-0.17,0.26-0.32,0.53-0.49,0.79c-0.35,0.55-0.8,0.83-1.46,0.51
		c-0.33,0.02-0.47-0.25-0.67-0.43c-0.25-0.24-0.48-0.59-0.9-0.3c-0.35,0.24-0.65,0.63-0.52,0.99c0.36,0.94-0.21,1.59-0.59,2.3
		c-0.62,1.15-1.36,2.23-2.29,3.16c-0.19,0.19-0.43,0.42-0.72,0.29c-0.35-0.16-0.34-0.51-0.26-0.83c0.66-2.42,1.77-4.56,3.81-6.12
		c0.39-0.29,0.81-0.47,1.31-0.48c0.44-0.01,0.25-0.27,0.14-0.48c-2.61-0.08-4.27,1.46-5.57,3.44c-0.72,1.09-1.44,2.18-2.34,3.12
		c-0.27,0.28-0.51,0.76-1.04,0.45c0.62-1.51,1.09-3.12,2.16-4.34c0.55-0.63,0.53-0.91-0.04-1.37c-0.67-0.54-0.99-0.06-1.3,0.43
		c-0.32,0.5-0.64,1-0.9,1.53c-1.05,2.08-2.79,3.5-4.6,4.84c-0.27,0.2-0.63,0.48-0.98,0.24c-0.41-0.29-0.19-0.73-0.05-1.08
		c0.64-1.59,1.51-3.05,2.72-4.28c0.35-0.35,0.74-1.02,1.22-0.76c0.55,0.31-0.06,0.89-0.11,1.36c-0.01,0.06,0.06,0.13,0.13,0.28
		c0.65-0.71,1.57-1.33,0.89-2.38c-0.69-1.08-1.63-0.46-2.4-0.02c-1.37,0.79-2.31,2.01-3.18,3.3c-0.86,1.27-1.8,2.48-3.08,3.37
		c0.26-1.28,0.68-2.45,1.58-3.38c0.12-0.6-0.19-1.05-0.68-1.25c-0.54-0.22-0.73,0.36-0.97,0.68c-1.22,1.6-2.61,3.03-4.3,4.52
		c0.09-1.26,0.68-2.04,1.17-2.86c0.71-1.2,1.64-2.22,2.78-3.04c0.69-0.49,1.41-0.73,2.24,0.02c0.01-0.01,0.02-0.01,0.03-0.02
		c-0.14-1.16-0.88-1.22-1.61-1.19c-0.51,0.02-1.01,0.19-1.51,0.29c-1.66,1.12-3.1,2.45-4.09,4.22c-0.41,0.73-0.74,1.49-0.82,2.33
		c-0.07,0.7,0.24,1.28,0.8,1.62c0.59,0.35,0.96-0.21,1.3-0.54c0.76-0.73,1.45-1.51,2.27-2.37c0,0.54,0.03,0.92-0.01,1.29
		c-0.05,0.56,0.08,1.02,0.62,1.28c0.55,0.27,0.92-0.12,1.26-0.41c0.41-0.36,0.75-0.81,1.12-1.22c0.18-0.2,0.31-0.52,0.64-0.45
		c0.31,0.06,0.17,0.39,0.24,0.59c0.4,1.18,1.16,1.52,2.31,1c0.51-0.23,0.97-0.52,1.38-0.9c0.67-0.63,1.36-1.25,2.2-2.01
		c-0.04,0.47-0.03,0.72-0.1,0.93c-0.23,0.7-0.08,1.3,0.54,1.66c0.63,0.37,1.04-0.2,1.41-0.57c0.63-0.63,1.21-1.32,1.86-2.04
		c0.45,2.54,1.58,3,3.6,1.56c1.52-1.09,2.68-2.47,3.24-4.28c0.23-0.74,0.58-0.93,1.27-0.62c-0.42,1.15-0.84,2.26-1.24,3.38
		c-0.23,0.65-0.14,1.26,0.39,1.74c0.33,0.3,0.67,0.4,0.7-0.21c0.04-0.72,0.59-1.2,0.82-1.81c0.34-0.92,1.35-1.44,1.41-2.5
		c-0.05-0.77,0.47-1.29,0.81-1.89C49.38,67.94,49.91,67.69,49.63,67.14z"/>
	<path class="st0" d="M98.57,77.84c-1.45,0.19-2.89,0.45-4.34,0.55c-4.62,0.34-9.16,1.37-13.79,1.54c0.21-0.69,0.79-0.15,1.12-0.36
		c-0.53-0.11-1.13,0.27-1.67-0.14c1.36-0.2,2.72-0.44,4.09-0.59c4.27-0.46,8.55-0.88,12.82-1.32C97.39,77.58,98.1,77.05,98.57,77.84
		z"/>
	<path class="st0" d="M52.82,82.34c4.12-0.23,8.18-0.97,12.28-1.35c0.59-0.05,1.17-0.07,1.76-0.1c0.49,0.4,1.23-0.05,1.69,0.48
		c-2.07,0.28-4.13,0.68-6.21,0.8c-2.37,0.14-4.69,0.71-7.08,0.67c-1.29,0.1-2.59,0.12-3.86,0.45l0.01,0
		c-0.89,0.12-1.77,0.23-2.85-0.04c0.72-0.55,1.37-0.12,1.88-0.45c0.07-0.03,0.14-0.04,0.21-0.02
		C51.37,82.59,52.15,82.76,52.82,82.34z"/>
	<path class="st0" d="M64.01,23.84c1.58-1.91,3.4-3.6,5.25-5.24c0.63-0.56,1.2-1.12,1.39-1.97c0.68-0.36,1.35-0.72,2.09-1.12
		c0.1,0.76-0.15,1.32-0.38,1.9c-1.53,1.35-3.06,2.69-4.38,4.26c-0.2,0.19-0.44,0.33-0.66,0.49C66.11,22.48,65.2,23.44,64.01,23.84z"
		/>
	<path class="st0" d="M22.35,45.97c0.23-0.87,0.6-1.63-0.13-2.58c-0.43-0.56-0.09-1.57,0.45-2.4c0.3,0.78,0.22,1.53,0.65,2.1
		c0.48,1.9,0.96,3.81,1.44,5.71c-0.5,0.37-0.65,0.84-0.46,1.44c0.12,0.39,0.35,0.82-0.04,1.2C23.37,49.7,22.6,47.92,22.35,45.97z"/>
	<path class="st0" d="M68.55,81.37c-0.49-0.01-0.98-0.01-1.47-0.02c-0.39-0.01-0.28-0.25-0.22-0.46c2.5-0.63,5.08-0.65,7.62-0.93
		c1.79-0.2,3.57-0.72,5.4-0.54c0.65,0,1.3,0,2.16,0c-0.62,0.48-1.23,0.04-1.61,0.5c-3.07,0.62-6.19,0.8-9.29,1.16
		C70.28,81.18,69.41,81.28,68.55,81.37z"/>
	<path class="st0" d="M68.65,58.01c-0.88-0.53-1.58-0.19-2.37,1.24c-1.27,2.28-2.5,4.59-3.41,7.04c-0.7,1.9-1.75,3.52-3.16,4.94
		c-0.27,0.28-0.49,0.71-1.11,0.63c0.5-1.23,0.88-2.42,1.78-3.35c0.14-0.6-0.17-1.06-0.64-1.26c-0.6-0.26-0.78,0.4-1.05,0.74
		c-1.26,1.56-2.56,3.08-4.25,4.26c0.34-1.46,1.1-2.69,2-3.85c0.64-0.81,1.39-1.53,2.3-2.02c0.75-0.4,1.51-0.71,1.74,0.58
		c0.04,0.24,0.25,0.07,0.39,0.07c0,0,0,0,0,0c-0.27-1.64-1.26-2.14-2.94-1.4c-2.06,0.91-3.49,2.51-4.58,4.43
		c-0.39,0.7-0.83,1.33-1.47,1.81c-0.2,0.16-0.43,0.2-0.71,0.41c0.11-0.42,0.06-0.71,0.18-0.96c0.39-1.29,1.06-2.44,1.72-3.59
		c0.31-0.55,0.21-0.95-0.2-1.36c-0.47-0.46-0.85-0.2-1.22,0.13c-0.41,0.36-0.82,0.72-1.24,1.08c-0.35,0.25-0.79,0.4-1.02,0.78
		c-0.33,0.52-1.16,0.78-0.86,1.63c0.97-0.01,1.11-1.25,2.02-1.4c0.14,0.41-0.14,0.63-0.27,0.89c-0.46,0.96-0.81,1.96-1.07,2.99
		c-0.18,0.68,0.04,1.28,0.61,1.67c0.64,0.43,1.02-0.17,1.42-0.51c0.41-0.35,0.76-0.78,1.14-1.2c1.08,1.93,1.48,1.96,2.96,0.29
		c0.52-0.58,1.04-1.15,1.71-1.89c0,0.47,0.05,0.71-0.01,0.92c-0.19,0.71-0.18,1.42,0.53,1.77c0.77,0.38,1.23-0.32,1.68-0.78
		c0.56-0.57,1.05-1.21,1.74-2.01c-0.03,0.51-0.03,0.74-0.07,0.96c-0.11,0.73,0.21,1.28,0.85,1.51c0.64,0.24,0.97-0.28,1.3-0.76
		c0.35-0.51,0.8-0.97,1.2-1.45c0.05-0.28-0.07-0.4-0.35-0.34c-0.49,0.23-0.67,0.91-1.37,0.92c0.04-0.35-0.02-0.74,0.13-1.01
		c0.87-1.51,1.31-3.21,2.09-4.76c1.22-2.42,2.15-5.02,4.01-7.08C69.16,58.32,68.97,58.2,68.65,58.01z"/>
	<path class="st0" d="M86.18,57.58c-0.36,1.85-1.58,3.04-3.13,3.94c-0.58,0.34-1.32,0.67-1.86,0.05c-0.51-0.59-0.15-1.26,0.33-1.97
		c0.18,0.94,0.62,0.7,1.08,0.36c1.25-0.93,2.33-2.01,3.02-3.43C86.05,56.75,86.11,57.17,86.18,57.58z"/>
	<path class="st0" d="M24.25,51.43c0.07-0.54-0.26-0.98-0.34-1.48c-0.11-0.64-0.15-1.29,0.84-1.16c0.97,2.57,2.26,4.98,3.62,7.35
		c-0.88,0.19-0.93-0.74-1.45-1.06c-0.23,0.15-0.03,0.52-0.31,0.65C25.62,54.42,24.86,52.96,24.25,51.43z"/>
	<path class="st0" d="M50.44,82.79c-0.37,0.48-0.97,0.07-1.61,0.5c1.01,0,1.79,0,2.58,0c-2.06,0.53-4.18,0.59-6.27,0.83
		c-2.42,0.27-4.82,0.74-7.27,0.68c-0.22-0.18-0.21-0.37-0.03-0.56c3.35-0.38,6.69-0.83,10.02-1.36
		C48.7,82.73,49.58,82.81,50.44,82.79z"/>
	<path class="st0" d="M22.84,29.53c0.32,0.22,0.64,0.21,0.96,0c0.08,0.84-0.29,1.59-0.47,2.37c-0.77,1.4-0.27,3.03-0.8,4.46
		c-1.27-1-1.44-1.35-0.81-2.99c0.25-0.64,0.26-1.16,0.18-1.78C21.8,30.74,22.18,30.06,22.84,29.53z"/>
	<path class="st0" d="M61.88,29.51c-0.39,2.19-0.67,4.37,0.91,6.27c-1.07-0.62-1.69-1.7-2.6-2.48c-0.51-0.23-0.63-0.63-0.59-1.15
		c0.04-0.5,0.09-1.02-0.01-1.52c-0.18-0.94,0.16-1.41,1.12-1.43C61.1,29.32,61.65,28.84,61.88,29.51z"/>
	<path class="st0" d="M56.08,42.41c0.66,0.4,0.86,1.15,1.27,1.75c0.11-0.82-0.3-1.46-0.69-2.1c-0.4-0.67-0.87-1.31-0.96-2.13
		c1.5,2.1,2.79,4.27,2.33,7.02c-0.98,1.38-2.04,2.67-3.57,3.48c-0.31,0.19-0.5,0.14-0.49-0.26c0.86-0.74,1.79-1.4,2.46-2.35
		c0.39-0.55,0.7-1.13,0.63-1.84c0.22-0.81-0.27-1.48-0.44-2.21C56.45,43.32,56.26,42.86,56.08,42.41z"/>
	<path class="st0" d="M58.84,34.02c-0.49,0.01-0.81,0.33-1.05,0.67c-0.66,0.92-1.83,1.34-2.3,2.45c-0.14,0.33-0.48,0.1-0.73,0
		c-0.28-0.4-0.32-0.85-0.32-1.31c0-0.11,0.02-0.22,0.04-0.33c0.37-0.89,1.33-1.3,1.74-2.19c0.13-0.29,0.62-0.26,0.94-0.02
		C57.78,33.4,58.4,33.5,58.84,34.02z"/>
	<path class="st0" d="M30.67,23.82c-0.18,0.99-0.88,1.72-1.32,2.58c-0.19,0.37-0.23,0.82-0.34,1.23c-0.21,0.4-0.49,0.33-0.78,0.1
		c-0.43-0.35-0.54-0.88-0.31-1.29c0.38-0.68,0.34-1.46,0.62-2.15c0.48-1.27,1.06-2.5,1.9-3.58c0.37,0.5,0,0.98-0.05,1.47
		C30.34,22.75,30.06,23.36,30.67,23.82z"/>
	<path class="st0" d="M26.62,55.74c0-0.08,0.01-0.16,0-0.23c-0.05-0.36-0.45-0.83,0.05-1.03c0.49-0.21,0.51,0.46,0.75,0.71
		c0.31,0.32,0.43,0.84,0.96,0.96c0.59,0.79,1.19,1.57,1.75,2.38c0.17,0.24,0.7,0.51,0.27,0.85c-0.34,0.27-0.85,0.26-1.19-0.12
		c-0.38-0.4-0.74-0.83-1.06-1.28C27.61,57.25,27.12,56.48,26.62,55.74z"/>
	<path class="st0" d="M60.69,29.34c-0.72,0.14-0.96,0.51-0.75,1.26c0.25,0.87-0.36,1.84,0.25,2.7c-0.87-0.4-1.73-0.8-2.6-1.2
		c-0.31-0.7,0.04-1.32,0.24-1.96C58.7,29.55,59.53,28.85,60.69,29.34z"/>
	<path class="st0" d="M67.82,21.68c0.56-1.32,1.72-2.11,2.74-2.98c0.55-0.46,0.76-1.5,1.8-1.3c0.03,0.61-0.26,1.13-0.5,1.66
		c-0.28,0.38-0.66,0.69-0.85,1.13C70.38,21.64,69.23,21.92,67.82,21.68z"/>
	<path class="st0" d="M28.54,24.28c0.01,0.73,0,1.41-0.37,2.12c-0.29,0.56-0.22,1.34,0.84,1.21c-0.08,1.18-0.57,2.24-0.93,3.33
		c-0.82,0.29-0.93-0.18-0.96-0.83c-0.05-1.19,0.68-2.27,0.47-3.47C27.98,25.89,27.96,24.96,28.54,24.28z"/>
	<path class="st0" d="M29.74,50.94c0.19-1.13,0.74-0.5,1.21-0.25c0.65,0.99,1.31,1.97,1.94,2.96c0.19,0.3,0.7,0.64,0.25,0.98
		c-0.41,0.31-0.92,0.13-1.25-0.31C31.08,53.25,30.36,52.12,29.74,50.94z"/>
	<path class="st0" d="M51.74,15.91c-2.83-2.05-4.86-0.75-6.81,1.08c-0.16-1.33,0.79-2.31,2.58-2.79
		C49.42,13.69,51.04,14.25,51.74,15.91z"/>
	<path class="st0" d="M30.67,23.82c-0.61,0.27-0.65-0.14-0.69-0.57c-0.08-0.89,0.35-1.69,0.47-2.54c0.56-0.93,1.01-1.94,1.87-2.66
		c-0.04,0.18-0.02,0.42-0.13,0.54c-0.79,0.85-1.21,1.77-0.63,2.92c0.34-0.03,0.35-0.62,0.78-0.55
		C31.78,21.91,31.22,22.86,30.67,23.82z"/>
	<path class="st0" d="M42.6,28.84c1.52-0.34,2.68-1.11,3.08-2.85c0.79,1.67-0.48,3.47-2.35,3.56c-0.63,0.03-1.27-0.02-1.9-0.04
		c-0.27-0.38-0.07-0.52,0.29-0.57C42.02,28.9,42.33,29,42.6,28.84z"/>
	<path class="st0" d="M30.7,85.66c-0.66,0.5-1.45,0.19-2.17,0.32c-1.65,0.3-3.33,0.44-5,0.61c-0.41,0.04-0.85,0.09-1.27-0.29
		c2.19,0.03,4.13-1.13,6.3-1.12c0.17,0.02-0.29,0.32,0.17,0.28C29.38,85.41,30.08,85.19,30.7,85.66z"/>
	<path class="st0" d="M49.23,21.84c2.17,1.31,2.7-0.57,3.66-1.6c0.33,1.29-0.57,2.74-1.88,3.04C50.05,23.51,49.44,23.11,49.23,21.84
		z"/>
	<path class="st0" d="M67.14,25.09c-0.4-0.43-0.05-1.15-0.57-1.54c0.64-0.65,1.52-0.76,2.31-1.07c0.19-0.07,0.41-0.08,0.55,0.08
		c0.19,0.22,0.06,0.44-0.09,0.63C68.7,23.94,68.11,24.74,67.14,25.09z"/>
	<path class="st0" d="M104.4,58.78c0.75,0.43,1.07,0.9,0.13,1.48c-0.09,0.06-0.15,0.18-0.23,0.26c-0.33,0.32-0.44,1.13-1.07,0.79
		c-0.66-0.36-0.3-1.03-0.08-1.57c0.14-0.32,0.28-0.64,0.43-0.96C103.85,58.52,104.13,58.52,104.4,58.78z"/>
	<path class="st0" d="M42.8,22.38c0.02,0.28,0.15,0.47,0.45,0.5c-0.26,1.14,0.15,2.27,0.08,3.4c-0.03,0.46,0.12,0.95-0.27,1.34
		c-0.1-0.23-0.27-0.4-0.51-0.49c-0.52-1.22-0.62-2.5-0.46-3.79C42.15,22.93,42.25,22.46,42.8,22.38z"/>
	<path class="st0" d="M37.87,66.41c0.19-0.66,0.23-1.23,0.66-1.65c0.46-0.45,0.86-0.24,1.25,0.1c0.46,0.4,0.35,0.68-0.13,1.01
		c-0.32,0.22-0.53,0.58-0.79,0.88c-0.18,0.21-0.33,0.52-0.66,0.35C37.9,66.93,37.86,66.6,37.87,66.41z"/>
	<path class="st0" d="M37.84,84.23c0.01,0.19,0.02,0.38,0.03,0.56c-0.92,0.35-1.89,0.43-2.87,0.41c-0.96,0.18-1.91,0.07-2.91,0.05
		c0.1-0.59,0.56-0.32,0.74-0.54C34.54,84.89,36.15,84.13,37.84,84.23z"/>
	<path class="st0" d="M57.15,33.31c-0.6,0.04-1.07,0.13-1.15,0.93c-0.08,0.77-1.28,0.64-1.43,1.46c-0.36-0.43-0.26-0.97-0.28-1.45
		c-0.04-1.08,0.71-1.68,1.79-1.47c0.34,0.07,0.71,0.11,1,0.34C57.11,33.18,57.14,33.24,57.15,33.31z"/>
	<path class="st0" d="M32.84,84.71c-0.16,0.11-0.32,0.22-0.72,0.49c1.11,0,2,0,2.88,0c-1.43,0.15-2.87,0.3-4.3,0.46
		c-0.86,0-1.73,0-2.6,0c-0.01-0.36,0.4-0.24,0.46-0.48C30.04,85.49,31.37,84.53,32.84,84.71z"/>
	<path class="st0" d="M59.74,26.69c0.1,0.8,0.65,0.96,1.33,0.94c0.42-0.01,0.85-0.01,1.27-0.01c-1.23,0.51-2.5,0.57-3.8,0.46
		c-0.23-0.18-0.55-0.04-0.79-0.21c-0.17-0.12-0.28-0.27-0.26-0.49c0.02-0.24,0.19-0.31,0.41-0.34c0.47-0.05,0.9-0.25,1.36-0.35
		C59.42,26.69,59.58,26.69,59.74,26.69z"/>
	<path class="st0" d="M57.08,33.12c-0.23-0.02-0.47-0.02-0.7-0.07c-1.24-0.26-1.83,0.19-1.88,1.47c-0.01,0.39,0.05,0.78,0.07,1.17
		c-0.03,0.06-0.08,0.1-0.13,0.14c-0.38-1.18-0.72-2.36-0.58-3.62C54.9,32.64,56.16,32.27,57.08,33.12z"/>
	<path class="st0" d="M20.53,81.14c-0.52-0.1-1.24,0.4-1.51-0.49c1.88,0.06,3.48-0.66,4.99-1.69c0.24-0.05,0.35,0.05,0.29,0.3
		C23.18,80.18,22.04,81.04,20.53,81.14z"/>
	<path class="st0" d="M49.5,19.32c-0.62,0.3-1.28,0.25-1.94,0.21c-1.59,0.13-3.16,0.51-4.78,0.37c-0.5-0.04-1.03,0.05-1.42-0.38
		c1.25-0.38,2.53-0.42,3.82-0.41c1.21,0.01,2.41-0.05,3.6-0.28C48.57,19.65,49.32,19.07,49.5,19.32z"/>
	<path class="st0" d="M67.82,21.68c1.32-0.11,2.54-0.35,3.01-1.88c0.13-0.42,0.66-0.53,1.03-0.74c-0.52,2.06-1.21,2.66-3.17,2.81
		c-0.46,0.04-0.91,0.18-1.36,0.28C67.5,22,67.66,21.84,67.82,21.68z"/>
	<path class="st0" d="M27.08,21.43c-0.86-0.13-0.98-0.97-1.43-1.49c0.29-0.9,0.84-1.63,1.45-2.33c0.08,0.36-0.05,0.65-0.27,0.94
		c-0.24,0.33-0.05,0.47,0.28,0.5c0.1,0.73,0.23,1.46,0.03,2.2C27.16,21.33,27.13,21.39,27.08,21.43z"/>
	<path class="st0" d="M78.01,63.33c0.42-0.01,0.7-0.1,0.3-0.55c1.57,0.55,3.29,0.64,4.79,1.44c-0.28,0.05-0.61,0-0.8,0.3
		C80.87,64.12,79.44,63.72,78.01,63.33z"/>
	<path class="st0" d="M23.53,24.25c0.02,0.23-0.02,0.49,0.07,0.69c0.68,1.5,0.69,1.5-0.76,2.45c0-0.4-0.01-0.8-0.01-1.19
		C23.02,25.53,23.17,24.85,23.53,24.25z"/>
	<path class="st0" d="M106.59,76.83c-1.91,0.12-3.75,0.87-5.7,0.7c0.18-0.64,0.83-0.1,1.17-0.45c0.11-0.02-0.12-0.14-0.04-0.01
		c0.04,0.06,0.02,0.1-0.06,0.1c-0.3,0-0.62,0.14-0.88-0.14c1.33-0.38,2.73-0.24,4.08-0.46C105.65,76.59,106.22,76.15,106.59,76.83z"
		/>
	<path class="st0" d="M86.18,57.58c-0.41-0.23-0.47-0.65-0.56-1.06c0.01-0.36,0.04-0.72-0.21-1.03c-0.36-0.48-0.88-0.2-1.32-0.28
		c-0.44-0.08-0.97,0.19-1.31-0.31c0.71-0.06,1.43-0.12,2.13-0.16C86.09,54.66,86.65,56.03,86.18,57.58z"/>
	<path class="st0" d="M59.26,26.69c-0.21,0.1-0.44,0.18-0.63,0.31c-0.29,0.19-0.84-0.02-0.91,0.4c-0.09,0.54,0.64,0.34,0.82,0.68
		c-0.59,0-1.18,0.02-1.77,0c-0.4-0.01-0.72-0.26-0.74-0.64c-0.04-0.52,0.42-0.45,0.77-0.49C57.62,26.87,58.44,26.78,59.26,26.69z"/>
	<path class="st0" d="M50.43,67.56c-0.54,0.87-1.54,1.38-1.88,2.4c-0.06,0.08-0.12,0.15-0.18,0.23c-0.34-0.37-0.38-0.7-0.04-1.13
		c0.48-0.61,0.88-1.28,1.31-1.92C49.96,67.16,50.06,67.61,50.43,67.56z"/>
	<path class="st0" d="M27.15,21.26c-0.14-0.73-0.6-1.46-0.03-2.2c0.06-0.29,0.3-0.62,0.42-0.16c0.25,1.06,0.66,0.26,1.01,0.17
		C28.23,19.89,27.67,20.56,27.15,21.26z"/>
	<path class="st0" d="M64.3,70.97c-0.12-0.11-0.23-0.23-0.35-0.34c0.79-1.05,1.57-2.1,2.36-3.14c0.1,0.07,0.21,0.14,0.31,0.22
		C65.98,68.87,65.2,69.96,64.3,70.97z"/>
	<path class="st0" d="M106.59,76.83c-0.42-0.43-0.96-0.12-1.43-0.25c1.52-0.41,3.05-0.53,4.6-0.4c0.01,0.1,0.03,0.2,0.04,0.3
		C108.74,76.6,107.67,76.72,106.59,76.83z"/>
	<path class="st0" d="M101.08,77.04c0.34,0.03,0.67,0.07,1.08,0.11c-0.42,0.34-0.95,0-1.26,0.38c-0.78,0.1-1.55,0.2-2.33,0.3
		c-0.51-0.53-1.2-0.12-1.77-0.32C98.22,77.33,99.64,77.02,101.08,77.04z"/>
	<path class="st0" d="M57.85,30.27c0.25,0.66-0.12,1.23-0.25,1.83c-0.52,0.1-0.72-0.34-1.01-0.62c-0.51-0.64-0.4-1.04,0.45-1.12
		c0.24-0.02,0.43-0.14,0.66-0.19C57.74,30.21,57.79,30.24,57.85,30.27z"/>
	<path class="st0" d="M28.58,15.77c0.09,0.56-0.87,1.15,0.04,1.71c0.03,0.02-0.04,0.3-0.12,0.42c-0.14,0.21-0.35,0.16-0.5,0
		c-0.26-0.27-0.52-0.49-0.91-0.28c0.25-0.88,1-1.41,1.46-2.14C28.66,15.56,28.68,15.66,28.58,15.77z"/>
	<path class="st0" d="M60.69,29.34c-1.15-0.31-1.92,0.55-2.85,0.93c0,0-0.06-0.06-0.06-0.06c-0.08-0.41,0.31-0.47,0.5-0.69
		c1.75-0.7,3.5-0.59,5.25-0.02c-0.55,0-1.1,0.01-1.65,0.01C61.53,29.18,61.1,29.34,60.69,29.34z"/>
	<path class="st0" d="M75.46,68.55c-0.12-0.11-0.23-0.22-0.35-0.33c1.04-0.85,2.14-1.58,3.57-1.75
		C77.61,67.17,76.53,67.86,75.46,68.55z"/>
	<path class="st0" d="M58.29,29.52c-0.17,0.23-0.33,0.46-0.5,0.69c-0.38,0.45-1.72-0.01-1.21,1.27c-0.3-0.02-0.5-0.21-0.7-0.4
		c-0.19-0.19-0.49-0.38-0.32-0.67c0.09-0.16,0.43-0.32,0.6-0.27C57.02,30.39,57.61,29.82,58.29,29.52z"/>
	<path class="st0" d="M28.58,15.77c-0.01-0.1-0.03-0.2-0.04-0.3c0.45-0.57,0.75-1.28,1.43-1.65C30.19,14.96,29.66,15.56,28.58,15.77
		z"/>
	<path class="st0" d="M80.6,17.89c-0.08,0.13-0.17,0.26-0.25,0.39c-0.16,0.26-0.28,0.63-0.69,0.46c-0.16-0.06-0.32-0.26-0.36-0.42
		c-0.09-0.38,0.15-0.57,0.49-0.69c0.14-0.05,0.26-0.15,0.39-0.23C80.49,17.42,80.5,17.7,80.6,17.89z"/>
	<path class="st0" d="M104.4,58.78c-0.27,0-0.55,0-0.82,0.01c-0.77-0.28-1.45,0.24-2.19,0.24c1.2-0.72,2.52-0.72,3.86-0.7
		C105.01,58.55,104.57,58.42,104.4,58.78z"/>
	<path class="st0" d="M109.45,57.83c-1.69-0.01-3.39-0.02-5.08-0.03C106.06,57.56,107.76,57.39,109.45,57.83z"/>
	<path class="st0" d="M14.53,70.43c-0.23,0.65-0.73,1.08-1.29,1.77c-0.04-0.96,0.45-1.47,0.73-2.05
		C14.01,70.54,14.24,70.55,14.53,70.43z"/>
	<path class="st0" d="M51.41,83.29c1.23-0.63,2.55-0.51,3.86-0.45C53.99,83.11,52.71,83.33,51.41,83.29z"/>
	<path class="st0" d="M34.25,9.78c-0.64,0.55-0.77,1.71-1.94,1.65C32.9,10.82,33.37,10.06,34.25,9.78z"/>
	<path class="st0" d="M56.63,43.78c0.26,0.71,1.14,1.31,0.44,2.21c-0.08-0.09-0.16-0.17-0.25-0.26
		C57.01,45.05,56.49,44.45,56.63,43.78z"/>
	<path class="st0" d="M23.79,29.53c0.06-1.03,0.24-2.02,0.92-2.85C24.48,27.65,24.32,28.65,23.79,29.53z"/>
	<path class="st0" d="M42.6,28.84c-0.25,0.46-1.14-0.19-1.16,0.67c-0.37-0.11-0.62-0.5-1.05-0.49c0.38-0.26,0.81-0.37,1.26-0.43
		C41.89,28.97,42.29,28.75,42.6,28.84z"/>
	<path class="st0" d="M109.73,65.48c-0.1-0.1-0.2-0.21-0.3-0.31c0.28-0.46,0.59-0.89,1.18-1.16
		C110.69,64.79,110.09,65.06,109.73,65.48z"/>
	<path class="st0" d="M53.98,50.18c0.07,0.26,0.29,0.24,0.49,0.26c-0.29,0.59-0.94,0.46-1.68,0.88
		C53.17,50.62,53.47,50.3,53.98,50.18z"/>
	<path class="st0" d="M70.44,16.69c-0.79,0.78-1.77,0.39-2.68,0.45C68.65,16.99,69.55,16.84,70.44,16.69z"/>
	<path class="st0" d="M51.89,71.86c-0.21,0.43-0.51,0.76-1.06,1.01c-0.03-0.67,0.16-1.14,0.53-1.56
		C51.4,71.62,51.53,71.85,51.89,71.86z"/>
	<path class="st0" d="M98.73,68.28c0.18-0.28,0.28-0.63,0.71-0.77c0.03,0.67,0.06,1.3,0.09,1.93
		C98.93,69.28,99.49,68.33,98.73,68.28z"/>
	<path class="st0" d="M24.3,79.26c-0.1-0.1-0.2-0.2-0.29-0.3c0.33-0.3,0.66-0.61,1.24-1.14C25.11,78.72,24.71,79,24.3,79.26z"/>
	<path class="st0" d="M52.82,82.34c-0.62,0.64-1.41,0.45-2.17,0.43C51.34,82.43,52.1,82.47,52.82,82.34z"/>
	<path class="st0" d="M93.42,68.49c-0.64,0.56-1.28,1.19-2.26,1.03c0,0,0,0,0,0c0.07,0.29,0.78,0.08,0.51,0.56
		c-0.16,0.28-0.55,0.43-0.93,0.24c-0.31-0.15-0.47-0.7-0.97-0.38c0.52,0.94,1.26,0.92,2.12,0.5c1.56-0.76,2.63-2.11,3.93-3.37
		c-0.05,0.58-0.09,1-0.12,1.42c0.74-0.72,0.43-1.53,0.21-2.34C95.07,66.95,94.28,67.75,93.42,68.49z"/>
	<path class="st0" d="M109.43,65.17c-1.08,1.1-2.14,2.22-3.49,3.02c-0.23,0.14-0.49,0.33-0.77,0.15c-0.35-0.22-0.24-0.57-0.14-0.86
		c0.68-2.03,1.84-3.76,3.49-5.14c0.19-0.16,0.42-0.39,0.76-0.18c0.06,0.53-0.5,0.99-0.21,1.66c0.65-0.69,1.47-1.31,0.87-2.31
		c-0.62-1.02-1.52-0.55-2.3-0.11c-1.2,0.67-2.1,1.65-2.89,2.77c-1.03,1.47-2.12,2.9-3.59,4.01c0.49-1.68,0.92-3.43,2.13-4.67
		c0.89-0.91,0.18-1.15-0.3-1.47c-0.66-0.44-0.93,0.24-1.14,0.65c-0.99,1.86-2.1,3.63-3.57,5.15c-0.28,0.29-0.47,0.71-1.11,0.65
		c1.22-3.31,2.41-6.53,4.22-9.47c1.21-0.65,2.62-0.2,3.86-0.7c1.41-0.06,2.84-0.04,4.2-0.5c-1.69-0.21-3.39-0.15-5.08-0.03
		c-0.79-0.16-1.56,0.22-2.42,0.16c0.38-0.91,0.72-1.74,1.47-2.24c0.55-0.37,0.24-0.56-0.06-0.77c-0.57-0.39-1.1-0.35-1.58,0.19
		c-0.62,0.68-1.07,1.47-1.46,2.29c-0.4,0.84-0.99,1.22-1.97,1.18c-1.3-0.06-2.61,0.04-3.92,0.04c-0.71,0-1.78,0.52-2.04-0.1
		c-0.26-0.61,0.52-1.4,1.15-1.91c0.57-0.47,0.26-0.77-0.22-0.92c-0.54-0.17-1.11-0.21-1.49,0.37c-0.34,0.53-0.68,1.06-0.99,1.61
		c-0.53,0.94-1.03,1.81-2.28,1.99c-0.63,0.09-1.3,0.36-1.79,0.87c-0.52,0.53-0.49,1.1,0.02,1.56c0.61,0.56,0.65-0.25,0.92-0.48
		c0.3-0.24,0.54-0.7,0.98-0.41c0.38,0.25-0.1,0.54-0.12,0.83c-0.03,0.3-0.22,0.58-0.35,0.87c-0.92,2.1-1.89,4.18-2.39,6.44
		c-0.17,0.78,0.19,1.23,0.77,1.55c0.58,0.32,0.96-0.14,1.3-0.53c0.51-0.57,0.99-1.16,1.51-1.76c0.26,0.48-0.04,1,0.4,1.31
		c0.26,0.1,0.5,0.24,0.72,0.41c0.47,0.36,0.92,0.2,1.3-0.11c0.5-0.4-0.13-0.66-0.2-1c-0.09-0.89,0.53-1.23,1.19-1.57
		c1.4-0.72,2.51-1.79,3.38-3.09c0.45-0.68,0.77-1.46,0.12-2.19c-0.64-0.71-1.44-0.51-2.19-0.16c-1.45,0.67-2.44,1.85-3.37,3.09
		c-0.91,1.21-1.73,2.5-2.91,3.62c0.75-2.21,1.78-4.19,2.51-6.27c0.85-2.41,2.6-3.08,4.85-3.14c0.31-0.01,0.62-0.12,1,0.05
		c-0.26,0.64-0.38,1.3,0.3,1.78c0.83,0.59,1.15-0.38,1.82-0.78c-0.77,2.06-1.57,3.86-2.56,5.57c0.18,0.78,0.47,1.56-0.02,2.33
		c-0.24,0.74,0.1,1.25,0.71,1.57c0.59,0.31,0.95-0.18,1.29-0.55c0.37-0.39,0.7-0.83,1.04-1.25c0.21-0.04,0.48-0.56,0.61,0.1
		c0.07,0.35-0.16,0.77,0.19,1.07c0.53,0.64,1.08,0.54,1.6,0c0.7-0.73,1.37-1.48,2.1-2.27c0.14,2.83,1.87,2.72,3.37,1.52
		c1.18-0.94,2.23-2,3.13-3.21C109.79,65.22,109.69,65.12,109.43,65.17z M95.44,63.18c-0.74,1.54-1.7,2.89-3.27,3.72
		C92.93,65.37,93.87,64,95.44,63.18z"/>
	<path class="st0" d="M78.22,15.86c0.35,0.27,0.76,0.5,0.74,1c-0.01,0.31-0.26,0.56-0.56,0.48c-0.54-0.14-0.33-0.72-0.51-1.09
		C77.81,16.07,77.99,15.91,78.22,15.86z"/>
	<path class="st0" d="M41.36,19.52c1.74-0.01,3.48,0.17,5.21-0.17c0.33-0.07,0.72-0.16,0.99,0.19c-0.97,0.67-2.23,0.37-3.23,1
		c-0.73,0.46-1.35,0.95-1.53,1.84c-0.57,0.82-0.42,1.73-0.37,2.63c0.04,0.71,0.08,1.42,0.13,2.12c-0.35,0.48-0.83,0.65-1.4,0.77
		c-1.17,0.25-2.27,0.68-3.14,1.55c-0.16,0.16-0.34,0.45-0.56,0.33c-0.29-0.16-0.36-0.54-0.28-0.85c0.21-0.84,0.83-1.32,1.58-1.64
		c2.34-0.99,2.61-1.79,1.33-3.94c-0.08-0.14-0.16-0.28-0.24-0.41C38.81,21.33,38.73,20.28,41.36,19.52z"/>
</g>
</svg>
