<?xml version="1.0" encoding="utf-8"?>
<!-- Generator: Adobe Illustrator 24.3.0, SVG Export Plug-In . SVG Version: 6.00 Build 0)  -->
<svg version="1.1" id="Capa_1" xmlns="http://www.w3.org/2000/svg" xmlns:xlink="http://www.w3.org/1999/xlink" x="0px" y="0px"
	 viewBox="0 0 75.74 69.44" style="enable-background:new 0 0 75.74 69.44;" xml:space="preserve">
<style type="text/css">
	.st0{fill:#FFFFFF;}
</style>
<g>
	<path class="st0" d="M45.33,2.21c0,1.49,0.03,2.99,0,4.48c-0.01,0.42,0.11,1.28-0.74,0.46C44.05,3.2,44.05,3.2,40.06,3.2
		c-5.99,0-11.98,0.01-17.97-0.01c-0.94,0-1.93,0.16-2.74-0.55c-0.03-0.14-0.05-0.28-0.08-0.42C27.97,2.21,36.65,2.21,45.33,2.21z"/>
	<path class="st0" d="M27.69,43.09c0-3.63,0.02-6.81-0.02-9.99c-0.01-0.78,0.27-1.3,0.81-1.82c8.11-7.93,16.21-15.87,24.3-23.82
		c1.1-1.08,2.42-1.68,3.94-1.71c3-0.05,6-0.03,9-0.02c0.42,0,1-0.16,1.1,0.45c0.11,0.68-0.5,0.58-0.91,0.64
		c-1.66,0.26-2.88,1.23-4.03,2.38C51.08,19.94,40.27,30.67,29.47,41.4C28.98,41.88,28.48,42.34,27.69,43.09z"/>
	<path class="st0" d="M73.6,46.9c-0.21,0.78-0.5,0.77-0.73,0.77c-5.36,0.01-10.72,0.01-16.07,0c-1.08,0-1.95-0.52-2.7-1.26
		c-4.06-4.05-8.09-8.13-12.19-12.13c-0.86-0.83-0.61-1.24,0.11-1.92c1.89-1.8,3.77-3.62,5.55-5.53c0.8-0.86,1.23-0.85,2.07-0.01
		c4.95,4.97,9.94,9.88,14.95,14.78C67.14,44.1,69.29,47.29,73.6,46.9z"/>
	<path class="st0" d="M19.36,2.63c7.95-0.01,15.89,0.01,23.84-0.07c1.49-0.02,1.96,0.5,1.75,1.87c-0.14,0.91,0.35,1.9-0.37,2.73
		c-1.62-1.91-3.57-2.94-6.19-2.73c-1.14,0.09-1.52,0.34-1.5,1.52c0.07,4.13,0.01,8.27,0.04,12.4c0.01,0.86-0.15,1.55-0.81,2.21
		c-2.63,2.68-5.19,5.43-7.73,8.12c-0.99-0.69-0.68-1.31-0.68-1.81c-0.03-6.8-0.07-13.61,0.02-20.41c0.02-1.54-0.3-2.06-1.95-2.03
		c-2.6,0.05-4.44,1.32-6.27,3.23C19.14,5.84,19.31,4.24,19.36,2.63z"/>
	<path class="st0" d="M55.27,52.45c-0.94,0.96-2.16,1.35-3.29,1.86c-9.98,4.51-20.32,6.6-31.25,4.43c-2.26-0.45-4.43-1.19-6.5-2.18
		C4.71,52.02,1.24,42.81,5.72,33.3c3.9-8.27,10.81-13.5,18.78-17.52c0.33-0.16,0.74-0.44,0.97,0.04c0.17,0.35,0.05,0.75-0.35,0.98
		c-0.44,0.25-0.89,0.49-1.33,0.75c-5.97,3.47-11.21,7.74-14.91,13.68c-1.53,2.46-2.66,5.08-3.02,7.96
		c-0.76,6.1,1.59,10.81,6.61,14.23c4.39,2.99,9.38,4.2,14.6,4.56c9.24,0.63,17.98-1.31,26.35-5.15
		C53.97,52.58,54.46,51.99,55.27,52.45z"/>
	<path class="st0" d="M36.92,38.01c0,3.11,0.02,6.21-0.01,9.32c-0.01,1.11-0.01,2.09,1.55,1.91c0.46-0.06,0.95,0.03,0.89,0.67
		c-0.07,0.66-0.64,0.5-1.04,0.5c-3.94,0.01-7.88,0.01-11.83,0c-0.4,0-0.98,0.18-1.06-0.48c-0.1-0.82,0.56-0.71,1.03-0.69
		c0.9,0.03,1.35-0.39,1.22-1.26c-0.18-1.17,0.5-1.86,1.24-2.6c2.53-2.55,5.02-5.14,7.53-7.72C36.6,37.78,36.76,37.9,36.92,38.01z"/>
</g>
<g>
	<path class="st0" d="M7.79,61.88v4.04H7.26v-4.04H7.79z"/>
	<path class="st0" d="M8.74,63.81c0-0.31-0.01-0.54-0.02-0.79h0.47l0.03,0.48h0.01c0.14-0.27,0.48-0.54,0.96-0.54
		c0.4,0,1.03,0.24,1.03,1.24v1.73h-0.53v-1.67c0-0.47-0.17-0.86-0.67-0.86c-0.34,0-0.61,0.25-0.71,0.54
		C9.28,64,9.27,64.09,9.27,64.18v1.75H8.74V63.81z"/>
	<path class="st0" d="M14.55,65.5c0,0.67-0.14,1.07-0.41,1.33c-0.29,0.26-0.7,0.35-1.06,0.35c-0.35,0-0.73-0.08-0.97-0.24l0.13-0.41
		c0.19,0.13,0.49,0.23,0.85,0.23c0.54,0,0.94-0.28,0.94-1.02v-0.32h-0.01c-0.16,0.27-0.47,0.49-0.92,0.49
		c-0.72,0-1.24-0.61-1.24-1.42c0-0.98,0.64-1.54,1.31-1.54c0.5,0,0.77,0.26,0.91,0.5h0.01l0.02-0.44h0.47
		c-0.02,0.2-0.02,0.44-0.02,0.79V65.5z M14.02,64.17c0-0.09-0.01-0.17-0.03-0.23c-0.1-0.31-0.35-0.56-0.74-0.56
		c-0.5,0-0.86,0.43-0.86,1.1c0,0.57,0.29,1.04,0.86,1.04c0.33,0,0.62-0.2,0.73-0.54c0.03-0.09,0.04-0.19,0.04-0.28V64.17z"/>
	<path class="st0" d="M15.72,64.57c0.01,0.71,0.46,1.01,1,1.01c0.38,0,0.61-0.07,0.8-0.15l0.1,0.38c-0.19,0.08-0.51,0.19-0.97,0.19
		c-0.89,0-1.43-0.59-1.43-1.47c0-0.88,0.52-1.56,1.36-1.56c0.95,0,1.2,0.83,1.2,1.36c0,0.11-0.01,0.19-0.02,0.25H15.72z
		 M17.26,64.19c0.01-0.33-0.14-0.85-0.73-0.85c-0.54,0-0.77,0.49-0.81,0.85H17.26z"/>
	<path class="st0" d="M18.43,63.81c0-0.31-0.01-0.54-0.02-0.79h0.47l0.03,0.48h0.01c0.14-0.27,0.48-0.54,0.96-0.54
		c0.4,0,1.03,0.24,1.03,1.24v1.73h-0.53v-1.67c0-0.47-0.17-0.86-0.67-0.86c-0.34,0-0.61,0.25-0.71,0.54
		c-0.02,0.07-0.04,0.16-0.04,0.25v1.75h-0.53V63.81z"/>
	<path class="st0" d="M22.35,62.21c0,0.18-0.13,0.32-0.34,0.32c-0.19,0-0.32-0.14-0.32-0.32s0.13-0.33,0.33-0.33
		C22.22,61.88,22.35,62.02,22.35,62.21z M21.76,65.93v-2.9h0.53v2.9H21.76z"/>
	<path class="st0" d="M23.46,64.57c0.01,0.71,0.46,1.01,1,1.01c0.38,0,0.61-0.07,0.8-0.15l0.1,0.38c-0.19,0.08-0.51,0.19-0.97,0.19
		c-0.89,0-1.43-0.59-1.43-1.47c0-0.88,0.52-1.56,1.36-1.56c0.95,0,1.2,0.83,1.2,1.36c0,0.11-0.01,0.19-0.02,0.25H23.46z M25,64.19
		c0.01-0.33-0.14-0.85-0.73-0.85c-0.54,0-0.77,0.49-0.81,0.85H25z"/>
	<path class="st0" d="M26.17,63.93c0-0.34-0.01-0.64-0.02-0.91h0.46l0.02,0.58h0.02c0.13-0.39,0.46-0.63,0.81-0.63
		c0.05,0,0.1,0.01,0.14,0.01v0.5c-0.05-0.01-0.11-0.01-0.18-0.01c-0.37,0-0.64,0.28-0.71,0.67c-0.01,0.07-0.02,0.16-0.02,0.25v1.55
		h-0.53V63.93z"/>
	<path class="st0" d="M29.23,61.77l-0.73,0.86h-0.37l0.53-0.86H29.23z M28.16,65.93v-2.9h0.53v2.9H28.16z"/>
	<path class="st0" d="M31.6,65.23c0,0.25,0.01,0.5,0.04,0.7h-0.47l-0.04-0.37h-0.02c-0.16,0.23-0.47,0.43-0.89,0.43
		c-0.59,0-0.89-0.41-0.89-0.83c0-0.7,0.62-1.08,1.75-1.08v-0.06c0-0.23-0.07-0.67-0.66-0.67c-0.28,0-0.56,0.08-0.76,0.22l-0.12-0.35
		c0.24-0.15,0.59-0.25,0.96-0.25c0.89,0,1.1,0.61,1.1,1.18V65.23z M31.09,64.44c-0.58-0.01-1.23,0.09-1.23,0.65
		c0,0.35,0.23,0.5,0.49,0.5c0.38,0,0.63-0.24,0.71-0.49c0.02-0.06,0.02-0.12,0.02-0.17V64.44z"/>
	<path class="st0" d="M33.72,63.97c0-0.37-0.01-0.67-0.02-0.95h0.47l0.03,0.5h0.01c0.21-0.35,0.56-0.56,1.03-0.56
		c0.71,0,1.24,0.59,1.24,1.47c0,1.04-0.64,1.56-1.33,1.56c-0.38,0-0.72-0.17-0.89-0.46h-0.01v1.58h-0.52V63.97z M34.25,64.74
		c0,0.08,0.01,0.15,0.02,0.22c0.1,0.37,0.41,0.62,0.79,0.62c0.56,0,0.88-0.46,0.88-1.12c0-0.58-0.31-1.07-0.86-1.07
		c-0.36,0-0.7,0.25-0.8,0.65c-0.02,0.07-0.04,0.14-0.04,0.21V64.74z"/>
	<path class="st0" d="M39.18,65.23c0,0.25,0.01,0.5,0.04,0.7h-0.47l-0.04-0.37h-0.02c-0.16,0.23-0.47,0.43-0.89,0.43
		c-0.59,0-0.89-0.41-0.89-0.83c0-0.7,0.62-1.08,1.75-1.08v-0.06c0-0.23-0.07-0.67-0.66-0.67c-0.28,0-0.56,0.08-0.76,0.22l-0.12-0.35
		c0.24-0.15,0.59-0.25,0.96-0.25c0.89,0,1.1,0.61,1.1,1.18V65.23z M38.67,64.44c-0.58-0.01-1.23,0.09-1.23,0.65
		c0,0.35,0.23,0.5,0.49,0.5c0.38,0,0.63-0.24,0.71-0.49c0.02-0.06,0.02-0.12,0.02-0.17V64.44z"/>
	<path class="st0" d="M40.03,63.93c0-0.34-0.01-0.64-0.02-0.91h0.46l0.02,0.58h0.02c0.13-0.39,0.46-0.63,0.81-0.63
		c0.05,0,0.1,0.01,0.14,0.01v0.5c-0.05-0.01-0.11-0.01-0.18-0.01c-0.37,0-0.64,0.28-0.71,0.67c-0.01,0.07-0.02,0.16-0.02,0.25v1.55
		h-0.53V63.93z"/>
	<path class="st0" d="M44,65.23c0,0.25,0.01,0.5,0.04,0.7h-0.47l-0.04-0.37h-0.02c-0.16,0.23-0.47,0.43-0.89,0.43
		c-0.59,0-0.89-0.41-0.89-0.83c0-0.7,0.62-1.08,1.75-1.08v-0.06c0-0.23-0.07-0.67-0.66-0.67c-0.28,0-0.56,0.08-0.76,0.22l-0.12-0.35
		c0.24-0.15,0.59-0.25,0.96-0.25c0.89,0,1.1,0.61,1.1,1.18V65.23z M43.49,64.44c-0.58-0.01-1.23,0.09-1.23,0.65
		c0,0.35,0.23,0.5,0.49,0.5c0.38,0,0.63-0.24,0.71-0.49c0.02-0.06,0.02-0.12,0.02-0.17V64.44z"/>
	<path class="st0" d="M46.12,61.67h0.53v4.26h-0.53V61.67z"/>
	<path class="st0" d="M49.58,65.23c0,0.25,0.01,0.5,0.04,0.7h-0.47l-0.04-0.37h-0.02c-0.16,0.23-0.47,0.43-0.89,0.43
		c-0.59,0-0.89-0.41-0.89-0.83c0-0.7,0.62-1.08,1.75-1.08v-0.06c0-0.23-0.07-0.67-0.66-0.67c-0.28,0-0.56,0.08-0.76,0.22l-0.12-0.35
		c0.24-0.15,0.59-0.25,0.96-0.25c0.89,0,1.1,0.61,1.1,1.18V65.23z M49.07,64.44c-0.58-0.01-1.23,0.09-1.23,0.65
		c0,0.35,0.23,0.5,0.49,0.5c0.38,0,0.63-0.24,0.71-0.49c0.02-0.06,0.02-0.12,0.02-0.17V64.44z"/>
	<path class="st0" d="M52,64.57c0.01,0.71,0.46,1.01,1,1.01c0.38,0,0.61-0.07,0.8-0.15l0.1,0.38c-0.19,0.08-0.51,0.19-0.97,0.19
		c-0.89,0-1.43-0.59-1.43-1.47c0-0.88,0.52-1.56,1.36-1.56c0.95,0,1.2,0.83,1.2,1.36c0,0.11-0.01,0.19-0.02,0.25H52z M53.55,64.19
		c0.01-0.33-0.14-0.85-0.73-0.85c-0.54,0-0.77,0.49-0.81,0.85H53.55z"/>
	<path class="st0" d="M54.64,65.39c0.16,0.1,0.44,0.2,0.7,0.2c0.38,0,0.56-0.19,0.56-0.43c0-0.25-0.15-0.38-0.53-0.53
		c-0.53-0.19-0.77-0.47-0.77-0.82c0-0.47,0.38-0.85,1-0.85c0.29,0,0.55,0.08,0.71,0.18l-0.13,0.38c-0.11-0.07-0.32-0.17-0.59-0.17
		c-0.31,0-0.48,0.18-0.48,0.4c0,0.24,0.17,0.35,0.55,0.5c0.5,0.19,0.76,0.44,0.76,0.87c0,0.52-0.4,0.88-1.08,0.88
		c-0.32,0-0.61-0.08-0.82-0.2L54.64,65.39z"/>
	<path class="st0" d="M57.72,62.33v0.7h0.76v0.4h-0.76v1.57c0,0.36,0.1,0.56,0.4,0.56c0.14,0,0.23-0.01,0.31-0.04l0.02,0.4
		c-0.1,0.04-0.26,0.07-0.47,0.07c-0.25,0-0.44-0.08-0.57-0.22c-0.14-0.16-0.2-0.42-0.2-0.76v-1.58h-0.45v-0.4h0.45v-0.54
		L57.72,62.33z"/>
	<path class="st0" d="M59.33,64.57c0.01,0.71,0.46,1.01,1,1.01c0.38,0,0.61-0.07,0.8-0.15l0.1,0.38c-0.19,0.08-0.51,0.19-0.97,0.19
		c-0.89,0-1.43-0.59-1.43-1.47c0-0.88,0.52-1.56,1.36-1.56c0.95,0,1.2,0.83,1.2,1.36c0,0.11-0.01,0.19-0.02,0.25H59.33z
		 M60.88,64.19c0.01-0.33-0.14-0.85-0.73-0.85c-0.54,0-0.77,0.49-0.81,0.85H60.88z M61,61.77l-0.73,0.86h-0.37l0.53-0.86H61z"/>
	<path class="st0" d="M62.68,62.33v0.7h0.76v0.4h-0.76v1.57c0,0.36,0.1,0.56,0.4,0.56c0.14,0,0.23-0.01,0.31-0.04l0.02,0.4
		c-0.1,0.04-0.26,0.07-0.47,0.07c-0.25,0-0.44-0.08-0.57-0.22c-0.14-0.16-0.2-0.42-0.2-0.76v-1.58h-0.45v-0.4h0.45v-0.54
		L62.68,62.33z"/>
	<path class="st0" d="M64.62,62.21c0,0.18-0.13,0.32-0.34,0.32c-0.19,0-0.32-0.14-0.32-0.32s0.13-0.33,0.33-0.33
		C64.48,61.88,64.62,62.02,64.62,62.21z M64.03,65.93v-2.9h0.53v2.9H64.03z"/>
	<path class="st0" d="M67.5,65.82c-0.14,0.07-0.44,0.17-0.83,0.17c-0.88,0-1.45-0.59-1.45-1.48c0-0.89,0.61-1.55,1.56-1.55
		c0.31,0,0.59,0.08,0.73,0.16l-0.12,0.4c-0.13-0.07-0.32-0.14-0.61-0.14c-0.67,0-1.03,0.5-1.03,1.1c0,0.67,0.43,1.09,1.01,1.09
		c0.3,0,0.5-0.07,0.65-0.14L67.5,65.82z"/>
	<path class="st0" d="M70.16,65.23c0,0.25,0.01,0.5,0.04,0.7h-0.47l-0.04-0.37h-0.02c-0.16,0.23-0.47,0.43-0.89,0.43
		c-0.59,0-0.89-0.41-0.89-0.83c0-0.7,0.62-1.08,1.75-1.08v-0.06c0-0.23-0.07-0.67-0.66-0.67c-0.28,0-0.56,0.08-0.76,0.22l-0.12-0.35
		c0.24-0.15,0.59-0.25,0.96-0.25c0.89,0,1.1,0.61,1.1,1.18V65.23z M69.65,64.44c-0.58-0.01-1.23,0.09-1.23,0.65
		c0,0.35,0.23,0.5,0.49,0.5c0.38,0,0.63-0.24,0.71-0.49c0.02-0.06,0.02-0.12,0.02-0.17V64.44z"/>
</g>
</svg>
