<?xml version="1.0" encoding="utf-8"?>
<!-- Generator: Adobe Illustrator 24.3.0, SVG Export Plug-In . SVG Version: 6.00 Build 0)  -->
<svg version="1.1" id="Capa_1" xmlns="http://www.w3.org/2000/svg" xmlns:xlink="http://www.w3.org/1999/xlink" x="0px" y="0px"
	 viewBox="0 0 300 41" style="enable-background:new 0 0 300 41;" xml:space="preserve">
<style type="text/css">
	.st0{fill:#58B95D;}
	.st1{fill:#1BB2AA;}
	.st2{fill:none;}
</style>
<g>
	<path d="M58.6,16.6l0.09-0.32l0.37-0.4c0.02-0.02,0.03-0.04,0.03-0.06v-0.09c0-0.15,0.15-0.31,0.45-0.48
		c0.02-0.24,0.19-0.42,0.5-0.54l0.07-0.06v-0.12c0-0.15,0.1-0.24,0.31-0.29s0.37-0.14,0.49-0.28c0.18-0.04,0.45-0.25,0.83-0.63
		c0.04-0.08,0.09-0.12,0.15-0.12l0.34-0.03c0.28-0.3,0.46-0.46,0.54-0.47s0.16-0.04,0.25-0.1s0.22-0.1,0.38-0.13
		c0.05-0.07,0.4-0.27,1.04-0.6h0.31c0.04,0,0.1-0.04,0.2-0.12c0.09-0.08,0.23-0.13,0.42-0.16s0.44-0.1,0.76-0.2s0.57-0.17,0.77-0.21
		l0.28-0.15h0.45l0.15-0.12l0.92-0.12l0.94-0.22l0.26,0.03l0.19-0.03l0.32,0.07c0.04,0,0.1-0.02,0.2-0.07s0.18-0.07,0.26-0.07
		c0.29,0,0.56,0.03,0.8,0.1c0.24,0.07,0.42,0.11,0.55,0.12s0.23,0.04,0.31,0.08c0.08,0.04,0.13,0.06,0.15,0.06l0.38-0.03
		c0.02,0,0.06,0.03,0.12,0.1s0.15,0.12,0.27,0.16h0.26c0.02,0.02,0.05,0.03,0.09,0.03c0.12,0.1,0.33,0.22,0.63,0.37
		c0.21,0.17,0.33,0.25,0.34,0.26c0.08-0.03,0.38,0.18,0.91,0.62c0.53,0.44,0.86,0.78,1.01,1.01l0.31,0.4l0.15,0.38l0.15,0.25
		c0.16,0.4,0.3,0.87,0.43,1.41l0.12,0.29c0.02,0.02,0.03,0.06,0.03,0.13l-0.09,0.41l0.12,0.54c0,0.12-0.04,0.29-0.12,0.51
		c0.04,0.1,0.06,0.16,0.06,0.18s-0.04,0.17-0.12,0.46c-0.08,0.29-0.12,0.46-0.12,0.51l0.06,0.29c0,0.04-0.04,0.1-0.12,0.18
		s-0.12,0.14-0.12,0.18c0,0.13-0.03,0.25-0.1,0.37c-0.07,0.12-0.11,0.2-0.13,0.23l-0.25,0.41c-0.04,0.15-0.09,0.23-0.15,0.25
		s-0.09,0.09-0.09,0.21c-0.02,0.02-0.09,0.08-0.21,0.18l-0.15,0.22l-0.6,0.63c-0.06,0.21-0.29,0.46-0.7,0.75l-0.18,0.18
		c-0.53,0.43-0.85,0.68-0.97,0.76s-0.21,0.17-0.29,0.26s-0.21,0.2-0.38,0.29c-0.03,0.05-0.15,0.15-0.37,0.31l-0.21-0.03
		c-0.07,0.12-0.15,0.2-0.25,0.25c-0.1,0.05-0.17,0.09-0.22,0.13s-0.08,0.06-0.1,0.06s-0.06-0.01-0.13-0.03
		c-0.1,0.15-0.23,0.25-0.4,0.32s-0.3,0.13-0.39,0.19s-0.14,0.09-0.16,0.09l-0.23-0.09c0,0.21-0.08,0.33-0.23,0.35
		s-0.29,0.06-0.4,0.13l-0.31-0.03c-0.36,0.36-0.88,0.54-1.55,0.54c-0.13,0.16-0.21,0.23-0.25,0.23l-0.26-0.06
		c-0.08,0.04-0.15,0.06-0.21,0.06c-0.05,0-0.23,0.05-0.54,0.15c-0.12-0.08-0.26-0.12-0.42-0.12l0.03,0.25c0,0.1-0.13,0.15-0.4,0.15
		c-0.1,0-0.21-0.03-0.32-0.09c-0.12,0.04-0.19,0.06-0.22,0.06c-0.06,0-0.1-0.04-0.13-0.11c-0.03-0.07-0.05-0.11-0.07-0.11
		c-0.2,0.32-0.54,0.48-1.03,0.48c-0.05,0-0.33,0.06-0.84,0.19l-0.18,0.03c-0.04,0-0.08-0.01-0.12-0.03l-0.25-0.03
		c-0.04,0-0.12-0.02-0.23-0.07c-0.06,0.11-0.11,0.16-0.15,0.16c-0.19,0-0.42,0.03-0.69,0.09c-0.09-0.05-0.29-0.08-0.61-0.11
		s-0.52-0.08-0.59-0.17h-0.03c-0.02,0-0.05,0.01-0.1,0.03h-0.06c-0.04,0-0.09-0.01-0.15-0.04s-0.15-0.05-0.29-0.07
		s-0.27-0.12-0.4-0.32c-0.14-0.19-0.21-0.35-0.21-0.49c0-0.19,0.08-0.36,0.23-0.51s0.32-0.23,0.48-0.23c0.08,0,0.19,0.03,0.32,0.09
		h0.16L61,25.9l0.09-0.03c-0.04-0.14-0.06-0.21-0.06-0.22c0-0.29,0.1-0.54,0.31-0.75l0.21-0.57c0.02-0.04,0.08-0.09,0.18-0.16
		s0.15-0.16,0.15-0.28L62,23.58l0.03-0.21l0.15-0.21c0.08-0.11,0.13-0.21,0.15-0.31s0.09-0.17,0.21-0.21c0-0.21,0.07-0.37,0.21-0.5
		c0.14-0.13,0.21-0.22,0.21-0.29c0-0.2,0.07-0.3,0.21-0.32c0.05-0.04,0.07-0.08,0.07-0.12s-0.02-0.1-0.07-0.19
		c0.07-0.2,0.16-0.3,0.29-0.32c0.12-0.02,0.2-0.04,0.23-0.06c-0.08-0.02-0.12-0.07-0.12-0.15c0-0.09,0.03-0.17,0.09-0.25l0.15-0.38
		c0.05-0.13,0.17-0.25,0.37-0.37c-0.06-0.06-0.09-0.11-0.09-0.15c0-0.02,0.03-0.06,0.09-0.12l0.21,0.06c0-0.02,0.01-0.03,0.03-0.03
		l0.03-0.34l-0.03-0.21c0-0.02,0.11-0.08,0.34-0.19l0.06-0.15c-0.14,0-0.27-0.02-0.4-0.06c-0.19,0.08-0.32,0.15-0.41,0.21
		c-0.02,0.03-0.1,0.04-0.25,0.04h-0.09c-0.02,0-0.11-0.02-0.26-0.07c-0.04,0.02-0.08,0.07-0.12,0.14c-0.04,0.07-0.08,0.11-0.1,0.11
		l-0.44-0.15c-0.04,0-0.11,0.05-0.23,0.16c-0.11,0.11-0.22,0.16-0.31,0.16c-0.05,0-0.13-0.03-0.25-0.09
		c-0.08,0.06-0.26,0.09-0.56,0.09c-0.13,0-0.26,0.03-0.4,0.09l-0.23-0.03l-0.19,0.03c-0.04,0-0.19-0.09-0.44-0.26
		c-0.15,0.04-0.24,0.06-0.28,0.06l-0.23-0.12c-0.16-0.08-0.28-0.12-0.37-0.13s-0.18-0.03-0.26-0.07s-0.13-0.06-0.14-0.07
		c-0.01,0-0.05-0.05-0.13-0.14s-0.17-0.15-0.26-0.19s-0.15-0.12-0.15-0.25l-0.06-0.66c0-0.06,0.02-0.14,0.07-0.23
		s0.07-0.19,0.07-0.26C58.37,16.78,58.44,16.67,58.6,16.6z M62.09,18.06h0.06c0.16,0,0.23,0.06,0.23,0.19
		c0,0.04-0.02,0.09-0.06,0.15c0.04,0.02,0.07,0.03,0.09,0.03c0.04,0,0.11-0.08,0.21-0.23c0.1-0.15,0.35-0.23,0.76-0.23
		c0.02,0,0.04,0.01,0.07,0.03s0.05,0.03,0.07,0.03s0.06-0.03,0.13-0.09s0.12-0.09,0.16-0.09l0.66-0.15c0.62-0.1,0.94-0.22,0.94-0.37
		l-0.03-0.21c0.04-0.08,0.13-0.2,0.27-0.36s0.21-0.33,0.21-0.51l0.09-0.34v-0.15c0-0.26,0.18-0.42,0.54-0.48v-0.03l-0.15-0.45
		l0.03-0.06c0.14-0.07,0.21-0.12,0.21-0.15c0-0.02-0.05-0.08-0.14-0.18s-0.14-0.4-0.14-0.9c0-0.28,0.16-0.42,0.48-0.42
		c0.42,0,0.8,0.19,1.13,0.56s0.5,0.79,0.5,1.25c0,0.34-0.17,0.85-0.51,1.54l-0.09,0.32h0.23l0.37-0.06l0.26,0.03
		c0.13,0,0.27-0.04,0.44-0.12s0.32-0.13,0.46-0.15c0.14-0.02,0.28-0.08,0.42-0.18c0.28-0.07,0.52-0.12,0.73-0.15
		c0.2-0.03,0.39-0.09,0.56-0.19h0.07c0.02,0,0.06,0.04,0.12,0.12h0.03c0.02,0,0.05-0.01,0.09-0.03c0.06-0.14,0.19-0.24,0.39-0.31
		s0.33-0.15,0.39-0.23l0.25-0.26c0-0.02,0.16-0.12,0.48-0.31c0.32-0.19,0.55-0.29,0.71-0.29c0.3,0,0.48,0.12,0.54,0.35l0.09,0.25
		v0.03c0,0.24-0.19,0.54-0.58,0.89s-0.9,0.61-1.53,0.76c-0.64,0.16-1.02,0.23-1.16,0.23c-0.06,0-0.12-0.05-0.18-0.15l-0.31,0.09
		l-0.09,0.15c0,0.02-0.02,0.03-0.06,0.03l-0.18-0.12h-0.06c-0.1,0.09-0.28,0.18-0.55,0.26s-0.48,0.16-0.62,0.22h-0.29
		c-0.16,0-0.37,0.05-0.64,0.15l-0.26,0.03c-0.34,0.06-0.53,0.1-0.57,0.12s-0.11,0.15-0.22,0.4l-0.37,0.81
		c-0.05,0.12-0.13,0.27-0.25,0.45l-0.22,0.35c-0.02,0-0.03,0.01-0.03,0.03l0.07,0.22v0.03c-0.61,0.81-1.02,1.51-1.25,2.11
		c-0.23,0.6-0.47,1.13-0.74,1.62c-0.27,0.48-0.44,0.82-0.51,1s-0.13,0.33-0.19,0.44s-0.09,0.17-0.09,0.19
		c0,0.05,0.03,0.07,0.09,0.07h0.12c0.11-0.09,0.21-0.14,0.32-0.15c0.11-0.01,0.22-0.02,0.34-0.04l0.16,0.06h0.23
		c0.01,0,0.09-0.05,0.25-0.15l0.12,0.03l0.26-0.03l0.25,0.03c0.02,0,0.05-0.01,0.1-0.04c0.05-0.03,0.11-0.05,0.19-0.06
		c0.08-0.01,0.14-0.03,0.18-0.06c0.04-0.03,0.07-0.04,0.09-0.04l0.13,0.03c0.02,0.02,0.04,0.03,0.06,0.03
		c0.06,0,0.12-0.08,0.18-0.23l0.26,0.09c0-0.15,0.04-0.22,0.13-0.22c0.27,0,0.43-0.01,0.47-0.03l0.16,0.03h0.03
		c0.02,0,0.08-0.03,0.18-0.09l1.6-0.6c0.12-0.02,0.34-0.15,0.66-0.38l0.29-0.13c0.21-0.1,0.34-0.18,0.4-0.23s0.11-0.09,0.15-0.09
		c0.28,0,0.47-0.12,0.57-0.37c0.04-0.02,0.12-0.08,0.23-0.18l0.15-0.03c0.15-0.04,0.31-0.13,0.48-0.26l0.28-0.22
		c0.06-0.06,0.17-0.1,0.32-0.12c0.36-0.44,0.62-0.7,0.78-0.78L74,21.31c0.02-0.17,0.09-0.3,0.21-0.4s0.19-0.21,0.23-0.33
		c0.03-0.12,0.09-0.18,0.17-0.18h0.09c0.04,0,0.06-0.02,0.06-0.06l-0.03-0.26c0-0.17,0.1-0.25,0.29-0.25v-0.09l-0.03-0.23v-0.03
		c0-0.17,0.08-0.27,0.23-0.32s0.23-0.14,0.23-0.28c0-0.11-0.01-0.22-0.04-0.34s-0.04-0.19-0.04-0.21c0-0.19,0.13-0.34,0.4-0.45
		l0.03-0.06c0-0.02-0.04-0.06-0.11-0.12s-0.11-0.12-0.11-0.18c0-0.03,0.02-0.09,0.06-0.19s0.06-0.16,0.06-0.18s-0.02-0.07-0.07-0.15
		s-0.07-0.15-0.07-0.22c0-0.08,0.03-0.18,0.09-0.29s0.09-0.2,0.09-0.23c0-0.09-0.01-0.16-0.03-0.22c-0.12-0.06-0.18-0.13-0.18-0.21
		v-0.06l0.03-0.12l-0.03-0.19l0.06-0.18c-0.06-0.18-0.11-0.35-0.15-0.52s-0.1-0.31-0.2-0.41s-0.14-0.17-0.14-0.21v-0.03l0.07-0.21
		c0-0.02-0.03-0.04-0.1-0.06c-0.5-0.66-1.16-1.17-1.98-1.51c-0.82-0.34-1.24-0.51-1.26-0.51l-0.32,0.03
		c-0.17-0.08-0.26-0.12-0.28-0.12l-0.15,0.03c-0.02,0.02-0.04,0.03-0.06,0.03c-0.04,0-0.13-0.04-0.26-0.12l-0.37,0.03L70,11.7
		c-0.46-0.04-0.83-0.02-1.1,0.06l-1.17,0.19c-0.04,0-0.2,0.05-0.48,0.15c-0.16,0.1-0.48,0.2-0.97,0.29h-0.35
		c-0.02,0-0.08,0.05-0.18,0.15s-0.41,0.22-0.94,0.37c-0.14,0.14-0.25,0.22-0.34,0.24s-0.16,0.06-0.2,0.11s-0.08,0.07-0.12,0.07
		h-0.21c-0.11,0-0.22,0.08-0.35,0.23s-0.42,0.34-0.88,0.54l-0.16,0.15l-0.29,0.16c-0.06,0.02-0.11,0.06-0.15,0.12l-0.06,0.06
		c-0.24,0.07-0.4,0.18-0.47,0.34s-0.16,0.25-0.27,0.28s-0.18,0.1-0.21,0.22s-0.1,0.21-0.22,0.29s-0.31,0.31-0.57,0.68
		s-0.4,0.65-0.4,0.83c0,0.13,0.06,0.31,0.18,0.54s0.29,0.35,0.51,0.35c0.19,0,0.33,0.02,0.42,0.07c0.1,0.04,0.19,0.07,0.26,0.07
		C61.62,18.25,61.89,18.19,62.09,18.06z"/>
	<path d="M78.82,20.8l0.22-0.06l0.09-0.19c0.48-0.28,0.82-0.55,1.03-0.81c0.02-0.04,0.06-0.08,0.13-0.12s0.14-0.11,0.22-0.21
		c0.36-0.36,0.79-0.54,1.29-0.54c0.59,0,0.9,0.36,0.94,1.07l0.09,0.22c0.08,0.14,0.19,0.42,0.33,0.83s0.21,0.68,0.21,0.78
		c0,0.26-0.08,0.53-0.25,0.79c-0.14,0.07-0.46,0.43-0.98,1.1l-0.15,0.1c-0.08,0.18-0.18,0.35-0.31,0.53
		c-0.2,0.07-0.29,0.14-0.29,0.22v0.26c0,0.02-0.02,0.06-0.07,0.12s-0.1,0.17-0.18,0.34l-0.12,0.18c-0.04,0.04-0.08,0.12-0.12,0.24
		s-0.1,0.23-0.17,0.33s-0.11,0.18-0.11,0.23c0,0.15,0.19,0.22,0.57,0.22c0.02,0,0.09-0.03,0.22-0.09l0.21,0.06
		c0.02,0,0.07-0.03,0.15-0.1c0.08-0.06,0.2-0.11,0.36-0.15s0.3-0.1,0.42-0.18s0.27-0.15,0.44-0.21c0.17-0.06,0.33-0.15,0.49-0.29
		c0.16-0.13,0.31-0.23,0.46-0.29s0.29-0.15,0.42-0.27c0.13-0.12,0.28-0.24,0.45-0.34s0.43-0.34,0.79-0.7
		c0.23-0.19,0.4-0.29,0.48-0.31c0.02,0,0.1-0.13,0.26-0.39s0.32-0.39,0.52-0.39c0.21,0,0.31,0.1,0.31,0.29
		c0,0.11-0.05,0.21-0.15,0.31v0.09l0.03,0.23c0.02,0.03,0.03,0.07,0.03,0.13c0,0.04-0.04,0.1-0.11,0.18s-0.12,0.18-0.15,0.3
		s-0.12,0.2-0.28,0.24c-0.06,0.21-0.13,0.34-0.23,0.37s-0.22,0.13-0.39,0.29s-0.4,0.36-0.7,0.59c-0.3,0.22-0.51,0.4-0.62,0.52
		c-0.11,0.12-0.19,0.18-0.23,0.18c-0.02,0-0.06-0.02-0.12-0.06s-0.1-0.06-0.12-0.06c-0.06,0-0.1,0.07-0.12,0.21l-0.06,0.15
		c-0.13,0.08-0.2,0.12-0.22,0.12l-0.09-0.03H83.6c-0.12,0-0.18,0.04-0.18,0.13l0.09,0.15v0.03c0,0.14-0.08,0.21-0.23,0.21
		c-0.11,0-0.42,0.18-0.94,0.54l-0.42,0.09l-0.35,0.19c-0.12-0.07-0.19-0.1-0.22-0.1l-0.23,0.07l-0.42,0.03
		c-0.01,0-0.19-0.1-0.53-0.29c-0.35-0.2-0.55-0.39-0.62-0.59c-0.07-0.2-0.16-0.39-0.26-0.59c-0.11-0.2-0.16-0.34-0.16-0.42
		c0-0.47,0.04-0.8,0.12-1c0.08-0.2,0.13-0.35,0.15-0.45c0.02-0.1,0.08-0.2,0.17-0.32c0.09-0.11,0.17-0.29,0.23-0.55
		c0.28-0.57,0.48-0.91,0.59-1.04c0.11-0.13,0.19-0.28,0.25-0.47l0.19-0.26c0.02-0.02,0.05-0.09,0.09-0.23
		c0.04-0.13,0.09-0.21,0.15-0.23c0.08-0.14,0.12-0.22,0.12-0.26c0-0.28-0.13-0.42-0.38-0.42c-0.05,0-0.1,0.05-0.16,0.15
		c-0.06,0.1-0.19,0.2-0.4,0.3s-0.34,0.17-0.39,0.22c-0.05,0.05-0.15,0.11-0.32,0.18c-0.16,0.07-0.3,0.19-0.42,0.34l-0.25,0.12
		c-0.08,0.19-0.15,0.29-0.21,0.31s-0.24,0.07-0.54,0.15c-0.02,0.01-0.07,0.07-0.15,0.18c-0.08,0.11-0.19,0.16-0.34,0.16
		c-0.12,0.12-0.23,0.25-0.35,0.41c-0.04,0-0.14,0.04-0.31,0.12l-0.29,0.07c-0.08,0.06-0.16,0.15-0.26,0.28s-0.27,0.19-0.52,0.19
		c-0.15,0-0.22-0.12-0.22-0.35c0-0.48,0.17-0.86,0.51-1.14s0.58-0.43,0.74-0.45s0.25-0.08,0.29-0.18s0.13-0.18,0.29-0.24
		s0.33-0.21,0.53-0.43c0.2-0.22,0.42-0.37,0.65-0.45L78.82,20.8z"/>
	<path d="M97.94,24.13l0.23-0.21c0.15,0,0.23-0.07,0.26-0.2c0.03-0.13,0.13-0.24,0.31-0.32s0.35-0.24,0.5-0.48s0.32-0.36,0.48-0.36
		c0.06,0,0.13,0.05,0.2,0.15c0.08,0.1,0.12,0.18,0.12,0.23c0,0.32-0.1,0.65-0.29,1l-0.06,0.41l-0.1,0.19
		c-0.15,0.08-0.24,0.16-0.29,0.25s-0.16,0.2-0.34,0.32l-0.15,0.21c-0.21,0.07-0.36,0.18-0.43,0.34s-0.18,0.24-0.31,0.26
		s-0.28,0.12-0.43,0.29c-0.1,0.05-0.21,0.09-0.35,0.13l-0.03,0.15c-0.1,0.1-0.25,0.18-0.46,0.23s-0.37,0.12-0.47,0.17
		c-0.1,0.05-0.17,0.08-0.21,0.08c-0.19,0-0.36-0.04-0.51-0.11c-0.16-0.07-0.32-0.12-0.48-0.14c-0.06-0.06-0.09-0.12-0.1-0.19
		s-0.06-0.16-0.15-0.27s-0.13-0.27-0.13-0.46l0.06-0.28c0-0.04-0.02-0.09-0.07-0.15c-0.05-0.06-0.07-0.11-0.07-0.15
		s0.01-0.07,0.03-0.09c0.02-0.02,0.03-0.05,0.03-0.09c0-0.05-0.01-0.1-0.03-0.16c-0.02-0.06-0.03-0.11-0.03-0.15l0.09-0.72
		c0-0.06-0.02-0.09-0.06-0.09c-0.04,0-0.11,0.05-0.21,0.15s-0.22,0.15-0.36,0.15c-0.08,0.06-0.14,0.18-0.19,0.37
		c-0.08,0.1-0.18,0.19-0.29,0.26l-0.06,0.09c-0.02,0.07-0.09,0.12-0.22,0.17c-0.13,0.04-0.21,0.1-0.26,0.17l-0.15,0.15l-0.28-0.03
		c-0.02,0.02-0.07,0.11-0.16,0.26c-0.09,0.15-0.2,0.28-0.34,0.37l-1.11,0.91c-0.12,0.08-0.29,0.18-0.51,0.29l-0.09,0.09
		c-0.78,0.52-1.33,0.78-1.66,0.78c-0.26,0-0.57-0.07-0.92-0.22s-0.54-0.32-0.57-0.53l-0.15-0.6c-0.09-0.14-0.13-0.33-0.13-0.57
		c0-0.12,0.01-0.2,0.03-0.23v-0.09l-0.03-0.48c0-0.12,0.09-0.18,0.28-0.18l-0.03-0.4c0-0.04,0.09-0.19,0.26-0.46
		c0.17-0.27,0.29-0.42,0.34-0.46l0.15-0.19c-0.01-0.12,0.06-0.24,0.21-0.37c0.15-0.13,0.26-0.27,0.35-0.4
		c0.09-0.14,0.25-0.29,0.5-0.45l0.44-0.44c0.34-0.34,0.71-0.62,1.11-0.82c0.06-0.02,0.18-0.12,0.36-0.29
		c0.18-0.18,0.39-0.3,0.62-0.39c0.23-0.08,0.45-0.19,0.67-0.32c0.22-0.13,0.39-0.19,0.52-0.19h0.12c0.04,0,0.3-0.12,0.78-0.37h0.09
		c0.04,0,0.13,0.04,0.28,0.12h0.03l0.23-0.12c0.04-0.02,0.09-0.03,0.15-0.03c0.61,0,0.94,0.42,1,1.26c0.02,0.18,0.07,0.26,0.15,0.26
		c0.1,0,0.24-0.18,0.42-0.53s0.56-0.54,1.15-0.54c0.42,0,0.63,0.27,0.63,0.81c0,0.63-0.28,1.24-0.85,1.8
		c-0.04,0.08-0.07,0.17-0.09,0.26l-0.21,0.6v0.03c0,0.06-0.04,0.14-0.12,0.24c-0.08,0.1-0.12,0.19-0.12,0.27l0.03,0.37l-0.06,0.41
		c0,0.19,0.03,0.31,0.1,0.37c0.31-0.08,0.54-0.21,0.68-0.39c0.14-0.18,0.24-0.28,0.3-0.3l0.15-0.06
		C97.73,24.35,97.83,24.22,97.94,24.13z M93.08,24.13c0.04-0.21,0.16-0.38,0.36-0.49c0.2-0.11,0.32-0.23,0.36-0.34
		c0.19-0.14,0.45-0.38,0.8-0.73s0.52-0.57,0.52-0.64c0-0.03-0.02-0.04-0.06-0.04h-0.03l-0.12,0.07l-0.26-0.03l-0.28,0.03l-0.21-0.1
		l-0.19,0.03l-0.29-0.06c-0.16,0-0.29,0.03-0.4,0.1c-0.11,0.06-0.33,0.13-0.65,0.21s-0.6,0.21-0.86,0.4
		c-0.25,0.19-0.44,0.29-0.56,0.29c-0.07,0.15-0.3,0.36-0.69,0.63c-0.23,0.08-0.39,0.25-0.45,0.51c-0.25,0.21-0.38,0.32-0.38,0.35
		l-0.1,0.25c-0.08,0.07-0.18,0.12-0.29,0.17c-0.12,0.04-0.19,0.15-0.21,0.31c-0.02,0.16-0.09,0.31-0.2,0.44
		c-0.11,0.13-0.17,0.24-0.17,0.32c0,0.48,0.09,0.72,0.28,0.72c0.08,0,0.24-0.05,0.49-0.15c0.25-0.1,0.39-0.17,0.43-0.21
		s0.12-0.08,0.23-0.12l0.28-0.15c0.04-0.04,0.08-0.06,0.13-0.07c0.05-0.01,0.1-0.04,0.15-0.1c0.05-0.05,0.14-0.11,0.26-0.18
		c0.13-0.06,0.22-0.15,0.29-0.26c0.17-0.1,0.43-0.25,0.81-0.45l0.31-0.23c0.21-0.1,0.35-0.18,0.4-0.25S92.93,24.19,93.08,24.13z"/>
	<path d="M103.67,27.04l0.28,0.21c0.14,0.08,0.21,0.25,0.21,0.51c0,0.06-0.02,0.13-0.07,0.21s-0.09,0.16-0.13,0.25
		c-0.34,0.67-0.74,1.01-1.2,1.01c-0.15,0-0.38-0.13-0.69-0.4s-0.51-0.5-0.59-0.72s-0.15-0.35-0.21-0.41s-0.08-0.11-0.08-0.15
		c0-0.11,0.04-0.22,0.12-0.35s0.14-0.29,0.18-0.48c0.04-0.19,0.14-0.33,0.31-0.42s0.3-0.18,0.37-0.27s0.18-0.13,0.31-0.13
		c0.08,0,0.16,0.03,0.23,0.1s0.19,0.14,0.33,0.21c0.14,0.07,0.29,0.23,0.43,0.48L103.67,27.04z"/>
	<path d="M118.42,20.61l0.03-0.32v-0.12l0.13-0.4c0.19-0.6,0.4-1.04,0.62-1.32s0.34-0.48,0.36-0.6s0.1-0.25,0.23-0.39
		c0.13-0.14,0.23-0.27,0.29-0.39l0.12-0.18c0-0.18,0.11-0.37,0.33-0.58s0.34-0.37,0.37-0.49s0.17-0.33,0.45-0.64
		c0-0.09,0.1-0.25,0.3-0.48c0.2-0.23,0.33-0.39,0.39-0.49s0.18-0.19,0.37-0.26c0.04-0.21,0.14-0.38,0.29-0.51
		c0.16-0.14,0.28-0.26,0.36-0.36s0.18-0.18,0.3-0.24l0.15-0.18c0.07-0.1,0.23-0.24,0.49-0.44s0.43-0.34,0.5-0.44l0.37-0.15
		l0.06-0.06l0.03-0.18c0.04-0.02,0.11-0.09,0.2-0.2c0.1-0.11,0.19-0.2,0.26-0.26l0.39-0.4c0.16-0.1,0.3-0.18,0.41-0.23
		c0.11-0.06,0.18-0.13,0.21-0.23s0.21-0.19,0.53-0.29c0.18-0.23,0.42-0.37,0.75-0.41c0.12-0.21,0.47-0.43,1.05-0.68
		s1-0.37,1.23-0.37c0.21,0,0.42,0.03,0.6,0.09l0.23-0.03c0.04,0.02,0.13,0.06,0.28,0.12h0.03l0.12,0.03
		c0.34,0.39,0.51,0.81,0.51,1.25c0,0.21-0.01,0.45-0.03,0.73c-0.11,0.34-0.16,0.62-0.16,0.82c0,0.14-0.05,0.3-0.15,0.5l-0.12,0.4
		c-0.06,0.58-0.26,0.86-0.6,0.86c-0.54,0-0.81-0.25-0.81-0.75c0-0.32,0.14-0.59,0.41-0.81c0.48-0.3,0.72-0.79,0.72-1.46
		c0-0.19-0.08-0.28-0.23-0.28h-0.03c-0.1,0.06-0.18,0.09-0.23,0.09l-0.28-0.09h-0.03l-0.12,0.06c-0.02-0.02-0.09,0.01-0.21,0.1
		c-0.12,0.08-0.29,0.16-0.5,0.23c-0.21,0.07-0.42,0.22-0.63,0.45c-0.21,0.23-0.44,0.4-0.7,0.5c-0.26,0.1-0.49,0.29-0.68,0.56
		c0,0.02-0.01,0.03-0.03,0.03l-0.31-0.03c-0.04,0-0.11,0.12-0.21,0.37l-0.09,0.06h-0.1c-0.04,0.02-0.11,0.08-0.21,0.18l-0.18,0.15
		c-0.06,0.19-0.17,0.32-0.34,0.4l-0.18,0.31c-0.08,0.04-0.17,0.1-0.27,0.18s-0.19,0.13-0.26,0.16c-0.07,0.03-0.14,0.14-0.2,0.33
		c-0.07,0.19-0.29,0.35-0.67,0.49c-0.04,0.04-0.06,0.07-0.06,0.1c0,0.02,0.01,0.06,0.03,0.12v0.03c0,0.2-0.25,0.49-0.76,0.89v0.06
		c0,0.11-0.08,0.31-0.25,0.61c-0.17,0.3-0.31,0.5-0.43,0.62s-0.18,0.19-0.18,0.23v0.21c0,0.16-0.07,0.25-0.21,0.29
		c-0.13,0.11-0.22,0.19-0.28,0.25c0,0.2-0.08,0.34-0.25,0.45c-0.17,0.1-0.26,0.18-0.29,0.24l0.1,0.18v0.06
		c0,0.28-0.14,0.46-0.42,0.54v0.06c0,0.1-0.07,0.24-0.21,0.43c-0.14,0.19-0.27,0.32-0.39,0.39c-0.02,0-0.04,0.02-0.06,0.06
		l0.06,0.41c-0.25,0.54-0.5,0.96-0.75,1.26c-0.1,0.02-0.15,0.06-0.15,0.13l0.06,0.23v0.06c0,0.24-0.04,0.42-0.12,0.51
		s-0.12,0.16-0.12,0.18l0.09,0.21c0,0.09-0.04,0.15-0.12,0.19s-0.12,0.08-0.12,0.12c0,0.02,0.01,0.05,0.03,0.09v0.09
		c0,0.08-0.07,0.35-0.21,0.82v0.21l-0.06,0.21c0,0.02,0.02,0.08,0.07,0.18c0.05,0.1,0.07,0.19,0.07,0.27l-0.09,0.21
		c-0.02,0.02-0.03,0.05-0.03,0.09c0,0.19,0.04,0.42,0.12,0.71s0.22,0.43,0.42,0.43c0.33,0,0.53-0.04,0.61-0.12s0.28-0.25,0.63-0.52
		s0.58-0.46,0.69-0.57c0.11-0.11,0.2-0.18,0.26-0.21s0.33-0.33,0.8-0.92c0.47-0.58,0.88-1.1,1.23-1.56c0.02-0.02,0.05-0.08,0.08-0.2
		s0.14-0.25,0.32-0.43c0.18-0.17,0.45-0.5,0.8-1l0.28-0.26c0.21-0.3,0.34-0.49,0.37-0.56c0.03-0.07,0.1-0.15,0.21-0.22
		c0.11-0.07,0.19-0.17,0.25-0.29c0.06-0.12,0.14-0.19,0.26-0.21c0.11-0.02,0.17-0.07,0.17-0.15l-0.03-0.31
		c0.14-0.21,0.29-0.36,0.47-0.42c-0.02-0.04-0.03-0.1-0.03-0.18c0-0.23,0.1-0.38,0.3-0.45c0.2-0.06,0.3-0.13,0.31-0.2
		s0.03-0.15,0.07-0.25l0.04-0.12c0.08-0.17,0.16-0.29,0.23-0.37l0.18-0.26l0.31-0.31c0-0.02,0.01-0.04,0.03-0.06l-0.06-0.34
		c0-0.06,0.13-0.14,0.38-0.23l0.03-0.06v-0.26c0-0.09,0.09-0.18,0.28-0.28c0.05-0.21,0.15-0.35,0.29-0.42
		c0.02-0.25,0.11-0.47,0.27-0.65c0.16-0.18,0.3-0.36,0.42-0.54s0.3-0.27,0.54-0.27c0.13,0,0.35,0.09,0.68,0.27
		c0.33,0.18,0.49,0.44,0.49,0.78c0,0.04-0.05,0.16-0.15,0.35s-0.19,0.59-0.28,1.17c-0.21,0.55-0.34,0.87-0.41,0.97
		c0.06,0.14,0.09,0.24,0.09,0.32c0,0.13-0.08,0.28-0.25,0.45c-0.03,0.19-0.07,0.34-0.12,0.45v0.23c0,0.19-0.14,0.32-0.41,0.4
		c-0.03,0-0.07,0.12-0.12,0.36s-0.07,0.37-0.07,0.39l0.06,0.4c0,0.14-0.04,0.24-0.12,0.32s-0.18,0.21-0.31,0.4
		c-0.13,0.19-0.2,0.31-0.2,0.34c0,0.17-0.02,0.3-0.06,0.4s-0.06,0.2-0.07,0.31c-0.01,0.11-0.05,0.22-0.13,0.32s-0.13,0.18-0.15,0.23
		c0.06,0.13,0.09,0.2,0.09,0.22c0,0.06-0.03,0.18-0.09,0.35c-0.11,0.1-0.16,0.18-0.16,0.25c0,0.01,0.03,0.08,0.1,0.21
		c-0.02,0.12-0.07,0.28-0.16,0.48l-0.03,0.09l0.06,0.83c0,0.02-0.04,0.08-0.12,0.18v0.07c0,0.1,0.03,0.15,0.09,0.15
		c0.04,0,0.19-0.08,0.45-0.23s0.41-0.26,0.44-0.32c0.09-0.18,0.49-0.46,1.22-0.86l1.91-1.61c0.13-0.13,0.22-0.19,0.28-0.19
		c0.17,0,0.25,0.08,0.25,0.23c0,0.22-0.05,0.48-0.16,0.78v0.22c0,0.25-0.14,0.49-0.41,0.72c-0.02,0.08-0.09,0.14-0.2,0.19
		c-0.11,0.05-0.19,0.12-0.24,0.21c-0.05,0.09-0.16,0.18-0.33,0.26c-0.17,0.08-0.31,0.17-0.4,0.26l-0.12,0.06
		c-0.15,0.07-0.24,0.18-0.29,0.32s-0.1,0.22-0.16,0.22c-0.23,0-0.53,0.19-0.91,0.57l-0.18,0.06l-0.18,0.12
		c-0.1,0.09-0.18,0.13-0.23,0.13l-0.22-0.03l-0.78,0.15c-0.12,0-0.23-0.09-0.34-0.28h-0.23l-0.21-0.23
		c-0.23-0.08-0.44-0.34-0.63-0.8c-0.19-0.46-0.28-0.85-0.28-1.18c0-0.21,0.05-0.52,0.14-0.95c0.09-0.43,0.14-0.75,0.14-0.95
		c0-0.21,0.04-0.43,0.12-0.64c0.08-0.21,0.12-0.38,0.12-0.52c0-0.04,0.04-0.17,0.12-0.4c0.08-0.23,0.12-0.47,0.12-0.71
		c0-0.02-0.02-0.03-0.06-0.03c-0.51,0.74-0.85,1.16-1.03,1.26c-0.07,0.04-0.15,0.11-0.23,0.21c0.11,0.17,0.16,0.26,0.16,0.28
		c0,0.16-0.19,0.42-0.57,0.81l-0.16,0.34c-0.06,0.06-0.1,0.09-0.12,0.09l-0.32-0.03l-0.09,0.12l0.09,0.29
		c-0.11,0.22-0.24,0.36-0.4,0.4l-0.06,0.06l-0.03,0.15l-0.15,0.1c-0.02,0-0.03,0.01-0.03,0.03l0.06,0.29
		c-0.04,0.06-0.1,0.12-0.17,0.17c-0.07,0.05-0.14,0.18-0.21,0.37s-0.18,0.29-0.34,0.29l-0.13-0.06h-0.03l-0.03,0.28l0.03,0.12
		c0,0.08-0.08,0.17-0.23,0.26l-0.15,0.16c0,0.12-0.11,0.29-0.33,0.5c-0.22,0.22-0.38,0.42-0.49,0.59c-0.17,0.09-0.34,0.25-0.53,0.48
		c-0.32,0.27-0.52,0.45-0.58,0.52c-0.06,0.07-0.18,0.12-0.36,0.14c-0.13,0.14-0.29,0.22-0.5,0.26c-0.21,0.04-0.38,0.08-0.53,0.14
		s-0.25,0.09-0.29,0.09c-0.36,0-0.72-0.14-1.08-0.42c-0.24-0.01-0.41-0.1-0.51-0.26l-0.63-0.57c-0.4-0.6-0.6-1.24-0.6-1.92
		c0-0.14,0.02-0.26,0.07-0.36c0.04-0.1,0.07-0.17,0.07-0.21s-0.03-0.08-0.08-0.13c-0.05-0.05-0.08-0.09-0.08-0.13
		c0-0.09,0.08-0.18,0.25-0.28c-0.12-0.12-0.18-0.22-0.18-0.32c0-0.09,0.04-0.2,0.12-0.34s0.14-0.21,0.18-0.21s0.11,0.05,0.21,0.15
		c0,0.02,0.01,0.03,0.03,0.03c0.04,0,0.06-0.02,0.06-0.06c0-0.1-0.05-0.18-0.16-0.23s-0.17-0.17-0.19-0.34
		c-0.04-0.04-0.06-0.07-0.06-0.09l0.26-1.11c0.07-0.29,0.23-0.56,0.48-0.81L118.42,20.61z"/>
	<path d="M145.29,25.03h0.06l0.15,0.06c0.02,0,0.04-0.01,0.06-0.03c0-0.17,0.08-0.31,0.23-0.42c0.05-0.19,0.16-0.33,0.33-0.42
		c0.17-0.1,0.44-0.26,0.81-0.48l0.37-0.32l0.18-0.09l0.12-0.15c0.11-0.13,0.21-0.19,0.31-0.19c0.15,0,0.22,0.05,0.22,0.16
		l-0.13,0.29l0.06,0.48c0,0.18-0.06,0.33-0.18,0.47c-0.12,0.14-0.31,0.34-0.56,0.6l-0.75,0.79l-0.4,0.21
		c-0.1,0.06-0.19,0.13-0.26,0.21l-0.57,0.48c0,0.14-0.04,0.24-0.13,0.31h-0.23l-0.12,0.06c-0.07,0.19-0.27,0.37-0.6,0.54l-0.21,0.15
		c-0.07,0.06-0.13,0.09-0.19,0.09l-0.41-0.06l-0.28,0.06c-0.08,0-0.18-0.04-0.32-0.12c-0.13-0.08-0.27-0.14-0.4-0.18
		c-0.14-0.04-0.31-0.22-0.52-0.54c-0.21-0.32-0.33-0.53-0.34-0.62c0-0.04-0.02-0.1-0.07-0.2s-0.07-0.15-0.07-0.17
		s0.04-0.12,0.13-0.29v-0.03c0-0.03-0.03-0.1-0.08-0.21s-0.08-0.24-0.08-0.4c0-0.09-0.03-0.2-0.09-0.34
		c0.08-0.08,0.12-0.14,0.12-0.18s-0.01-0.09-0.04-0.17c-0.03-0.07-0.04-0.13-0.04-0.17l0.09-0.72l-0.06-0.37l0.03-0.35
		c0-0.21-0.09-0.31-0.26-0.31c-0.08,0-0.18,0.05-0.29,0.16l-0.1,0.03c-0.26,0.13-0.45,0.23-0.55,0.31
		c-0.11,0.08-0.22,0.12-0.34,0.12c-0.06,0.06-0.17,0.11-0.34,0.16l-0.12,0.09c-0.04,0.04-0.12,0.1-0.23,0.18
		c0,0.03-0.18,0.19-0.55,0.49c-0.36,0.3-0.69,0.58-0.99,0.84c-0.29,0.26-0.5,0.41-0.63,0.43c-0.13,0.03-0.2,0.15-0.2,0.37
		c0,0.04-0.09,0.12-0.26,0.23c-0.02,0-0.12,0.11-0.31,0.32c-0.16-0.12-0.24-0.18-0.26-0.18c-0.13,0-0.22,0.16-0.28,0.48
		c-0.06,0.13-0.22,0.21-0.47,0.23c-0.02,0.01-0.05,0.08-0.1,0.22l-0.06,0.06h-0.15c-0.02,0-0.09,0.06-0.21,0.17
		c-0.12,0.11-0.22,0.18-0.31,0.21c-0.13,0.26-0.23,0.4-0.32,0.4c-0.04,0-0.1-0.02-0.17-0.06c-0.07-0.04-0.16-0.07-0.27-0.1
		s-0.23-0.15-0.36-0.36s-0.2-0.39-0.2-0.54c0-1.08,0.21-1.67,0.63-1.77l0.03-0.06v-0.12c0-0.13,0.06-0.22,0.17-0.27
		s0.23-0.16,0.34-0.32c0.12-0.16,0.2-0.25,0.23-0.27h0.19c0.04,0,0.06-0.1,0.06-0.31c0-0.06,0.02-0.11,0.07-0.16
		s0.08-0.12,0.09-0.21c0.01-0.09,0.08-0.24,0.21-0.45s0.2-0.33,0.2-0.37l-0.03-0.06c-0.24,0.22-0.42,0.35-0.53,0.37
		s-0.25,0.16-0.44,0.42l-0.23-0.04c-0.41,0.3-0.67,0.47-0.76,0.51c-0.1,0.04-0.21,0.15-0.32,0.34c0,0.06-0.03,0.1-0.1,0.12
		c-0.07,0.02-0.2,0.1-0.38,0.23h-0.09c-0.24,0-0.37-0.18-0.37-0.53l0.31-0.83c0.09-0.26,0.29-0.49,0.62-0.67
		c0.33-0.18,0.6-0.35,0.83-0.52c0.22-0.17,0.45-0.25,0.67-0.26l0.1-0.15c0.33-0.13,0.56-0.33,0.67-0.6s0.28-0.41,0.48-0.41
		c0.54,0,0.95,0.2,1.23,0.59c0.28,0.4,0.42,0.71,0.42,0.95l0.03,0.4c0,0.14-0.03,0.33-0.09,0.57c-0.12,0.18-0.18,0.31-0.18,0.4
		c0,0.08,0.05,0.12,0.15,0.12c0.06,0,0.14-0.04,0.23-0.12c0.1-0.08,0.21-0.16,0.33-0.23s0.19-0.13,0.21-0.18
		c0.1-0.23,0.27-0.4,0.51-0.48s0.4-0.16,0.45-0.22l0.15-0.12l0.12-0.22c0.26-0.12,0.44-0.22,0.53-0.32s0.21-0.16,0.35-0.19
		s0.31-0.12,0.5-0.26l0.22-0.06l0.21-0.12c0.02-0.02,0.08-0.04,0.18-0.07s0.24-0.08,0.43-0.15c0.19-0.07,0.32-0.11,0.39-0.11
		c0.5,0,0.89,0.2,1.18,0.6c0.29,0.4,0.43,0.72,0.43,0.97l-0.03,0.26l0.06,0.4v0.06l-0.12,0.81l0.03,0.28c0,0.46-0.1,0.78-0.29,0.95
		c-0.05,0.02-0.07,0.07-0.07,0.15v0.13l0.29,0.62c0.09,0.21,0.16,0.32,0.21,0.32l0.47-0.13c0.14-0.04,0.25-0.14,0.34-0.31
		c0.08-0.04,0.21-0.16,0.41-0.35C145.07,25.11,145.16,25.03,145.29,25.03z"/>
	<path d="M148.58,26.5l-0.12-0.75c0-0.06,0.03-0.15,0.09-0.28c0.06,0,0.11-0.02,0.15-0.06l-0.09-0.26c0-0.34,0.1-0.64,0.29-0.89
		c0.19-0.25,0.29-0.42,0.31-0.5s0.16-0.37,0.42-0.86c0.26-0.48,0.45-0.79,0.58-0.93l0.09-0.19l0.12-0.03
		c0.23-0.36,0.54-0.69,0.95-0.98c0.14-0.21,0.3-0.39,0.5-0.53s0.33-0.23,0.4-0.29s0.17-0.1,0.31-0.12l0.06-0.03
		c0.28-0.28,0.53-0.42,0.73-0.42c0.07-0.07,0.21-0.15,0.41-0.23h0.16c0.06,0,0.12-0.02,0.18-0.06s0.12-0.06,0.18-0.06
		c0.04,0,0.14,0.04,0.31,0.12c0.16-0.16,0.28-0.23,0.38-0.23c0.21,0,0.41,0.08,0.62,0.23s0.34,0.35,0.4,0.57s0.11,0.36,0.15,0.4
		c0.04,0.04,0.08,0.09,0.12,0.15c0.08,0,0.18-0.18,0.31-0.54l0.18-0.23c0.27-0.34,0.45-0.74,0.55-1.2c0.02-0.02,0.05-0.1,0.09-0.24
		c0.04-0.14,0.14-0.38,0.31-0.73c0.29-0.41,0.49-0.83,0.6-1.26l0.18-0.26c0.12-0.08,0.18-0.16,0.19-0.26s0.04-0.18,0.09-0.26
		s0.1-0.17,0.17-0.29s0.12-0.19,0.15-0.23s0.1-0.17,0.18-0.4s0.17-0.36,0.29-0.39s0.23-0.08,0.34-0.16l0.03-0.1l-0.06-0.21
		c0-0.12,0.13-0.32,0.39-0.62s0.44-0.53,0.56-0.73s0.3-0.48,0.57-0.88s0.46-0.64,0.58-0.73l0.34-0.35c0.16-0.22,0.38-0.34,0.66-0.34
		c0.21,0,0.44,0.11,0.67,0.34s0.35,0.46,0.35,0.68c0,0.08-0.05,0.26-0.16,0.54l-0.03,0.18c0,0.16-0.05,0.34-0.16,0.56
		s-0.17,0.38-0.19,0.5l-0.82,2.01c-0.1,0.04-0.16,0.07-0.18,0.09c-0.25,0.56-0.45,0.86-0.6,0.91v0.29c0,0.11-0.07,0.19-0.21,0.23
		l-0.06,0.03c-0.09,0.37-0.2,0.64-0.34,0.81s-0.24,0.33-0.3,0.51c-0.06,0.17-0.16,0.27-0.3,0.29s-0.21,0.21-0.21,0.57
		c-0.04,0.2-0.14,0.29-0.29,0.29c-0.15,0-0.24,0.13-0.28,0.38s-0.23,0.39-0.57,0.41c-0.1,0.06-0.16,0.13-0.18,0.21l0.12,0.37
		c0,0.06-0.18,0.29-0.54,0.69l-0.12,0.38c-0.19,0.07-0.34,0.57-0.45,1.51l-0.18,1.01l0.03,0.4l-0.06,0.21l0.18,0.6l-0.03,0.34
		c0,0.16,0.06,0.23,0.18,0.23c0.06,0,0.19-0.09,0.4-0.26l0.21-0.09c0.61-0.31,0.99-0.62,1.14-0.91c0.04-0.04,0.11-0.08,0.21-0.12
		s0.18-0.09,0.23-0.16s0.09-0.12,0.12-0.15c0.59-0.39,0.98-0.73,1.16-1.03c0.17-0.29,0.36-0.47,0.54-0.53l0.12-0.12
		c0.12-0.1,0.21-0.15,0.29-0.15c0.17,0,0.25,0.05,0.25,0.15l-0.12,0.41c0.1,0.26,0.15,0.42,0.15,0.45c0,0.34-0.15,0.55-0.45,0.63
		c-0.13,0.13-0.23,0.27-0.3,0.44s-0.23,0.27-0.48,0.31c-0.17,0.23-0.32,0.39-0.45,0.46c-0.14,0.07-0.21,0.15-0.21,0.23v0.13
		c-0.08,0.12-0.15,0.2-0.21,0.23l-0.28-0.06c-0.04,0.12-0.13,0.28-0.26,0.48c-0.05-0.04-0.09-0.06-0.13-0.06
		c-0.14,0-0.25,0.08-0.34,0.25s-0.15,0.25-0.19,0.25h-0.34c-0.05,0.03-0.13,0.09-0.23,0.19s-0.29,0.15-0.54,0.15l-0.45,0.09
		c-0.43,0-0.83-0.14-1.19-0.42c-0.36-0.28-0.55-0.53-0.58-0.76c-0.02-0.23-0.1-0.5-0.24-0.83l-0.03-0.6
		c-0.11-0.62-0.23-0.94-0.37-0.94l-0.03,0.19l-0.12,0.06c-0.06,0.3-0.16,0.45-0.29,0.45c-0.06,0.03-0.12,0.08-0.19,0.15l-0.09,0.06
		c-0.04,0.02-0.1,0.1-0.17,0.25s-0.28,0.35-0.61,0.62c-0.14,0.36-0.24,0.54-0.31,0.54l-0.18-0.12h-0.03c-0.08,0-0.14,0.12-0.19,0.34
		c-0.05,0.23-0.15,0.34-0.29,0.34c-0.04,0-0.08,0.07-0.11,0.2c-0.03,0.13-0.12,0.21-0.26,0.25c-0.14,0.04-0.26,0.17-0.37,0.4
		s-0.18,0.35-0.22,0.35c-0.02,0-0.05-0.01-0.09-0.03l-0.25,0.06c-0.05,0.07-0.12,0.18-0.21,0.34c-0.09,0.03-0.17,0.07-0.23,0.12
		c-0.3,0.29-0.7,0.44-1.2,0.44c-0.35,0-0.63-0.08-0.84-0.23c-0.21-0.15-0.33-0.28-0.37-0.39s-0.11-0.24-0.22-0.4
		C148.68,26.93,148.61,26.73,148.58,26.5z M154.43,23.17l0.1-0.19c0.17-0.06,0.27-0.21,0.32-0.44c0.08-0.06,0.28-0.31,0.6-0.76
		c0.32-0.45,0.48-0.7,0.48-0.75c-0.1-0.1-0.21-0.15-0.34-0.15c-0.02,0-0.08,0.02-0.18,0.06s-0.2,0.07-0.3,0.09s-0.21,0.06-0.33,0.12
		l-0.37-0.06c-0.11,0-0.35,0.14-0.72,0.42l-0.34-0.06c-0.06,0-0.16,0.13-0.29,0.38l-0.75,0.6h-0.09c-0.14,0-0.23,0.12-0.28,0.37
		c-0.17,0.21-0.32,0.36-0.47,0.45s-0.25,0.2-0.31,0.36v0.19c-0.27,0.3-0.41,0.53-0.41,0.69c-0.21,0.2-0.34,0.41-0.4,0.63
		c-0.06,0.22-0.14,0.42-0.23,0.57c0.04,0.14,0.07,0.31,0.09,0.5c0.02,0.2,0.12,0.3,0.29,0.3c0.28,0,0.6-0.17,0.94-0.51
		c0.02-0.02,0.1-0.07,0.25-0.16s0.35-0.26,0.61-0.52c0.26-0.26,0.4-0.39,0.43-0.4c0.1-0.1,0.16-0.15,0.18-0.15l0.12-0.12
		c0-0.04,0.04-0.08,0.12-0.13s0.19-0.15,0.33-0.3c0.14-0.15,0.24-0.24,0.31-0.27s0.12-0.07,0.15-0.12s0.08-0.11,0.15-0.15
		s0.1-0.1,0.1-0.16l0.03-0.18L154.43,23.17z M159.51,17.23l-0.15,0.42c0.13-0.02,0.24-0.15,0.34-0.4c0.29-0.42,0.49-0.68,0.6-0.78
		c0.13,0,0.22-0.08,0.29-0.24s0.18-0.32,0.34-0.48c0-0.07,0.07-0.2,0.22-0.4s0.24-0.33,0.29-0.42s0.13-0.19,0.27-0.33
		s0.27-0.37,0.39-0.7s0.23-0.53,0.31-0.6s0.13-0.21,0.13-0.41c0-0.28-0.02-0.42-0.06-0.42c-0.09,0-0.15,0.06-0.2,0.17
		s-0.14,0.26-0.29,0.43l-0.5,0.83c-0.2,0.33-0.32,0.6-0.39,0.79s-0.14,0.31-0.22,0.34s-0.18,0.13-0.3,0.29l-0.21,0.21
		c-0.05,0.12-0.09,0.26-0.12,0.42l-0.13,0.12v0.28c0,0.13-0.07,0.24-0.22,0.34s-0.22,0.17-0.22,0.2L159.51,17.23z"/>
	<path d="M164.28,20.8l0.22-0.06l0.09-0.19c0.48-0.28,0.82-0.55,1.03-0.81c0.02-0.04,0.06-0.08,0.13-0.12s0.14-0.11,0.22-0.21
		c0.36-0.36,0.79-0.54,1.29-0.54c0.59,0,0.9,0.36,0.94,1.07l0.09,0.22c0.08,0.14,0.19,0.42,0.33,0.83s0.21,0.68,0.21,0.78
		c0,0.26-0.08,0.53-0.25,0.79c-0.14,0.07-0.46,0.43-0.98,1.1l-0.15,0.1c-0.08,0.18-0.18,0.35-0.31,0.53
		c-0.2,0.07-0.29,0.14-0.29,0.22v0.26c0,0.02-0.02,0.06-0.07,0.12s-0.11,0.17-0.18,0.34l-0.12,0.18c-0.04,0.04-0.08,0.12-0.12,0.24
		s-0.09,0.23-0.17,0.33s-0.11,0.18-0.11,0.23c0,0.15,0.19,0.22,0.57,0.22c0.02,0,0.09-0.03,0.22-0.09l0.21,0.06
		c0.02,0,0.07-0.03,0.15-0.1c0.08-0.06,0.2-0.11,0.36-0.15s0.3-0.1,0.42-0.18s0.27-0.15,0.44-0.21s0.33-0.15,0.49-0.29
		c0.16-0.13,0.31-0.23,0.46-0.29s0.29-0.15,0.42-0.27c0.13-0.12,0.28-0.24,0.45-0.34s0.43-0.34,0.79-0.7
		c0.23-0.19,0.4-0.29,0.48-0.31c0.02,0,0.1-0.13,0.26-0.39s0.33-0.39,0.52-0.39c0.21,0,0.31,0.1,0.31,0.29
		c0,0.11-0.05,0.21-0.15,0.31v0.09l0.03,0.23c0.02,0.03,0.03,0.07,0.03,0.13c0,0.04-0.04,0.1-0.11,0.18
		c-0.07,0.08-0.12,0.18-0.15,0.3s-0.12,0.2-0.28,0.24c-0.06,0.21-0.13,0.34-0.23,0.37s-0.22,0.13-0.39,0.29s-0.4,0.36-0.7,0.59
		s-0.51,0.4-0.62,0.52c-0.11,0.12-0.19,0.18-0.23,0.18c-0.02,0-0.06-0.02-0.12-0.06s-0.1-0.06-0.12-0.06c-0.06,0-0.1,0.07-0.12,0.21
		l-0.06,0.15c-0.13,0.08-0.2,0.12-0.22,0.12l-0.09-0.03h-0.06c-0.12,0-0.18,0.04-0.18,0.13l0.09,0.15v0.03
		c0,0.14-0.08,0.21-0.23,0.21c-0.11,0-0.42,0.18-0.94,0.54l-0.42,0.09l-0.35,0.19c-0.12-0.07-0.19-0.1-0.22-0.1l-0.23,0.07
		l-0.42,0.03c-0.01,0-0.19-0.1-0.53-0.29s-0.55-0.39-0.62-0.59s-0.16-0.39-0.26-0.59s-0.16-0.34-0.16-0.42c0-0.47,0.04-0.8,0.12-1
		c0.08-0.2,0.13-0.35,0.15-0.45s0.08-0.2,0.17-0.32c0.09-0.11,0.17-0.29,0.23-0.55c0.28-0.57,0.48-0.91,0.59-1.04
		s0.19-0.28,0.25-0.47l0.19-0.26c0.02-0.02,0.05-0.09,0.09-0.23c0.04-0.13,0.09-0.21,0.15-0.23c0.08-0.14,0.12-0.22,0.12-0.26
		c0-0.28-0.13-0.42-0.38-0.42c-0.05,0-0.1,0.05-0.16,0.15c-0.06,0.1-0.19,0.2-0.4,0.3s-0.34,0.17-0.39,0.22s-0.15,0.11-0.31,0.18
		c-0.16,0.07-0.3,0.19-0.42,0.34l-0.25,0.12c-0.08,0.19-0.15,0.29-0.21,0.31s-0.24,0.07-0.54,0.15c-0.02,0.01-0.07,0.07-0.15,0.18
		s-0.19,0.16-0.34,0.16c-0.12,0.12-0.24,0.25-0.35,0.41c-0.04,0-0.14,0.04-0.31,0.12l-0.29,0.07c-0.08,0.06-0.16,0.15-0.26,0.28
		s-0.27,0.19-0.52,0.19c-0.15,0-0.22-0.12-0.22-0.35c0-0.48,0.17-0.86,0.5-1.14c0.34-0.28,0.58-0.43,0.74-0.45s0.25-0.08,0.29-0.18
		s0.13-0.18,0.29-0.24s0.33-0.21,0.53-0.43c0.2-0.22,0.42-0.37,0.65-0.45L164.28,20.8z"/>
	<path d="M174.26,21.94l0.31-0.25c0.23-0.02,0.36-0.14,0.38-0.37s0.18-0.42,0.48-0.59l0.18-0.25c0.15-0.15,0.55-0.34,1.2-0.57
		c0.17-0.1,0.28-0.19,0.34-0.26c0.02-0.02,0.04-0.03,0.06-0.03l0.23,0.06c0.13,0,0.29-0.03,0.49-0.1s0.39-0.1,0.58-0.1l0.61-0.03
		c0.04,0,0.12,0.03,0.24,0.09s0.27,0.09,0.45,0.09c0.21,0,0.41,0.1,0.59,0.29s0.27,0.38,0.27,0.54c0,0.3-0.16,0.61-0.47,0.92
		s-0.56,0.49-0.75,0.53c-0.17,0.17-0.29,0.27-0.38,0.32c-0.09,0.04-0.18,0.11-0.27,0.21s-0.17,0.14-0.23,0.14
		c-0.04,0-0.07-0.01-0.09-0.04c-0.02-0.02-0.05-0.04-0.09-0.04c-0.16,0-0.33,0.19-0.51,0.57l-0.26-0.03
		c-0.17,0.11-0.27,0.22-0.32,0.35c-0.05,0.13-0.15,0.19-0.31,0.19c-0.36,0.36-0.6,0.54-0.73,0.54c-0.02,0-0.09-0.02-0.21-0.06
		c-0.08,0.1-0.12,0.2-0.12,0.31c0,0.12-0.08,0.19-0.23,0.21l-0.19,0.18l-0.15-0.03l-0.29,0.31c-0.15,0-0.3,0.05-0.45,0.15
		c-0.02,0.12-0.05,0.27-0.09,0.45c-0.04,0.18-0.06,0.28-0.06,0.3c0,0.28,0.26,0.42,0.78,0.42l0.7-0.1c0.19,0,0.36-0.05,0.52-0.15
		s0.33-0.15,0.52-0.15c0.06,0,0.15-0.02,0.26-0.06l0.15,0.06c0.07-0.15,0.2-0.28,0.38-0.4s0.33-0.18,0.44-0.18l0.15-0.09
		c0.04-0.12,0.1-0.2,0.18-0.23l0.12-0.1c0.08-0.08,0.15-0.12,0.22-0.12h0.21l0.06-0.03c0.12-0.25,0.28-0.4,0.49-0.45
		c0.21-0.04,0.34-0.12,0.4-0.21s0.15-0.16,0.29-0.18c0.14-0.02,0.25-0.08,0.34-0.2s0.21-0.22,0.34-0.32
		c0.14-0.1,0.23-0.17,0.29-0.22s0.1-0.07,0.14-0.07c0.06,0,0.09,0.04,0.09,0.13s0.02,0.13,0.06,0.13s0.06-0.02,0.06-0.06
		s-0.01-0.09-0.03-0.15v-0.1c0-0.15,0.08-0.24,0.23-0.29l0.66-0.42c0.02-0.21,0.08-0.32,0.17-0.36s0.16-0.07,0.21-0.12
		c0.05-0.04,0.1-0.07,0.16-0.07c0.13,0,0.19,0.07,0.19,0.22l-0.07,0.38l0.07,0.4c0,0.06-0.05,0.14-0.14,0.24
		c-0.09,0.1-0.16,0.26-0.21,0.47s-0.11,0.32-0.19,0.34h-0.09c-0.18,0.19-0.32,0.3-0.42,0.33s-0.18,0.09-0.24,0.18l-0.5,0.57
		c-0.1,0.1-0.18,0.19-0.25,0.26s-0.12,0.12-0.16,0.12l-0.12-0.12c0-0.02-0.02-0.03-0.06-0.03c-0.1,0-0.16,0.06-0.18,0.18
		s-0.08,0.22-0.15,0.31c-0.29,0.14-0.48,0.26-0.57,0.38l-0.09,0.03h-0.26c-0.13,0-0.21,0.09-0.26,0.29
		c-0.05,0.19-0.19,0.3-0.42,0.33s-0.39,0.09-0.49,0.18c-0.02,0.02-0.06,0.04-0.13,0.06s-0.21,0.1-0.41,0.23l-1.23,0.44
		c-0.1,0.05-0.16,0.07-0.19,0.07l-0.41,0.06c-0.06,0-0.12-0.04-0.18-0.12s-0.1-0.12-0.12-0.12l-0.26,0.09
		c-0.2,0.06-0.38,0.09-0.56,0.09c-0.1,0-0.21-0.03-0.32-0.1s-0.21-0.12-0.28-0.15c-0.28,0-0.48-0.22-0.6-0.66l-0.18,0.03
		c-0.04,0-0.17-0.35-0.4-1.04c-0.06-0.08-0.15-0.13-0.28-0.17c-0.13-0.03-0.19-0.13-0.19-0.29c0-0.44,0.09-0.73,0.29-0.89
		c0.19-0.15,0.3-0.27,0.32-0.34l0.21-0.76c0.04-0.03,0.09-0.13,0.15-0.29l0.34-0.62C174.04,22.39,174.13,22.22,174.26,21.94z
		 M177.36,21.06l-0.18,0.09c-0.04,0.02-0.15,0.11-0.34,0.26s-0.38,0.27-0.56,0.37c-0.18,0.09-0.37,0.33-0.56,0.73
		s-0.29,0.62-0.29,0.67s0.03,0.09,0.09,0.09l0.5-0.22c0.19-0.09,0.36-0.2,0.52-0.34s0.39-0.3,0.7-0.5l0.12-0.12
		c0.02-0.04,0.11-0.11,0.27-0.21c0.16-0.1,0.28-0.2,0.36-0.3l0.15-0.06c0.17-0.26,0.33-0.42,0.51-0.48s0.26-0.12,0.26-0.18
		c0-0.12-0.09-0.18-0.28-0.18c-0.08,0-0.2,0.05-0.35,0.15h-0.34c-0.04,0-0.15,0.06-0.32,0.18L177.36,21.06z"/>
	<path d="M193.1,24.13l0.23-0.21c0.15,0,0.23-0.07,0.26-0.2c0.03-0.13,0.13-0.24,0.31-0.32c0.18-0.08,0.35-0.24,0.5-0.48
		c0.16-0.24,0.32-0.36,0.48-0.36c0.06,0,0.13,0.05,0.2,0.15c0.08,0.1,0.12,0.18,0.12,0.23c0,0.32-0.1,0.65-0.29,1l-0.06,0.41
		l-0.1,0.19c-0.15,0.08-0.24,0.16-0.29,0.25s-0.16,0.2-0.34,0.32l-0.15,0.21c-0.21,0.07-0.36,0.18-0.43,0.34s-0.18,0.24-0.31,0.26
		s-0.28,0.12-0.43,0.29c-0.1,0.05-0.21,0.09-0.35,0.13l-0.03,0.15c-0.1,0.1-0.25,0.18-0.46,0.23c-0.21,0.06-0.37,0.12-0.47,0.17
		c-0.1,0.05-0.17,0.08-0.21,0.08c-0.19,0-0.36-0.04-0.51-0.11c-0.16-0.07-0.32-0.12-0.48-0.14c-0.06-0.06-0.09-0.12-0.1-0.19
		c-0.01-0.07-0.06-0.16-0.15-0.27s-0.13-0.27-0.13-0.46l0.06-0.28c0-0.04-0.02-0.09-0.07-0.15s-0.07-0.11-0.07-0.15
		s0.01-0.07,0.03-0.09s0.03-0.05,0.03-0.09c0-0.05-0.01-0.1-0.03-0.16s-0.03-0.11-0.03-0.15l0.09-0.72c0-0.06-0.02-0.09-0.06-0.09
		s-0.11,0.05-0.21,0.15s-0.22,0.15-0.36,0.15c-0.08,0.06-0.14,0.18-0.19,0.37c-0.08,0.1-0.18,0.19-0.29,0.26l-0.06,0.09
		c-0.02,0.07-0.09,0.12-0.22,0.17c-0.13,0.04-0.21,0.1-0.26,0.17l-0.15,0.15l-0.28-0.03c-0.02,0.02-0.07,0.11-0.16,0.26
		c-0.09,0.15-0.2,0.28-0.34,0.37l-1.11,0.91c-0.12,0.08-0.29,0.18-0.51,0.29l-0.09,0.09c-0.78,0.52-1.33,0.78-1.66,0.78
		c-0.26,0-0.57-0.07-0.92-0.22s-0.54-0.32-0.57-0.53l-0.15-0.6c-0.09-0.14-0.13-0.33-0.13-0.57c0-0.12,0.01-0.2,0.03-0.23v-0.09
		l-0.03-0.48c0-0.12,0.09-0.18,0.28-0.18l-0.03-0.4c0-0.04,0.08-0.19,0.26-0.46c0.17-0.27,0.29-0.42,0.34-0.46l0.15-0.19
		c-0.01-0.12,0.06-0.24,0.21-0.37c0.15-0.13,0.26-0.27,0.35-0.4s0.25-0.29,0.5-0.45l0.44-0.44c0.34-0.34,0.71-0.62,1.11-0.82
		c0.06-0.02,0.18-0.12,0.36-0.29s0.39-0.3,0.62-0.39c0.23-0.08,0.45-0.19,0.67-0.32c0.22-0.13,0.39-0.19,0.52-0.19h0.12
		c0.04,0,0.3-0.12,0.78-0.37h0.09c0.04,0,0.13,0.04,0.28,0.12h0.03l0.24-0.12c0.04-0.02,0.09-0.03,0.15-0.03
		c0.61,0,0.94,0.42,1,1.26c0.02,0.18,0.07,0.26,0.15,0.26c0.1,0,0.24-0.18,0.42-0.53s0.56-0.54,1.15-0.54
		c0.42,0,0.63,0.27,0.63,0.81c0,0.63-0.28,1.24-0.85,1.8c-0.04,0.08-0.07,0.17-0.09,0.26l-0.21,0.6v0.03c0,0.06-0.04,0.14-0.12,0.24
		c-0.08,0.1-0.12,0.19-0.12,0.27l0.03,0.37l-0.06,0.41c0,0.19,0.03,0.31,0.1,0.37c0.31-0.08,0.54-0.21,0.68-0.39
		c0.14-0.18,0.24-0.28,0.3-0.3l0.15-0.06C192.88,24.35,192.98,24.22,193.1,24.13z M188.24,24.13c0.04-0.21,0.16-0.38,0.36-0.49
		s0.32-0.23,0.36-0.34c0.19-0.14,0.45-0.38,0.8-0.73s0.52-0.57,0.52-0.64c0-0.03-0.02-0.04-0.06-0.04h-0.03l-0.12,0.07l-0.26-0.03
		l-0.28,0.03l-0.21-0.1l-0.19,0.03l-0.29-0.06c-0.16,0-0.29,0.03-0.4,0.1s-0.33,0.13-0.64,0.21s-0.6,0.21-0.86,0.4
		c-0.25,0.19-0.44,0.29-0.56,0.29c-0.07,0.15-0.3,0.36-0.69,0.63c-0.23,0.08-0.39,0.25-0.45,0.51c-0.25,0.21-0.38,0.32-0.38,0.35
		l-0.1,0.25c-0.08,0.07-0.18,0.12-0.29,0.17c-0.12,0.04-0.19,0.15-0.21,0.31c-0.02,0.16-0.08,0.31-0.2,0.44
		c-0.11,0.13-0.17,0.24-0.17,0.32c0,0.48,0.09,0.72,0.28,0.72c0.08,0,0.24-0.05,0.49-0.15c0.25-0.1,0.39-0.17,0.43-0.21
		s0.12-0.08,0.23-0.12l0.28-0.15c0.04-0.04,0.08-0.06,0.13-0.07s0.1-0.04,0.15-0.1c0.05-0.05,0.14-0.11,0.26-0.18
		c0.13-0.06,0.22-0.15,0.29-0.26c0.17-0.1,0.43-0.25,0.81-0.45l0.31-0.23c0.21-0.1,0.35-0.18,0.4-0.25
		C187.99,24.26,188.09,24.19,188.24,24.13z"/>
	<path d="M209.27,12.39l-0.03,0.16c-0.03,0.17-0.17,0.33-0.41,0.5s-0.49,0.25-0.73,0.25c-0.62,0-0.92-0.29-0.92-0.88
		c0-0.21,0.16-0.46,0.48-0.75s0.74-0.51,1.27-0.62s0.91-0.23,1.14-0.34s0.58-0.2,1.06-0.26c0.08,0.08,0.16,0.12,0.23,0.12
		c0.13,0,0.21-0.04,0.26-0.13s0.16-0.11,0.34-0.07h0.07l0.78-0.21l0.23,0.09c0.04,0,0.09-0.02,0.14-0.06s0.12-0.07,0.2-0.09h0.23
		l0.28-0.06c0.21-0.06,0.34-0.1,0.38-0.13l0.25,0.03c0.19,0,0.49-0.05,0.92-0.15s0.75-0.15,0.97-0.16s0.38-0.02,0.48-0.04
		s0.16-0.03,0.18-0.03c0.06,0,0.13,0.03,0.22,0.09s0.15,0.09,0.19,0.09s0.31-0.06,0.82-0.18h0.09l0.66,0.15
		c0.18-0.1,0.29-0.15,0.35-0.15c0.21,0,0.38,0.07,0.51,0.21l0.28-0.12l0.15,0.03c0.06,0,0.15-0.01,0.26-0.03h0.12
		c0.07,0,0.14,0.01,0.22,0.03c0.02,0.02,0.04,0.03,0.06,0.03c0.1,0,0.18-0.01,0.23-0.03h0.19l0.63,0.15l0.26-0.03
		c0.02,0,0.08,0.03,0.18,0.09l0.16-0.03c0.1,0.07,0.27,0.16,0.53,0.28c0.05-0.02,0.12-0.04,0.22-0.06h0.03
		c0.02,0,0.12,0.06,0.29,0.18l0.42,0.21l0.12-0.06c0.27,0.14,0.41,0.21,0.42,0.23l0.12,0.25c0.12,0.06,0.25,0.14,0.39,0.23
		c0.03,0.1,0.09,0.21,0.17,0.34v0.12c0,0.02,0.08,0.09,0.23,0.21c0.15,0.12,0.23,0.21,0.23,0.27c0,0.02-0.01,0.09-0.03,0.21v0.03
		c0,0.02,0.03,0.08,0.1,0.19s0.1,0.23,0.1,0.38l-0.03,0.21l0.03,0.19l-0.15,0.98c-0.09,0.1-0.15,0.19-0.18,0.29s-0.1,0.16-0.22,0.21
		c-0.12,0.05-0.21,0.15-0.29,0.3c-0.07,0.15-0.18,0.25-0.32,0.3c-0.14,0.05-0.27,0.13-0.39,0.26c-0.12,0.12-0.26,0.18-0.42,0.18
		l-1.57,0.47l-0.18-0.06c-0.18,0.28-0.43,0.42-0.78,0.42c-0.09,0-0.28,0.03-0.59,0.1l-0.29,0.07l-0.24-0.03l-0.54,0.1
		c-0.17,0.03-0.29,0.07-0.37,0.11c-0.08,0.04-0.18,0.07-0.29,0.07l-0.4,0.21c-0.02,0.02-0.05,0.03-0.09,0.03
		c-0.08,0-0.13-0.01-0.15-0.03l-0.21-0.06c-0.08,0.02-0.15,0.05-0.21,0.1s-0.12,0.07-0.18,0.07l-0.18-0.15l-0.28,0.23
		c-0.12,0.02-0.27,0.06-0.47,0.13c-0.13-0.07-0.21-0.1-0.25-0.1l-0.51,0.22L216,17.59l-0.03,0.09c-0.14,0-0.28,0.05-0.42,0.15
		c-0.14,0.1-0.26,0.15-0.36,0.15c-0.07,0-0.14-0.04-0.22-0.12c-0.04,0-0.08-0.02-0.12-0.06c-0.1,0.07-0.17,0.14-0.22,0.21
		c-0.05,0.07-0.16,0.14-0.32,0.21l-0.35-0.1c0,0.03-0.09,0.08-0.28,0.15c-0.19,0.07-0.28,0.13-0.29,0.18l-0.15,0.21
		c-0.07,0.17-0.12,0.3-0.16,0.41s-0.09,0.19-0.15,0.26s-0.11,0.17-0.16,0.33s-0.14,0.33-0.26,0.51l-0.03,0.18
		c-0.06,0.08-0.15,0.17-0.26,0.26l-0.34,0.63c-0.1,0.15-0.15,0.25-0.15,0.31c0,0.15,0.13,0.29,0.4,0.42l1.55,1.32l0.25,0.15h0.03
		l-0.06,0.26c0.08,0.05,0.13,0.07,0.15,0.07c0.06,0,0.09-0.04,0.09-0.13h0.09c0.02,0,0.07,0.04,0.15,0.13l0.16,0.09
		c0.07,0.07,0.2,0.18,0.38,0.34c0.19,0.16,0.28,0.26,0.28,0.32l-0.03,0.12h0.09c0.04-0.04,0.07-0.06,0.09-0.06
		c0.04,0,0.15,0.06,0.32,0.18l0.19,0.09c0.39,0.28,0.63,0.47,0.71,0.57s0.21,0.21,0.37,0.33s0.29,0.26,0.39,0.42l1.69,1.26
		c1.41,1.05,2.2,1.76,2.38,2.11c0.04,0.06,0.13,0.12,0.28,0.18s0.36,0.22,0.63,0.49c0.27,0.27,0.44,0.48,0.5,0.62v0.51
		c0,0.04-0.05,0.09-0.15,0.15l-0.19,0.18c-0.25,0.26-0.47,0.4-0.66,0.4c-0.46,0-0.8-0.1-1.01-0.31l-0.07-0.03h-0.15
		c-0.16,0-0.24-0.14-0.26-0.41l-0.06-0.19c-0.49-0.16-0.86-0.41-1.11-0.75l-0.83-0.78c-0.02-0.02-0.18-0.21-0.48-0.56
		c-0.3-0.36-0.57-0.61-0.8-0.77s-0.41-0.32-0.54-0.48s-0.31-0.32-0.53-0.47s-0.45-0.39-0.7-0.74s-0.38-0.53-0.41-0.55
		c-0.44-0.23-0.65-0.49-0.63-0.78c-0.06-0.04-0.2-0.08-0.42-0.12c-0.12-0.13-0.19-0.2-0.22-0.21s-0.05-0.02-0.07-0.04l0.03-0.23
		c-0.29-0.09-0.5-0.2-0.62-0.33c-0.12-0.13-0.27-0.31-0.47-0.54s-0.36-0.4-0.5-0.52s-0.22-0.22-0.23-0.29
		c-0.01-0.07-0.1-0.15-0.28-0.25c-0.07,0.12-0.14,0.21-0.22,0.28c-0.08,0.07-0.14,0.15-0.18,0.23l-0.06,0.09
		c-0.14,0.14-0.21,0.29-0.21,0.45c-0.15,0.12-0.24,0.33-0.28,0.63l-0.66,1.49l-0.12,0.54l-0.09,0.92c-0.03,0.26-0.14,0.4-0.33,0.4
		l-0.29,0.03c-0.08-0.04-0.26-0.08-0.55-0.11c-0.29-0.03-0.52-0.32-0.71-0.86c-0.02-0.06-0.08-0.16-0.17-0.29
		c-0.09-0.14-0.14-0.26-0.14-0.37c0-0.08,0.03-0.21,0.09-0.38l0.06-0.34c0-0.06,0.12-0.34,0.37-0.83l0.78-1.48l0.38-0.57
		c0.05-0.08,0.1-0.23,0.16-0.45c0.06-0.22,0.15-0.4,0.27-0.55s0.18-0.25,0.18-0.32c0-0.12-0.09-0.23-0.27-0.35
		c-0.18-0.12-0.28-0.23-0.3-0.34l-0.06-0.15c-0.52-0.3-0.78-0.64-0.78-1.03c0-0.21,0.26-0.46,0.78-0.77
		c0.52-0.31,0.87-0.48,1.05-0.52c0.18-0.04,0.36-0.11,0.53-0.21l0.25-0.06l0.2-0.18c0.12-0.04,0.26-0.08,0.43-0.11
		c0.17-0.04,0.32-0.23,0.44-0.6c0.12-0.37,0.23-0.58,0.33-0.64c0.2-0.4,0.33-0.7,0.4-0.91c0.02-0.04,0.08-0.13,0.17-0.27
		s0.19-0.38,0.28-0.7c0.1-0.33,0.17-0.49,0.21-0.49s0.12-0.02,0.23-0.06l-0.15-0.4c0-0.04,0.04-0.1,0.12-0.18
		c-0.14-0.17-0.2-0.37-0.2-0.6c0-0.38,0.27-0.57,0.8-0.57c0.1,0,0.29,0.09,0.58,0.26c0.29,0.17,0.45,0.3,0.47,0.37
		s0.08,0.2,0.19,0.37s0.16,0.31,0.16,0.43c0,0.38-0.06,0.63-0.19,0.75s-0.26,0.38-0.4,0.78l-0.4,1.11l-0.06,0.28l-0.07,0.12
		l0.37-0.09c0.08-0.21,0.41-0.34,1-0.37l0.92-0.29h0.28l0.9-0.25c0.04,0,0.18-0.02,0.43-0.06h0.09l0.18-0.03
		c0.04,0.02,0.08,0.06,0.12,0.12h0.06c0.11,0,0.17-0.06,0.18-0.19s0.15-0.19,0.43-0.19c0.04,0,0.08,0.02,0.11,0.07
		c0.04,0.05,0.07,0.07,0.11,0.07c0.02-0.11,0.1-0.18,0.23-0.23c0.13-0.04,0.23-0.07,0.29-0.07l0.23,0.03
		c-0.02-0.02-0.03-0.05-0.03-0.09c0-0.09,0.3-0.18,0.9-0.28c0.17-0.06,0.3-0.13,0.4-0.22c0.1-0.09,0.41-0.21,0.92-0.38l0.88-0.26
		c0.36-0.12,0.61-0.47,0.75-1.05c-0.02-0.02-0.11-0.15-0.26-0.4c0-0.02-0.07-0.03-0.22-0.03c-0.04-0.04-0.11-0.09-0.21-0.14
		s-0.21-0.14-0.34-0.27l-0.18,0.06c-0.14-0.08-0.29-0.14-0.48-0.18s-0.37-0.14-0.58-0.3c-0.08,0.04-0.13,0.06-0.15,0.06
		s-0.13-0.05-0.32-0.15l-0.4-0.18h-0.23l-0.1-0.03c-0.06-0.07-0.11-0.1-0.15-0.1l-0.15,0.03c-0.04,0.02-0.09,0.03-0.15,0.03h-0.25
		c-0.02,0-0.1-0.05-0.23-0.15h-0.48l-0.26,0.06c-0.04,0-0.1-0.04-0.19-0.12l-0.26,0.06l-0.26-0.12l-0.4,0.06
		c-0.08-0.06-0.14-0.09-0.18-0.09l-1.17,0.12c-0.04,0-0.07-0.02-0.1-0.06s-0.08-0.07-0.14-0.09s-0.13-0.06-0.21-0.12
		c-0.21,0.12-0.41,0.18-0.6,0.18l-0.45-0.06L215,10.96h-0.06c-0.02,0-0.11-0.02-0.26-0.06c0,0.04-0.01,0.07-0.03,0.09l-0.22-0.06
		l-0.81,0.15h-0.03l-0.15-0.03c-0.04,0-0.09,0.01-0.17,0.04s-0.13,0.04-0.17,0.04l-0.32-0.03l-0.25,0.06l-0.35-0.03l-0.31,0.22
		h-0.06c-0.04,0-0.08-0.02-0.13-0.05s-0.08-0.05-0.1-0.05l-0.22,0.04l-0.18-0.04c-0.04,0-0.12,0.09-0.23,0.28
		c0,0.02-0.02,0.03-0.06,0.03h-0.03l-0.22-0.06c-0.04,0-0.12,0.07-0.23,0.21c-0.19,0.07-0.37,0.14-0.54,0.22
		c-0.14,0.2-0.25,0.31-0.35,0.35L209.27,12.39z M210.25,19.32h-0.37c-0.06,0-0.16,0.06-0.32,0.17c-0.15,0.11-0.23,0.19-0.23,0.23
		s0.11,0.15,0.34,0.33c0.23,0.18,0.37,0.27,0.43,0.27c0.18,0,0.39-0.4,0.63-1.2l-0.15,0.06l-0.18-0.03
		C210.3,19.24,210.25,19.3,210.25,19.32z"/>
	<path d="M224.52,21.94l0.31-0.25c0.23-0.02,0.36-0.14,0.38-0.37s0.18-0.42,0.48-0.59l0.18-0.25c0.15-0.15,0.55-0.34,1.2-0.57
		c0.17-0.1,0.28-0.19,0.34-0.26c0.02-0.02,0.04-0.03,0.06-0.03l0.23,0.06c0.13,0,0.29-0.03,0.49-0.1s0.39-0.1,0.58-0.1l0.61-0.03
		c0.04,0,0.12,0.03,0.24,0.09s0.27,0.09,0.45,0.09c0.21,0,0.41,0.1,0.59,0.29s0.27,0.38,0.27,0.54c0,0.3-0.16,0.61-0.47,0.92
		s-0.56,0.49-0.75,0.53c-0.17,0.17-0.29,0.27-0.38,0.32c-0.09,0.04-0.18,0.11-0.27,0.21s-0.17,0.14-0.23,0.14
		c-0.04,0-0.07-0.01-0.09-0.04c-0.02-0.02-0.05-0.04-0.09-0.04c-0.16,0-0.33,0.19-0.51,0.57l-0.26-0.03
		c-0.17,0.11-0.27,0.22-0.32,0.35c-0.05,0.13-0.15,0.19-0.31,0.19c-0.36,0.36-0.6,0.54-0.73,0.54c-0.02,0-0.09-0.02-0.21-0.06
		c-0.08,0.1-0.12,0.2-0.12,0.31c0,0.12-0.08,0.19-0.23,0.21l-0.19,0.18l-0.15-0.03l-0.29,0.31c-0.15,0-0.3,0.05-0.45,0.15
		c-0.02,0.12-0.05,0.27-0.09,0.45c-0.04,0.18-0.06,0.28-0.06,0.3c0,0.28,0.26,0.42,0.78,0.42l0.7-0.1c0.19,0,0.36-0.05,0.52-0.15
		s0.33-0.15,0.52-0.15c0.06,0,0.15-0.02,0.26-0.06l0.15,0.06c0.07-0.15,0.2-0.28,0.38-0.4s0.33-0.18,0.44-0.18l0.15-0.09
		c0.04-0.12,0.1-0.2,0.18-0.23l0.12-0.1c0.08-0.08,0.15-0.12,0.22-0.12h0.21l0.06-0.03c0.12-0.25,0.28-0.4,0.49-0.45
		c0.21-0.04,0.34-0.12,0.4-0.21s0.15-0.16,0.29-0.18c0.14-0.02,0.25-0.08,0.34-0.2s0.21-0.22,0.34-0.32
		c0.14-0.1,0.23-0.17,0.29-0.22s0.1-0.07,0.14-0.07c0.06,0,0.09,0.04,0.09,0.13s0.02,0.13,0.06,0.13s0.06-0.02,0.06-0.06
		s-0.01-0.09-0.03-0.15v-0.1c0-0.15,0.08-0.24,0.23-0.29l0.66-0.42c0.02-0.21,0.08-0.32,0.17-0.36s0.16-0.07,0.21-0.12
		c0.05-0.04,0.1-0.07,0.16-0.07c0.13,0,0.19,0.07,0.19,0.22l-0.07,0.38l0.07,0.4c0,0.06-0.05,0.14-0.14,0.24
		c-0.09,0.1-0.16,0.26-0.21,0.47s-0.11,0.32-0.19,0.34h-0.09c-0.18,0.19-0.32,0.3-0.42,0.33s-0.18,0.09-0.24,0.18l-0.5,0.57
		c-0.1,0.1-0.18,0.19-0.25,0.26s-0.12,0.12-0.16,0.12l-0.12-0.12c0-0.02-0.02-0.03-0.06-0.03c-0.1,0-0.16,0.06-0.18,0.18
		s-0.08,0.22-0.15,0.31c-0.29,0.14-0.48,0.26-0.57,0.38l-0.09,0.03h-0.26c-0.13,0-0.21,0.09-0.26,0.29
		c-0.05,0.19-0.19,0.3-0.42,0.33s-0.39,0.09-0.49,0.18c-0.02,0.02-0.06,0.04-0.13,0.06s-0.21,0.1-0.41,0.23l-1.23,0.44
		c-0.1,0.05-0.16,0.07-0.19,0.07l-0.41,0.06c-0.06,0-0.12-0.04-0.18-0.12s-0.1-0.12-0.12-0.12l-0.26,0.09
		c-0.2,0.06-0.38,0.09-0.56,0.09c-0.1,0-0.21-0.03-0.32-0.1s-0.21-0.12-0.28-0.15c-0.28,0-0.48-0.22-0.6-0.66l-0.18,0.03
		c-0.04,0-0.17-0.35-0.4-1.04c-0.06-0.08-0.15-0.13-0.28-0.17c-0.13-0.03-0.19-0.13-0.19-0.29c0-0.44,0.09-0.73,0.29-0.89
		c0.19-0.15,0.3-0.27,0.32-0.34l0.21-0.76c0.04-0.03,0.09-0.13,0.15-0.29l0.34-0.62C224.3,22.39,224.38,22.22,224.52,21.94z
		 M227.62,21.06l-0.18,0.09c-0.04,0.02-0.15,0.11-0.34,0.26s-0.38,0.27-0.56,0.37c-0.18,0.09-0.37,0.33-0.56,0.73
		s-0.29,0.62-0.29,0.67s0.03,0.09,0.09,0.09l0.5-0.22c0.19-0.09,0.36-0.2,0.52-0.34s0.39-0.3,0.7-0.5l0.12-0.12
		c0.02-0.04,0.11-0.11,0.27-0.21c0.16-0.1,0.28-0.2,0.36-0.3l0.15-0.06c0.17-0.26,0.33-0.42,0.51-0.48s0.26-0.12,0.26-0.18
		c0-0.12-0.09-0.18-0.28-0.18c-0.08,0-0.2,0.05-0.35,0.15h-0.34c-0.04,0-0.15,0.06-0.32,0.18L227.62,21.06z"/>
	<path d="M234.57,20.92l0.21-0.37c0.06-0.09,0.13-0.18,0.23-0.27c0.09-0.09,0.19-0.33,0.3-0.72c0.11-0.39,0.23-0.65,0.36-0.8
		s0.33-0.22,0.58-0.22c0.15,0,0.34,0.07,0.58,0.21c0.24,0.14,0.47,0.57,0.7,1.28s0.34,1.22,0.34,1.51c0,0.12,0.03,0.27,0.1,0.45
		s0.11,0.32,0.13,0.42c-0.08,0.17-0.12,0.26-0.12,0.28l0.03,0.6l-0.18,0.48v0.35c-0.12,0.2-0.18,0.32-0.18,0.37
		c0,0.06,0.02,0.12,0.06,0.18c0.46-0.2,0.74-0.35,0.83-0.48s0.19-0.2,0.29-0.23s0.25-0.16,0.46-0.38l0.28-0.15
		c0.1-0.12,0.18-0.22,0.25-0.32c0.07-0.09,0.15-0.16,0.24-0.2s0.2-0.11,0.33-0.21s0.31-0.21,0.56-0.34l0.15-0.18
		c0.15-0.17,0.32-0.3,0.52-0.4c0.2-0.1,0.31-0.15,0.33-0.15c0.07,0,0.14,0.09,0.21,0.27c0.07,0.18,0.11,0.36,0.11,0.53
		c0,0.17-0.1,0.33-0.29,0.49c-0.19,0.16-0.32,0.28-0.39,0.36c-0.07,0.08-0.22,0.15-0.47,0.21c-0.02,0.01-0.18,0.21-0.48,0.6
		l-0.29,0.18l-0.15,0.19c-0.02,0.04-0.15,0.08-0.39,0.12c-0.01,0-0.03,0.05-0.07,0.15s-0.14,0.17-0.31,0.21
		c-0.35,0.32-0.53,0.5-0.54,0.54l-0.31,0.06c-0.06,0.19-0.11,0.3-0.15,0.34c-0.23,0.06-0.37,0.16-0.4,0.29
		c-0.03,0.02-0.08,0.04-0.15,0.06l-0.06,0.04c-0.22,0.18-0.44,0.28-0.66,0.32l-0.34,0.09l-0.12,0.18c0,0.05-0.12,0.11-0.36,0.19
		c-0.24,0.08-0.42,0.18-0.53,0.29l-0.25,0.19c-0.3,0.12-0.49,0.22-0.57,0.32h-0.21c-0.14,0-0.35,0.1-0.64,0.3s-0.53,0.3-0.7,0.3
		c-0.57,0-0.95-0.07-1.16-0.21c-0.21-0.14-0.38-0.32-0.52-0.53s-0.26-0.38-0.37-0.51s-0.17-0.23-0.17-0.31
		c0-0.07,0.05-0.14,0.14-0.21s0.19-0.21,0.3-0.42s0.38-0.34,0.82-0.4c0.02,0,0.09-0.03,0.21-0.09s0.22-0.09,0.3-0.09
		c0.1,0,0.22,0.09,0.37,0.26c0,0.02,0.02,0.03,0.06,0.03l0.23-0.03c0.11,0.08,0.18,0.12,0.22,0.12c0.23,0,0.48-0.12,0.75-0.35
		l0.06-0.03h0.12c0.03,0,0.08-0.08,0.15-0.25l0.25-0.51l0.51-0.66v-0.15c0-0.03,0.03-0.12,0.09-0.26v-0.22
		c0-0.09,0.06-0.14,0.18-0.17c0.12-0.02,0.17-0.08,0.17-0.18l-0.03-0.12c-0.08-0.11-0.12-0.19-0.12-0.25l0.15-0.29l-0.03-0.31
		l0.06-0.12c-0.04-0.14-0.06-0.21-0.06-0.23l0.06-0.37c0-0.01-0.03-0.1-0.08-0.28s-0.1-0.26-0.12-0.26c-0.06,0-0.24,0.15-0.56,0.45
		c-0.31,0.3-0.5,0.52-0.56,0.64s-0.18,0.24-0.37,0.34c-0.19,0.1-0.32,0.22-0.39,0.34c-0.07,0.13-0.15,0.2-0.25,0.22l-0.98,0.79
		l-1.07,0.79c-0.08,0.09-0.13,0.13-0.15,0.13c-0.36,0-0.54-0.2-0.54-0.6c0-0.13,0.07-0.36,0.22-0.69c0.07-0.04,0.12-0.07,0.15-0.09
		s0.05-0.03,0.05-0.04s-0.01-0.01-0.03-0.01l0.09,0.06h0.03c0.36-0.24,0.6-0.39,0.7-0.42s0.21-0.15,0.29-0.32l0.62-0.44
		c0.16-0.12,0.4-0.33,0.72-0.64S234.48,21.06,234.57,20.92z"/>
	<path d="M244.53,14.68l0.21-0.06l0.15-0.15h0.03l0.13,0.06h0.03c0.23,0,0.44-0.05,0.62-0.14s0.33-0.16,0.46-0.2s0.2-0.07,0.23-0.09
		s0.05-0.03,0.07-0.03l0.24,0.03c0.08,0,0.18-0.14,0.32-0.42c0.13-0.28,0.28-0.48,0.45-0.61s0.33-0.37,0.5-0.72
		c0.04-0.05,0.08-0.12,0.13-0.23c0.05-0.1,0.09-0.15,0.12-0.15c0.15,0,0.26-0.09,0.35-0.28c0.29-0.34,0.53-0.51,0.72-0.51
		c0.24,0,0.41,0.23,0.51,0.7l0.15,0.56c0,0.01-0.02,0.08-0.07,0.21s-0.07,0.26-0.07,0.4s0,0.22-0.01,0.26s-0.02,0.1-0.02,0.15
		c0,0.08,0.08,0.12,0.25,0.12c0.06,0,0.17-0.04,0.32-0.12l0.09-0.03c0.1,0.06,0.18,0.09,0.25,0.09c0.02,0,0.16-0.05,0.42-0.15
		s0.42-0.15,0.49-0.16s0.19-0.05,0.35-0.12h0.18l0.12,0.04c0.04,0,0.12-0.04,0.24-0.12s0.35-0.13,0.7-0.15l0.21-0.09h0.06
		c0.32,0,0.48,0.14,0.48,0.42c0,0.06-0.05,0.16-0.14,0.31s-0.17,0.31-0.23,0.5l-0.67,0.85c-0.22,0.29-0.45,0.44-0.67,0.44
		c-0.04,0-0.16-0.13-0.37-0.4c0-0.02-0.02-0.03-0.06-0.03c-0.1,0-0.2,0.02-0.31,0.06s-0.2,0.06-0.26,0.06
		c-0.03,0-0.29,0.07-0.78,0.22l-0.35,0.06c-0.04,0-0.13,0.02-0.28,0.06l-0.75,0.15c-0.25,0.13-0.46,0.37-0.6,0.72
		c0,0.02-0.05,0.06-0.15,0.13l-0.66,1.2c-0.21,0.06-0.36,0.19-0.42,0.38L247.15,18c-0.11,0.02-0.21,0.08-0.29,0.18
		c-0.09,0.1-0.17,0.18-0.25,0.24l-0.26,0.4c-0.11,0.14-0.21,0.29-0.32,0.45c-0.11,0.16-0.19,0.33-0.23,0.51
		c-0.05,0.18-0.09,0.29-0.12,0.32s-0.04,0.08-0.04,0.16l-0.04,0.12c-0.12,0.12-0.18,0.25-0.18,0.4l0.06,0.23
		c-0.14,0.47-0.21,0.72-0.21,0.75c0,0.02,0.01,0.07,0.03,0.16V22c0,0.21-0.08,0.48-0.23,0.81l0.03,0.23l-0.09,0.66
		c0,0.09,0.03,0.25,0.09,0.48c-0.04,0.04-0.06,0.07-0.06,0.09c0,0.27,0.14,0.57,0.43,0.9c0.29,0.33,0.43,0.84,0.43,1.53
		c0,0.06-0.01,0.14-0.04,0.26c-0.03,0.11-0.05,0.23-0.06,0.37c-0.01,0.13-0.09,0.26-0.23,0.39s-0.26,0.19-0.36,0.19
		c-0.52,0-0.91-0.38-1.16-1.13c-0.25-0.75-0.38-1.24-0.38-1.45l0.03-0.57l-0.09-0.29l0.09-1.29l-0.06-0.31l0.34-1.26v-0.45
		c0-0.02,0.07-0.1,0.21-0.23c0-0.02-0.02-0.03-0.06-0.03c-0.06,0-0.14,0.06-0.24,0.18c-0.1,0.12-0.22,0.23-0.37,0.34l-0.12,0.21
		c-0.02-0.02-0.06-0.04-0.12-0.06c-0.05,0.02-0.21,0.25-0.48,0.69c-0.21,0.03-0.37,0.15-0.48,0.35c-0.12,0.21-0.28,0.31-0.48,0.31
		l-0.06,0.03c-0.04,0.28-0.18,0.42-0.41,0.42l-0.06,0.03c-0.15,0.33-0.3,0.49-0.46,0.48c-0.1,0.29-0.34,0.49-0.72,0.6
		c-0.06,0.12-0.14,0.21-0.26,0.26c-0.11,0.06-0.19,0.11-0.24,0.16c-0.05,0.05-0.09,0.07-0.13,0.07c-0.13,0-0.19-0.14-0.19-0.41
		c0-0.08,0.03-0.16,0.1-0.26c0.06-0.09,0.09-0.16,0.09-0.2c0-0.02-0.05-0.08-0.15-0.18c0-0.3,0.08-0.49,0.23-0.57
		c0.16-0.08,0.27-0.19,0.35-0.34c0.05-0.12,0.15-0.2,0.29-0.25s0.22-0.11,0.22-0.19c0-0.07,0.13-0.21,0.38-0.41
		c0.25-0.21,0.44-0.38,0.56-0.54c0.12-0.15,0.22-0.23,0.29-0.23l0.06-0.06c0.02-0.24,0.11-0.37,0.28-0.37l0.15-0.09l0.03-0.12
		l0.09-0.06h0.12l0.07-0.06c0.02-0.24,0.13-0.43,0.34-0.57c0.21-0.14,0.59-0.52,1.15-1.15c0.56-0.63,0.87-1.03,0.94-1.21
		c0.07-0.18,0.19-0.41,0.37-0.71c0.18-0.3,0.28-0.58,0.3-0.84c-0.02-0.04-0.05-0.08-0.09-0.12l-0.63,0.31c0-0.03-0.1-0.07-0.29-0.13
		c-0.15,0.09-0.25,0.18-0.32,0.26s-0.12,0.13-0.16,0.13l-0.21-0.03l-0.64,0.07c-0.58,0.05-1.01,0.17-1.3,0.35l-0.6,0.18h-0.13
		c-0.08,0-0.2,0.05-0.35,0.15l-0.34-0.03c-0.31,0.17-0.54,0.25-0.69,0.25c-0.02,0-0.08-0.01-0.18-0.03l-1.49,0.41
		c-0.12,0.04-0.38,0.24-0.79,0.6l-0.12,0.03c-0.1,0-0.21-0.11-0.34-0.33c-0.13-0.22-0.2-0.42-0.2-0.59c0-0.97,0.83-1.53,2.49-1.68
		l0.6-0.23h0.03l0.16,0.06h0.06c0.06,0,0.15-0.04,0.28-0.11c0.13-0.07,0.41-0.16,0.85-0.27l0.6-0.16l0.19,0.03
		c0.1,0,0.21-0.04,0.33-0.12s0.31-0.13,0.56-0.17s0.42-0.07,0.52-0.11l0.23-0.06c0.04,0,0.12-0.03,0.24-0.1s0.28-0.1,0.48-0.1
		C244.34,14.62,244.42,14.64,244.53,14.68z"/>
	<path d="M251.35,20.8l0.22-0.06l0.09-0.19c0.48-0.28,0.82-0.55,1.03-0.81c0.02-0.04,0.06-0.08,0.13-0.12s0.14-0.11,0.22-0.21
		c0.36-0.36,0.79-0.54,1.29-0.54c0.59,0,0.9,0.36,0.94,1.07l0.09,0.22c0.08,0.14,0.19,0.42,0.33,0.83s0.21,0.68,0.21,0.78
		c0,0.26-0.08,0.53-0.25,0.79c-0.14,0.07-0.46,0.43-0.98,1.1l-0.15,0.1c-0.08,0.18-0.18,0.35-0.31,0.53
		c-0.2,0.07-0.29,0.14-0.29,0.22v0.26c0,0.02-0.02,0.06-0.07,0.12s-0.11,0.17-0.18,0.34l-0.12,0.18c-0.04,0.04-0.08,0.12-0.12,0.24
		s-0.09,0.23-0.17,0.33s-0.11,0.18-0.11,0.23c0,0.15,0.19,0.22,0.57,0.22c0.02,0,0.09-0.03,0.22-0.09l0.21,0.06
		c0.02,0,0.07-0.03,0.15-0.1c0.08-0.06,0.2-0.11,0.36-0.15s0.3-0.1,0.42-0.18s0.27-0.15,0.44-0.21s0.33-0.15,0.49-0.29
		c0.16-0.13,0.31-0.23,0.46-0.29s0.29-0.15,0.42-0.27c0.13-0.12,0.28-0.24,0.45-0.34s0.43-0.34,0.79-0.7
		c0.23-0.19,0.4-0.29,0.48-0.31c0.02,0,0.1-0.13,0.26-0.39s0.33-0.39,0.52-0.39c0.21,0,0.31,0.1,0.31,0.29
		c0,0.11-0.05,0.21-0.15,0.31v0.09l0.03,0.23c0.02,0.03,0.03,0.07,0.03,0.13c0,0.04-0.04,0.1-0.11,0.18
		c-0.07,0.08-0.12,0.18-0.15,0.3s-0.12,0.2-0.28,0.24c-0.06,0.21-0.13,0.34-0.23,0.37s-0.22,0.13-0.39,0.29s-0.4,0.36-0.7,0.59
		s-0.51,0.4-0.62,0.52c-0.11,0.12-0.19,0.18-0.23,0.18c-0.02,0-0.06-0.02-0.12-0.06s-0.1-0.06-0.12-0.06c-0.06,0-0.1,0.07-0.12,0.21
		l-0.06,0.15c-0.13,0.08-0.2,0.12-0.22,0.12l-0.09-0.03h-0.06c-0.12,0-0.18,0.04-0.18,0.13l0.09,0.15v0.03
		c0,0.14-0.08,0.21-0.23,0.21c-0.11,0-0.42,0.18-0.94,0.54l-0.42,0.09l-0.35,0.19c-0.12-0.07-0.19-0.1-0.22-0.1l-0.23,0.07
		l-0.42,0.03c-0.01,0-0.19-0.1-0.53-0.29s-0.55-0.39-0.62-0.59s-0.16-0.39-0.26-0.59s-0.16-0.34-0.16-0.42c0-0.47,0.04-0.8,0.12-1
		c0.08-0.2,0.13-0.35,0.15-0.45s0.08-0.2,0.17-0.32c0.09-0.11,0.17-0.29,0.23-0.55c0.28-0.57,0.48-0.91,0.59-1.04
		s0.19-0.28,0.25-0.47l0.19-0.26c0.02-0.02,0.05-0.09,0.09-0.23c0.04-0.13,0.09-0.21,0.15-0.23c0.08-0.14,0.12-0.22,0.12-0.26
		c0-0.28-0.13-0.42-0.38-0.42c-0.05,0-0.1,0.05-0.16,0.15c-0.06,0.1-0.19,0.2-0.4,0.3s-0.34,0.17-0.39,0.22s-0.15,0.11-0.31,0.18
		c-0.16,0.07-0.3,0.19-0.42,0.34l-0.25,0.12c-0.08,0.19-0.15,0.29-0.21,0.31s-0.24,0.07-0.54,0.15c-0.02,0.01-0.07,0.07-0.15,0.18
		s-0.19,0.16-0.34,0.16c-0.12,0.12-0.24,0.25-0.35,0.41c-0.04,0-0.14,0.04-0.31,0.12l-0.29,0.07c-0.08,0.06-0.16,0.15-0.26,0.28
		s-0.27,0.19-0.52,0.19c-0.15,0-0.22-0.12-0.22-0.35c0-0.48,0.17-0.86,0.5-1.14c0.34-0.28,0.58-0.43,0.74-0.45s0.25-0.08,0.29-0.18
		s0.13-0.18,0.29-0.24s0.33-0.21,0.53-0.43c0.2-0.22,0.42-0.37,0.65-0.45L251.35,20.8z"/>
	<path d="M261.33,21.94l0.31-0.25c0.23-0.02,0.36-0.14,0.38-0.37s0.18-0.42,0.48-0.59l0.18-0.25c0.15-0.15,0.55-0.34,1.2-0.57
		c0.17-0.1,0.28-0.19,0.34-0.26c0.02-0.02,0.04-0.03,0.06-0.03l0.23,0.06c0.13,0,0.29-0.03,0.49-0.1s0.39-0.1,0.58-0.1l0.61-0.03
		c0.04,0,0.12,0.03,0.24,0.09s0.27,0.09,0.45,0.09c0.21,0,0.41,0.1,0.59,0.29s0.27,0.38,0.27,0.54c0,0.3-0.16,0.61-0.47,0.92
		s-0.56,0.49-0.75,0.53c-0.17,0.17-0.29,0.27-0.38,0.32c-0.09,0.04-0.18,0.11-0.27,0.21s-0.17,0.14-0.23,0.14
		c-0.04,0-0.07-0.01-0.09-0.04c-0.02-0.02-0.05-0.04-0.09-0.04c-0.16,0-0.33,0.19-0.51,0.57l-0.26-0.03
		c-0.17,0.11-0.27,0.22-0.32,0.35c-0.05,0.13-0.15,0.19-0.31,0.19c-0.36,0.36-0.6,0.54-0.73,0.54c-0.02,0-0.09-0.02-0.21-0.06
		c-0.08,0.1-0.12,0.2-0.12,0.31c0,0.12-0.08,0.19-0.23,0.21l-0.19,0.18l-0.15-0.03l-0.29,0.31c-0.15,0-0.3,0.05-0.45,0.15
		c-0.02,0.12-0.05,0.27-0.09,0.45c-0.04,0.18-0.06,0.28-0.06,0.3c0,0.28,0.26,0.42,0.78,0.42l0.7-0.1c0.19,0,0.36-0.05,0.52-0.15
		s0.33-0.15,0.52-0.15c0.06,0,0.15-0.02,0.26-0.06l0.15,0.06c0.07-0.15,0.2-0.28,0.38-0.4s0.33-0.18,0.44-0.18l0.15-0.09
		c0.04-0.12,0.1-0.2,0.18-0.23l0.12-0.1c0.08-0.08,0.15-0.12,0.22-0.12h0.21l0.06-0.03c0.12-0.25,0.28-0.4,0.49-0.45
		c0.21-0.04,0.34-0.12,0.4-0.21s0.15-0.16,0.29-0.18c0.14-0.02,0.25-0.08,0.34-0.2s0.21-0.22,0.34-0.32
		c0.14-0.1,0.23-0.17,0.29-0.22s0.1-0.07,0.14-0.07c0.06,0,0.09,0.04,0.09,0.13s0.02,0.13,0.06,0.13s0.06-0.02,0.06-0.06
		s-0.01-0.09-0.03-0.15v-0.1c0-0.15,0.08-0.24,0.23-0.29l0.66-0.42c0.02-0.21,0.08-0.32,0.17-0.36s0.16-0.07,0.21-0.12
		c0.05-0.04,0.1-0.07,0.16-0.07c0.13,0,0.19,0.07,0.19,0.22l-0.07,0.38l0.07,0.4c0,0.06-0.05,0.14-0.14,0.24
		c-0.09,0.1-0.16,0.26-0.21,0.47s-0.11,0.32-0.19,0.34h-0.09c-0.18,0.19-0.32,0.3-0.42,0.33s-0.18,0.09-0.24,0.18l-0.5,0.57
		c-0.1,0.1-0.18,0.19-0.25,0.26s-0.12,0.12-0.16,0.12L268,25.27c0-0.02-0.02-0.03-0.06-0.03c-0.1,0-0.16,0.06-0.18,0.18
		s-0.08,0.22-0.15,0.31c-0.29,0.14-0.48,0.26-0.57,0.38l-0.09,0.03h-0.26c-0.13,0-0.21,0.09-0.26,0.29
		c-0.05,0.19-0.19,0.3-0.42,0.33s-0.39,0.09-0.49,0.18c-0.02,0.02-0.06,0.04-0.13,0.06s-0.21,0.1-0.41,0.23l-1.23,0.44
		c-0.1,0.05-0.16,0.07-0.19,0.07l-0.41,0.06c-0.06,0-0.12-0.04-0.18-0.12s-0.1-0.12-0.12-0.12l-0.26,0.09
		c-0.2,0.06-0.38,0.09-0.56,0.09c-0.1,0-0.21-0.03-0.32-0.1s-0.21-0.12-0.28-0.15c-0.28,0-0.48-0.22-0.6-0.66l-0.18,0.03
		c-0.04,0-0.17-0.35-0.4-1.04c-0.06-0.08-0.15-0.13-0.28-0.17c-0.13-0.03-0.19-0.13-0.19-0.29c0-0.44,0.09-0.73,0.29-0.89
		c0.19-0.15,0.3-0.27,0.32-0.34l0.21-0.76c0.04-0.03,0.09-0.13,0.15-0.29l0.34-0.62C261.11,22.39,261.2,22.22,261.33,21.94z
		 M264.43,21.06l-0.18,0.09c-0.04,0.02-0.15,0.11-0.34,0.26s-0.38,0.27-0.56,0.37c-0.18,0.09-0.37,0.33-0.56,0.73
		s-0.29,0.62-0.29,0.67s0.03,0.09,0.09,0.09l0.5-0.22c0.19-0.09,0.36-0.2,0.52-0.34s0.39-0.3,0.7-0.5l0.12-0.12
		c0.02-0.04,0.11-0.11,0.27-0.21c0.16-0.1,0.28-0.2,0.36-0.3l0.15-0.06c0.17-0.26,0.33-0.42,0.51-0.48s0.26-0.12,0.26-0.18
		c0-0.12-0.09-0.18-0.28-0.18c-0.08,0-0.2,0.05-0.35,0.15H265c-0.04,0-0.15,0.06-0.32,0.18L264.43,21.06z"/>
	<path d="M270.55,27.07l0.16-0.22c0.06-0.08,0.09-0.17,0.09-0.26l0.35-1.04c0.13-0.37,0.2-0.58,0.22-0.62l0.06-0.29l0.18-0.34
		l0.06-0.38c0.04-0.28,0.18-0.7,0.42-1.26l0.03-0.22l0.12-0.32v-0.06c0-0.1-0.03-0.15-0.09-0.15h-0.12c-0.18,0-0.27,0.04-0.29,0.12
		l-0.1,0.41c0,0.15-0.09,0.22-0.26,0.22c-0.02,0-0.07-0.01-0.15-0.04s-0.13-0.04-0.15-0.04c-0.06,0.12-0.14,0.26-0.23,0.44
		c-0.1,0.04-0.26,0.14-0.48,0.31l-0.15,0.03c-0.11,0.16-0.27,0.32-0.48,0.48l-0.06,0.09c-0.14,0.21-0.33,0.32-0.57,0.32
		c-0.32,0-0.48-0.22-0.48-0.66c0-0.27,0.13-0.48,0.4-0.62s0.43-0.27,0.51-0.38s0.29-0.27,0.63-0.46l0.15-0.21
		c0.08-0.11,0.15-0.16,0.21-0.16l0.25-0.09c0.04-0.04,0.13-0.06,0.26-0.06l-0.03-0.21c0-0.06,0.12-0.12,0.37-0.19
		c0.06-0.06,0.19-0.17,0.4-0.32s0.57-0.58,1.09-1.26c0.04-0.1,0.11-0.17,0.23-0.23c0.11-0.05,0.21-0.12,0.29-0.2h0.29
		c0.08,0,0.25,0.13,0.53,0.4s0.41,0.6,0.41,1.01l-0.42,1.89l0.03,0.13l-0.03,0.12c0,0.04,0.02,0.06,0.06,0.06s0.12-0.08,0.25-0.23
		c0.06-0.19,0.18-0.33,0.36-0.42c0.18-0.1,0.32-0.2,0.4-0.32c0.09-0.11,0.21-0.21,0.36-0.3s0.35-0.23,0.6-0.43
		c0.25-0.2,0.48-0.31,0.68-0.33l0.15-0.09l0.06-0.22c0.18-0.14,0.37-0.26,0.57-0.38L278,19.8c0.42-0.14,0.73-0.21,0.94-0.21
		c0.1,0,0.19-0.04,0.26-0.12l0.34,0.15c0.02,0,0.06-0.03,0.12-0.09c0-0.02,0.02-0.03,0.06-0.03c0.4,0,0.74,0.16,1.02,0.47
		c0.28,0.31,0.42,0.65,0.42,1.03c0,0.02-0.01,0.06-0.04,0.13s-0.04,0.13-0.04,0.18l0.09,0.23v0.03l-0.32,0.83
		c-0.03,0.1-0.09,0.37-0.18,0.82c-0.19,0.29-0.4,0.57-0.65,0.83s-0.41,0.46-0.49,0.6c0.04,0.04,0.07,0.06,0.1,0.06
		c0.09,0,0.21-0.09,0.38-0.26l0.69-0.42l0.12,0.06c0.14-0.1,0.28-0.21,0.42-0.34c0.15-0.13,0.27-0.2,0.38-0.21
		c0.06-0.08,0.16-0.18,0.31-0.29l0.15-0.16c0.06,0,0.13-0.03,0.2-0.1c0.08-0.07,0.17-0.11,0.27-0.13s0.21-0.1,0.31-0.23
		c0.11-0.13,0.2-0.21,0.27-0.23s0.12-0.06,0.14-0.12c0.33-0.33,0.59-0.51,0.77-0.54l0.18-0.06c0.02-0.02,0.04-0.03,0.06-0.03
		c0.11,0,0.19,0.1,0.25,0.31l-0.19,0.29v0.15l0.04,0.16c0,0.1-0.06,0.22-0.18,0.37c-0.12,0.15-0.25,0.23-0.4,0.23
		c-0.17,0.08-0.27,0.16-0.3,0.26s-0.18,0.23-0.43,0.4s-0.41,0.33-0.47,0.46c-0.06,0.13-0.14,0.2-0.25,0.2l-0.26-0.09
		c-0.22,0.29-0.38,0.43-0.45,0.41h-0.09l-0.06,0.03l-0.18,0.37c-0.11,0.02-0.19,0.05-0.25,0.09l-0.15-0.03
		c-0.6,0.6-0.98,0.89-1.14,0.89l-0.26-0.03c-0.02,0-0.07,0.06-0.14,0.17s-0.13,0.19-0.18,0.24c-0.05,0.05-0.11,0.12-0.19,0.22h-0.31
		c-0.08,0-0.22,0.08-0.44,0.25c0,0.02-0.01,0.03-0.03,0.03L278,26.95h-0.03c-0.1,0-0.22,0.08-0.38,0.23l-0.45,0.18
		c0,0.02-0.01,0.03-0.03,0.03l-0.31-0.06c-0.06,0-0.15,0.05-0.26,0.15l-0.12,0.07c-0.06,0-0.16,0.05-0.31,0.15l-0.47,0.18
		c-0.05-0.02-0.09-0.03-0.13-0.03l-0.26,0.03l-0.23-0.06c-0.05,0-0.12,0.07-0.22,0.21c0,0.02-0.02,0.03-0.06,0.03
		c-0.02,0-0.07-0.01-0.15-0.03h-0.18l-0.34,0.09c-0.08,0-0.22-0.08-0.42-0.23c-0.2-0.16-0.33-0.3-0.39-0.42l-0.15-0.23
		c-0.14-0.06-0.23-0.12-0.28-0.18l-0.12,0.06c-0.01,0.04-0.05,0.1-0.12,0.19s-0.11,0.15-0.11,0.19c0,0.13-0.05,0.3-0.14,0.5
		c-0.09,0.21-0.23,0.58-0.4,1.12l-0.19,0.23c-0.04,0.05-0.06,0.1-0.06,0.15c0,0.09-0.08,0.24-0.24,0.45
		c-0.01,0.24-0.1,0.49-0.28,0.73l-0.06,0.15v0.21c0,0.06-0.1,0.3-0.29,0.72l-0.03,0.31c-0.06,0.01-0.16,0.2-0.3,0.58
		c-0.14,0.38-0.31,0.69-0.51,0.94l-0.13,0.48l-0.15,0.26l-0.09,0.28c-0.02,0.05-0.05,0.09-0.09,0.12l-0.03,0.15l-0.09,0.06
		c0.02,0.15-0.07,0.39-0.28,0.73c0,0.04-0.05,0.11-0.15,0.21c-0.1,0.1-0.21,0.24-0.34,0.43c-0.13,0.19-0.31,0.36-0.56,0.52
		l-0.63,0.4c-0.47,0-0.79-0.25-0.97-0.75c-0.02-0.06-0.11-0.22-0.29-0.48s-0.26-0.65-0.26-1.17l0.13-0.6
		c0.09-0.54,0.19-0.87,0.29-1.01l0.18-0.4c0.02-0.08,0.05-0.15,0.1-0.23c0.05-0.07,0.1-0.19,0.15-0.34s0.19-0.29,0.4-0.43
		c0.14-0.31,0.28-0.58,0.42-0.81l0.21-0.4c0-0.12,0.1-0.24,0.31-0.38c0.09-0.19,0.21-0.37,0.37-0.56c0.16-0.19,0.26-0.3,0.31-0.34
		c0.05-0.04,0.09-0.16,0.13-0.37c0.04-0.21,0.12-0.34,0.26-0.39s0.21-0.11,0.23-0.19l0.15-0.25c0.1-0.08,0.19-0.2,0.29-0.37
		s0.2-0.27,0.31-0.32C270.33,27.19,270.45,27.07,270.55,27.07z M267.11,35.17c0.05-0.03,0.3-0.41,0.75-1.14l0.15-0.28
		c0.09-0.16,0.17-0.28,0.25-0.38l0.03-0.12c0.05-0.05,0.1-0.12,0.15-0.22l0.81-2.12c0.12-0.31,0.19-0.53,0.23-0.67
		c0.03-0.13,0.17-0.54,0.4-1.22c-0.06,0.02-0.12,0.09-0.18,0.21c-0.06,0.12-0.11,0.18-0.15,0.18l-0.22,0.03
		c-0.02,0-0.1,0.18-0.23,0.53l-0.06,0.07c-0.15,0.02-0.24,0.1-0.29,0.23l-0.25,0.51V31c0,0.23-0.17,0.45-0.51,0.66
		c-0.11,0.28-0.18,0.42-0.21,0.42h-0.15l0.06,0.26c0,0.22-0.07,0.42-0.2,0.58c-0.13,0.16-0.2,0.25-0.2,0.27l0.03,0.29l-0.03,0.26
		c-0.12,0.28-0.18,0.62-0.18,1.03V35.17z M274.17,25.39l0.51-0.09c0.27-0.06,0.42-0.09,0.45-0.09c0.02,0,0.06,0.01,0.13,0.04
		c0.07,0.03,0.14,0.06,0.23,0.09s0.17,0.14,0.27,0.32c0.48-0.22,0.77-0.39,0.86-0.48s0.18-0.15,0.25-0.15
		c0.02,0,0.05,0.01,0.09,0.03c0.02-0.05,0.04-0.11,0.07-0.18s0.1-0.15,0.21-0.24c0.11-0.09,0.29-0.3,0.52-0.64l0.48-0.54l0.51-0.75
		c0.13-0.2,0.23-0.42,0.32-0.69l0.09-0.19c0.04-0.12,0.06-0.19,0.06-0.21c0-0.07-0.07-0.23-0.21-0.48l-0.37,0.16v-0.03
		c-0.12-0.09-0.21-0.13-0.29-0.13c-0.06,0-0.11,0.04-0.16,0.11c-0.05,0.07-0.12,0.12-0.21,0.14s-0.17,0.06-0.24,0.13
		s-0.16,0.11-0.27,0.12s-0.24,0.08-0.37,0.22l-0.18-0.03l-0.1,0.07l-0.18-0.04c-0.21,0.23-0.35,0.38-0.43,0.43
		c-0.08,0.05-0.2,0.18-0.34,0.39h-0.21c-0.08,0-0.15,0.11-0.22,0.32c-0.1,0.06-0.2,0.15-0.29,0.28l-0.37,0.15
		c-0.08,0.13-0.17,0.22-0.26,0.29l-0.57,0.73c-0.04,0.04-0.08,0.06-0.13,0.07c-0.05,0.01-0.1,0.02-0.15,0.04l0.07,0.29h-0.04
		c-0.23,0.13-0.38,0.35-0.44,0.67l-0.09,0.35c0,0.06,0.02,0.09,0.06,0.09c0.04,0,0.09-0.03,0.16-0.1c0.07-0.07,0.19-0.17,0.37-0.29
		S274.08,25.4,274.17,25.39z"/>
	<path d="M290.17,26.38l-0.69,0.6c-0.04-0.04-0.08-0.06-0.12-0.06c-0.1,0-0.22,0.09-0.36,0.26s-0.24,0.26-0.3,0.26l-0.15-0.03
		c-0.25,0.19-0.42,0.29-0.53,0.32s-0.24,0.08-0.39,0.16s-0.29,0.12-0.41,0.13s-0.22,0.05-0.3,0.12c-0.08,0.07-0.27,0.11-0.57,0.11
		l-0.23-0.03c-0.13,0.06-0.21,0.09-0.25,0.09c-0.08,0-0.16-0.04-0.25-0.12s-0.18-0.13-0.29-0.14s-0.21-0.08-0.31-0.21
		s-0.21-0.21-0.3-0.26s-0.17-0.12-0.23-0.21l-0.21-0.18c-0.17-0.12-0.33-0.33-0.48-0.64s-0.23-0.56-0.23-0.73v-0.06l0.03-0.28
		l-0.03-0.32c0.04-0.04,0.09-0.12,0.15-0.25v-0.47l0.35-1.17c0.02-0.05-0.02-0.11-0.12-0.19c-0.1,0.15-0.2,0.23-0.29,0.26
		c-0.1,0.03-0.16,0.1-0.2,0.21c-0.03,0.11-0.09,0.16-0.17,0.16l-0.18-0.06c-0.02,0.02-0.06,0.12-0.13,0.3
		c-0.07,0.18-0.19,0.27-0.35,0.27c-0.18,0-0.27-0.07-0.27-0.21l0.03-0.26l-0.09-0.37c0-0.08,0.08-0.23,0.23-0.46
		c0.16-0.23,0.3-0.36,0.43-0.39c0.13-0.03,0.24-0.13,0.34-0.28c0.09-0.15,0.3-0.33,0.61-0.55c0.18-0.04,0.33-0.17,0.46-0.38
		c0.14-0.11,0.31-0.2,0.54-0.26c0.22-0.07,0.39-0.17,0.5-0.3c0.11-0.13,0.45-0.34,1-0.62c0.55-0.28,0.96-0.42,1.21-0.42
		c0.08,0,0.19-0.02,0.32-0.07c0.14-0.04,0.26-0.08,0.38-0.12s0.24-0.09,0.37-0.16c0.13-0.07,0.23-0.11,0.31-0.11l0.43,0.15
		c0.31,0.09,0.5,0.15,0.57,0.19c0.02,0.02,0.12,0.06,0.3,0.12c0.18,0.06,0.37,0.15,0.56,0.26c0.19,0.11,0.29,0.31,0.29,0.6
		c-0.17,0.24-0.25,0.38-0.25,0.4c0,0.04,0.11,0.1,0.34,0.18c0.08,0.15,0.2,0.34,0.35,0.57l0.16,0.51l0.03,1.2l-0.03,0.12
		c-0.11,0.1-0.16,0.16-0.16,0.19l0.04,0.29l-0.12,0.41c-0.03,0.13-0.08,0.21-0.15,0.25s-0.11,0.09-0.13,0.15l-0.09,0.12
		c-0.02,0.03-0.06,0.12-0.12,0.26s-0.13,0.25-0.21,0.33s-0.13,0.17-0.15,0.28s-0.07,0.19-0.15,0.23s-0.13,0.1-0.17,0.15
		S290.25,26.34,290.17,26.38z M285.62,26.76l0.06,0.34l0.03,0.03h0.23l0.07,0.03c0.19,0.04,0.34,0.06,0.44,0.06
		c0.3,0,0.54-0.08,0.72-0.23c0.18-0.15,0.32-0.23,0.43-0.23s0.2-0.07,0.27-0.22s0.12-0.22,0.14-0.22h0.21l0.06-0.03
		c0-0.22,0.1-0.39,0.3-0.48c0.2-0.1,0.34-0.23,0.42-0.39c0.08-0.16,0.18-0.28,0.29-0.37c0.11-0.08,0.18-0.19,0.22-0.33l0.12-0.18
		c0.04-0.04,0.06-0.11,0.06-0.22l0.28-0.53c0.06-0.24,0.09-0.43,0.09-0.57c0-0.21-0.11-0.37-0.31-0.48
		c-0.21-0.12-0.31-0.35-0.31-0.69c0-0.22,0.11-0.43,0.34-0.62c0.23-0.19,0.34-0.31,0.34-0.34c0-0.06-0.03-0.09-0.09-0.09
		c-0.03,0-0.14,0.04-0.34,0.12c-0.07,0.14-0.42,0.32-1.04,0.54c-0.21-0.1-0.32-0.15-0.34-0.15c-0.06,0-0.12,0.06-0.18,0.18
		s-0.12,0.2-0.18,0.25h-0.19c-0.02,0-0.08,0.06-0.19,0.19c-0.11,0.13-0.24,0.19-0.41,0.19l-0.17,0.18c0.01,0.16-0.09,0.32-0.29,0.48
		l-0.16,0.19c-0.1,0.12-0.22,0.25-0.38,0.41l-0.26,0.66c-0.11,0.25-0.16,0.44-0.16,0.57c-0.03,0.06-0.09,0.12-0.2,0.18
		c-0.1,0.06-0.15,0.14-0.15,0.24c0,0.02,0.03,0.07,0.1,0.15s0.1,0.14,0.1,0.18l-0.06,0.19l-0.06,0.54L285.62,26.76z"/>
</g>
<g>
	<g>
		<g>
			<path class="st0" d="M16.99,25.17c-0.06-0.09-0.09-0.2-0.09-0.33c0.01-0.21,0.06-0.34,0.13-0.38c0.07-0.04,0.15-0.06,0.25-0.06
				c0.1,0,0.16,0,0.19,0c0.42,0,0.73-0.11,0.92-0.33c0.2-0.22,0.35-0.46,0.47-0.74c0.12-0.27,0.2-0.46,0.24-0.56l3.68-8.7
				c0.08-0.21,0.13-0.38,0.13-0.5c0-0.25-0.1-0.43-0.29-0.55c-0.2-0.11-0.47-0.2-0.82-0.27c-0.24-0.04-0.39-0.08-0.44-0.13
				c-0.06-0.04-0.08-0.16-0.08-0.36c0-0.17,0.05-0.28,0.14-0.34c0.09-0.06,0.23-0.08,0.43-0.08c0.7,0,1.26,0.05,1.67,0.16
				c0.41,0.11,0.77,0.32,1.08,0.63c0.31,0.32,0.6,0.8,0.86,1.44l3.53,8.7c0.21,0.53,0.41,0.93,0.61,1.2
				c0.2,0.27,0.49,0.41,0.88,0.42h0.13c0.14,0,0.24,0.02,0.29,0.07c0.06,0.05,0.09,0.17,0.11,0.37c0,0.13-0.03,0.23-0.09,0.33
				c-0.06,0.09-0.16,0.14-0.28,0.14c-0.9-0.04-1.67-0.06-2.31-0.06c-0.84,0-1.71,0.02-2.61,0.06c-0.13,0-0.22-0.05-0.28-0.14
				c-0.06-0.09-0.09-0.2-0.09-0.33c0.01-0.2,0.05-0.32,0.11-0.37c0.06-0.05,0.15-0.07,0.29-0.07c0.48,0,0.81-0.05,1.01-0.14
				c0.2-0.09,0.29-0.26,0.29-0.49c0-0.18-0.08-0.51-0.25-0.99l-0.71-1.74h-5.19c-0.35,0.87-0.55,1.37-0.6,1.51
				c-0.05,0.14-0.07,0.22-0.07,0.23c-0.17,0.53-0.25,0.88-0.25,1.03c0,0.24,0.1,0.4,0.32,0.47c0.21,0.08,0.61,0.12,1.2,0.12h0.13
				c0.14,0,0.24,0.02,0.29,0.07c0.06,0.05,0.09,0.17,0.11,0.37c0,0.13-0.03,0.23-0.09,0.33c-0.06,0.09-0.16,0.14-0.28,0.14
				c-0.9-0.04-1.66-0.06-2.29-0.06c-0.45,0-1.13,0.02-2.04,0.06C17.15,25.31,17.05,25.26,16.99,25.17z M21.27,20.14h4.41l-2.12-5.4
				h-0.06L21.27,20.14z"/>
			<path class="st1" d="M30.6,25.17c-0.06-0.09-0.09-0.2-0.09-0.33c0.01-0.21,0.06-0.34,0.13-0.38c0.07-0.04,0.2-0.06,0.4-0.06
				c0.41,0,0.71-0.07,0.9-0.22c0.2-0.15,0.32-0.33,0.37-0.55c0.05-0.22,0.08-0.5,0.09-0.85v-8.32c-0.01-0.36-0.05-0.65-0.09-0.86
				c-0.05-0.21-0.17-0.39-0.37-0.55c-0.2-0.15-0.5-0.23-0.9-0.23h-0.13c-0.14,0-0.24-0.02-0.29-0.07c-0.06-0.05-0.09-0.17-0.11-0.37
				c0-0.13,0.03-0.23,0.09-0.33c0.06-0.09,0.16-0.14,0.28-0.14c0.91,0.04,1.74,0.06,2.5,0.06H37c1.08,0.01,1.98,0.19,2.7,0.51
				c0.72,0.33,1.25,0.75,1.59,1.26c0.34,0.51,0.5,1.06,0.5,1.65c0,0.77-0.3,1.48-0.91,2.12c-0.61,0.64-1.44,1.11-2.49,1.39
				l0.36,0.57c0.59,0.95,1.12,1.77,1.6,2.45c0.48,0.68,0.99,1.31,1.55,1.9c0.39,0.32,0.81,0.51,1.26,0.57c0.03,0,0.09,0,0.19,0.01
				c0.1,0.01,0.18,0.05,0.24,0.12c0.06,0.07,0.09,0.18,0.09,0.32c0,0.13-0.03,0.23-0.09,0.33c-0.06,0.09-0.16,0.14-0.28,0.14
				l-0.55-0.02c-0.62-0.03-1.06-0.04-1.34-0.04c-0.56-0.11-1.04-0.31-1.44-0.6c-0.4-0.29-0.8-0.7-1.19-1.23
				c-0.41-0.53-0.97-1.4-1.7-2.61l-0.38-0.61c-0.21-0.32-0.41-0.54-0.61-0.66c-0.2-0.12-0.53-0.18-1.01-0.18h-0.61v3.42
				c0.01,0.35,0.05,0.63,0.09,0.85c0.05,0.22,0.17,0.4,0.37,0.55c0.2,0.15,0.5,0.22,0.9,0.22h0.13c0.13,0,0.22,0.02,0.28,0.07
				c0.06,0.05,0.1,0.17,0.12,0.37c0,0.13-0.03,0.23-0.09,0.33c-0.06,0.09-0.16,0.14-0.28,0.14c-0.9-0.04-1.77-0.06-2.63-0.06
				c-0.74,0-1.57,0.02-2.48,0.06C30.76,25.31,30.67,25.26,30.6,25.17z M36.33,18.54c2.09,0,3.13-0.98,3.13-2.94
				c0-0.8-0.27-1.47-0.82-2.02c-0.55-0.55-1.44-0.82-2.69-0.82c-0.41,0-0.71,0.05-0.92,0.15c-0.21,0.1-0.35,0.27-0.43,0.5
				c-0.08,0.24-0.12,0.6-0.12,1.09v4.03H36.33z"/>
		</g>
	</g>
	<path d="M37.35,8.6l0.21-0.21c0,0-0.01,0-0.01-0.01l-0.21,0.2C37.34,8.59,37.34,8.6,37.35,8.6z"/>
	<path class="st1" d="M13.37,18.47c0,3.79,1.48,7.36,4.16,10.04l0.21-0.21c-2.63-2.63-4.07-6.12-4.07-9.83
		c0-7.67,6.24-13.9,13.9-13.9c3.68,0,7.15,1.43,9.77,4.02l0.21-0.2c-2.67-2.65-6.22-4.1-9.98-4.1
		C19.73,4.28,13.37,10.65,13.37,18.47z"/>
	<path class="st2" d="M42.14,11.18c0.12,0.26,0.25,0.52,0.41,0.77c0.76,0.02,1.53,0.07,2.29,0.14c-0.01-0.03-0.02-0.05-0.03-0.08
		c-0.03-0.05-0.05-0.1-0.08-0.15C43.86,11.65,42.99,11.43,42.14,11.18z"/>
	<path class="st2" d="M44.29,10.81c0,0,0.01,0.01,0.01,0.01C44.3,10.81,44.3,10.81,44.29,10.81C44.29,10.8,44.29,10.8,44.29,10.81z"
		/>
	<path class="st2" d="M42.68,12.16c0.14,0.21,0.3,0.41,0.48,0.6c0.63,0.65,1.44,0.98,2.19,0.93c-0.13-0.47-0.28-0.93-0.44-1.39
		c-0.01,0-0.01,0-0.02,0C44.16,12.23,43.42,12.19,42.68,12.16z"/>
	<path class="st2" d="M46.12,12.19c0.02-0.52-0.14-1.09-0.46-1.63c-0.1,0.56-0.26,1.11-0.46,1.65c0.08,0.21,0.14,0.42,0.21,0.63
		c0.08,0.2,0.15,0.41,0.21,0.62C45.92,13.14,46.1,12.68,46.12,12.19z"/>
	<path class="st2" d="M42.13,8.24c-0.37-0.11-0.73-0.2-1.1-0.29c0.09,0.33,0.18,0.63,0.27,0.93c0.65,0.14,1.19,0.37,1.74,0.68
		C42.78,9.09,42.42,8.59,42.13,8.24z"/>
	<path class="st2" d="M43.21,9.89c-0.61-0.35-1.16-0.62-1.84-0.78c0.15,0.49,0.31,0.93,0.47,1.36c0.06,0.15,0.12,0.31,0.19,0.47
		c0.84,0.24,1.7,0.47,2.56,0.68C44.21,10.98,43.74,10.39,43.21,9.89z"/>
	<path d="M44.85,12.09c-0.01-0.03-0.03-0.06-0.04-0.08c0.01,0.03,0.02,0.05,0.03,0.08C44.84,12.09,44.85,12.09,44.85,12.09z"/>
	<path class="st0" d="M45.83,14.38c-0.04-0.23-0.09-0.46-0.15-0.69c0.38-0.36,0.62-0.91,0.64-1.49c0.02-0.56-0.15-1.17-0.49-1.74
		c-0.17-0.29-0.38-0.56-0.62-0.8c-0.48-0.49-1.12-0.9-1.89-1.22c-0.04-0.02-0.09-0.04-0.13-0.06c-0.11-0.04-0.22-0.08-0.33-0.12
		c-0.64-0.23-1.31-0.39-1.96-0.55c-0.04-0.01-0.07,0-0.1,0.03c-0.03,0.03-0.04,0.06-0.03,0.1c0.29,1.06,0.56,1.91,0.86,2.7
		c0.3,0.78,0.7,1.68,1.37,2.37c0.69,0.7,1.57,1.06,2.39,0.98c0.41,1.54,0.62,3.14,0.62,4.76c0,10.28-8.36,18.64-18.64,18.64
		c-4.96,0-9.67-2-13.12-5.41l-0.2,0.21c3.51,3.47,8.29,5.5,13.33,5.5c10.44,0,18.94-8.5,18.94-18.94
		C46.33,17.2,46.15,15.77,45.83,14.38z M45.07,9.8c0.16,0.16,0.3,0.33,0.43,0.52c-0.09,0.54-0.23,1.08-0.41,1.6
		c-0.01,0.03-0.02,0.07-0.04,0.11c-0.21-0.42-0.46-0.83-0.74-1.21c0,0-0.01-0.01-0.01-0.01c0,0,0,0,0,0
		c0.01-0.01,0.01-0.03,0.01-0.04c0-0.24-0.02-0.49-0.06-0.73c-0.06-0.37-0.16-0.74-0.32-1.08C44.37,9.2,44.75,9.48,45.07,9.8z
		 M43.05,8.54c0.02,0.01,0.04,0.02,0.07,0.02c0.14,0.06,0.28,0.12,0.41,0.18c0.05,0.02,0.1,0.04,0.14,0.06
		c-0.01,0.02-0.01,0.05,0,0.08c0.06,0.13,0.12,0.27,0.17,0.41c0.12,0.34,0.2,0.69,0.23,1.05c0.01,0.07,0.02,0.13,0.02,0.2
		c-0.22-0.27-0.46-0.53-0.71-0.78l0,0c-0.21-0.45-0.58-1-0.91-1.43C42.67,8.41,42.86,8.47,43.05,8.54z M41.03,7.95
		c0.36,0.09,0.73,0.18,1.1,0.29c0.29,0.35,0.65,0.86,0.91,1.32c-0.56-0.31-1.09-0.54-1.74-0.68C41.21,8.58,41.12,8.28,41.03,7.95z
		 M41.84,10.46c-0.16-0.42-0.32-0.87-0.47-1.36c0.68,0.16,1.23,0.43,1.84,0.78c0.54,0.51,1,1.09,1.38,1.73
		c-0.85-0.21-1.71-0.43-2.56-0.68C41.96,10.78,41.9,10.62,41.84,10.46z M42.14,11.18c0.85,0.24,1.72,0.47,2.59,0.68
		c0.03,0.05,0.05,0.1,0.08,0.15c0.01,0.03,0.03,0.06,0.04,0.08c0,0-0.01,0-0.01,0c-0.76-0.07-1.53-0.12-2.29-0.14
		C42.39,11.7,42.26,11.44,42.14,11.18z M43.17,12.76c-0.18-0.19-0.34-0.39-0.48-0.6c0.74,0.02,1.48,0.07,2.21,0.14
		c0.01,0,0.01,0,0.02,0c0.17,0.46,0.31,0.92,0.44,1.39C44.61,13.74,43.8,13.4,43.17,12.76z M45.41,12.84
		c-0.07-0.21-0.14-0.42-0.21-0.63c0.2-0.53,0.36-1.08,0.46-1.65c0.32,0.54,0.48,1.1,0.46,1.63c-0.02,0.49-0.2,0.95-0.5,1.27
		C45.55,13.25,45.48,13.05,45.41,12.84z"/>
</g>
</svg>
